M48
; DRILL file {KiCad 8.0.8} date 2025-02-03T11:58:00+0000
; FORMAT={-:-/ absolute / inch / decimal}
; #@! TF.CreationDate,2025-02-03T11:58:00+00:00
; #@! TF.GenerationSoftware,Kicad,Pcbnew,8.0.8
; #@! TF.FileFunction,Plated,1,4,PTH
FMAT,2
INCH
; #@! TA.AperFunction,Plated,PTH,ViaDrill
T1C0.0118
; #@! TA.AperFunction,Plated,PTH,ComponentDrill
T2C0.0197
; #@! TA.AperFunction,Plated,PTH,ComponentDrill
T3C0.0256
; #@! TA.AperFunction,Plated,PTH,ComponentDrill
T4C0.0394
%
G90
G05
T1
X5.79Y-2.9892
X5.82Y-3.94
X5.93Y-3.94
X6.04Y-3.94
X6.35Y-3.12
X6.41Y-2.97
X6.47Y-2.46
X6.47Y-2.97
X6.47Y-3.77
X6.4717Y-2.4183
X6.48Y-3.19
X6.5Y-3.23
X6.56Y-3.31
X6.65Y-3.31
X6.69Y-3.31
X6.73Y-3.31
X6.77Y-3.31
X6.78Y-3.77
X6.93Y-3.31
X7.09Y-3.77
X7.13Y-2.3857
X7.13Y-2.426
X7.13Y-2.4645
X7.13Y-2.5039
X7.13Y-2.5432
X7.13Y-2.58
X7.13Y-2.8976
X7.13Y-3.0157
X7.13Y-3.11
X7.132Y-2.622
X7.18Y-3.24
X7.23Y-3.65
X7.29Y-3.11
X7.33Y-3.11
X7.33Y-3.84
X7.36Y-3.52
X7.36Y-3.84
X7.39Y-3.52
X7.39Y-3.84
X7.4Y-3.39
X7.42Y-3.52
X7.45Y-3.39
X7.5837Y-3.2295
X7.6231Y-3.19
T4
X5.67Y-2.45
X5.67Y-2.55
X5.67Y-2.65
X5.67Y-2.75
X5.67Y-2.85
X5.67Y-2.95
X5.67Y-3.05
X5.67Y-3.15
X5.67Y-3.25
X5.67Y-3.35
X5.88Y-2.45
X5.98Y-2.45
X6.08Y-2.45
X6.14Y-2.94
X6.14Y-3.04
X6.14Y-3.14
X6.14Y-3.24
X6.18Y-2.45
X6.24Y-2.94
X6.24Y-3.04
X6.24Y-3.14
X6.24Y-3.24
X6.28Y-2.45
X6.38Y-2.45
X6.4296Y-4.03
X6.5296Y-4.03
X6.6296Y-4.03
X6.7296Y-4.03
X6.8296Y-4.03
X6.9296Y-4.03
X7.0296Y-4.03
X7.1296Y-4.03
X7.2296Y-4.03
X7.34Y-2.449
X7.44Y-2.449
X7.46Y-4.03
X7.54Y-2.449
X7.56Y-4.03
X7.64Y-2.449
X7.87Y-3.53
X7.87Y-3.63
X7.87Y-3.73
X7.87Y-3.83
X7.87Y-3.93
X7.87Y-4.03
X7.871Y-2.4512
X7.871Y-2.5512
X7.871Y-2.6512
X7.871Y-2.7512
X7.871Y-2.8512
T2
G00X7.8715Y-3.0493
M15
G01X7.8991Y-3.0493
M16
G05
G00X7.8715Y-3.3307
M15
G01X7.8991Y-3.3307
M16
G05
T3
G00X7.7741Y-3.0945
M15
G01X7.782Y-3.0945
M16
G05
G00X7.7741Y-3.2855
M15
G01X7.782Y-3.2855
M16
G05
M30
