%TF.GenerationSoftware,KiCad,Pcbnew,8.0.8*%
%TF.CreationDate,2025-02-03T11:58:04+00:00*%
%TF.ProjectId,FSC-BT1038B Barebones Breakout,4653432d-4254-4313-9033-384220426172,0.1*%
%TF.SameCoordinates,Original*%
%TF.FileFunction,Copper,L3,Inr*%
%TF.FilePolarity,Positive*%
%FSLAX46Y46*%
G04 Gerber Fmt 4.6, Leading zero omitted, Abs format (unit mm)*
G04 Created by KiCad (PCBNEW 8.0.8) date 2025-02-03 11:58:04*
%MOMM*%
%LPD*%
G01*
G04 APERTURE LIST*
%TA.AperFunction,ComponentPad*%
%ADD10R,1.700000X1.700000*%
%TD*%
%TA.AperFunction,ComponentPad*%
%ADD11O,1.700000X1.700000*%
%TD*%
%TA.AperFunction,ComponentPad*%
%ADD12O,1.800000X1.100000*%
%TD*%
%TA.AperFunction,ComponentPad*%
%ADD13O,1.250000X1.050000*%
%TD*%
%TA.AperFunction,ViaPad*%
%ADD14C,0.600000*%
%TD*%
G04 APERTURE END LIST*
D10*
%TO.N,+3.3V*%
%TO.C,J1*%
X158496000Y-74676000D03*
D11*
%TO.N,/SPI_CLK*%
X155956000Y-74676000D03*
%TO.N,/BT_TX*%
X158496000Y-77216000D03*
%TO.N,/SPI_MISO*%
X155956000Y-77216000D03*
%TO.N,/BT_RX*%
X158496000Y-79756000D03*
%TO.N,/SPI_MOSI*%
X155956000Y-79756000D03*
%TO.N,GND*%
X158496000Y-82296000D03*
X155956000Y-82296000D03*
%TD*%
D10*
%TO.N,/VBAT_IN*%
%TO.C,J5*%
X189484000Y-102362000D03*
D11*
%TO.N,GND*%
X192024000Y-102362000D03*
%TD*%
D12*
%TO.N,GND*%
%TO.C,J2*%
X200287000Y-84601000D03*
D13*
X197562000Y-83451000D03*
X197562000Y-78601000D03*
D12*
X200287000Y-77451000D03*
%TD*%
D10*
%TO.N,/MIC_BIAS*%
%TO.C,J4*%
X186436000Y-62205000D03*
D11*
%TO.N,/MIC{slash}LINE_LN*%
X188976000Y-62205000D03*
%TO.N,/MIC{slash}LINE_LP*%
X191516000Y-62205000D03*
%TO.N,GND*%
X194056000Y-62205000D03*
%TD*%
D10*
%TO.N,/MIC{slash}LINE_LN*%
%TO.C,J3*%
X199923000Y-62260000D03*
D11*
%TO.N,/MIC{slash}LINE_LP*%
X199923000Y-64800000D03*
%TO.N,/LINE_RN*%
X199923000Y-67340000D03*
%TO.N,/LINE_RP*%
X199923000Y-69880000D03*
%TO.N,GND*%
X199923000Y-72420000D03*
%TD*%
D10*
%TO.N,Net-(J6-Pin_1)*%
%TO.C,J6*%
X162052000Y-62230000D03*
D11*
%TO.N,/PCM_CLK*%
X159512000Y-62230000D03*
%TO.N,/PCM_IN*%
X156972000Y-62230000D03*
%TO.N,/PCM_OUT*%
X154432000Y-62230000D03*
%TO.N,/PCM_SYNC*%
X151892000Y-62230000D03*
%TO.N,GND*%
X149352000Y-62230000D03*
%TD*%
D10*
%TO.N,+3.3V*%
%TO.C,J8*%
X144018000Y-62230000D03*
D11*
%TO.N,/AIO4*%
X144018000Y-64770000D03*
%TO.N,/AIO5*%
X144018000Y-67310000D03*
%TO.N,/RESET*%
X144018000Y-69850000D03*
%TO.N,/PIO15*%
X144018000Y-72390000D03*
%TO.N,/BT_CTS*%
X144018000Y-74930000D03*
%TO.N,/BT_RTS*%
X144018000Y-77470000D03*
%TO.N,/PIO26*%
X144018000Y-80010000D03*
%TO.N,/PIO30*%
X144018000Y-82550000D03*
%TO.N,GND*%
X144018000Y-85090000D03*
%TD*%
D10*
%TO.N,/SPK_LP*%
%TO.C,J7*%
X199898000Y-89662000D03*
D11*
%TO.N,/SPK_LN*%
X199898000Y-92202000D03*
%TO.N,GND*%
X199898000Y-94742000D03*
%TO.N,/SPK_RP*%
X199898000Y-97282000D03*
%TO.N,/SPK_RN*%
X199898000Y-99822000D03*
%TO.N,GND*%
X199898000Y-102362000D03*
%TD*%
D10*
%TO.N,+3.3V*%
%TO.C,J9*%
X163312000Y-102362000D03*
D11*
%TO.N,/PIO25*%
X165852000Y-102362000D03*
%TO.N,/PIO24*%
X168392000Y-102362000D03*
%TO.N,/PIO22*%
X170932000Y-102362000D03*
%TO.N,/PIO23*%
X173472000Y-102362000D03*
%TO.N,/VCGH_SENSE*%
X176012000Y-102362000D03*
%TO.N,/CHG_EXT*%
X178552000Y-102362000D03*
%TO.N,/SYS_CTRL*%
X181092000Y-102362000D03*
%TO.N,GND*%
X183632000Y-102362000D03*
%TD*%
D14*
%TO.N,GND*%
X166624000Y-84074000D03*
X186182000Y-78994000D03*
X181102000Y-61620400D03*
X181102000Y-62598000D03*
X185166000Y-78994000D03*
X189230000Y-86106000D03*
X182372000Y-82296000D03*
X181102000Y-60598000D03*
X187960000Y-86106000D03*
%TO.N,+5V*%
X181102000Y-73598000D03*
%TO.N,+3.3V*%
X164338000Y-95758000D03*
X186944000Y-89408000D03*
X153416000Y-100076000D03*
X172212000Y-95758000D03*
X188468000Y-89408000D03*
X181102000Y-76598000D03*
X186182000Y-97536000D03*
X187706000Y-89408000D03*
X147828000Y-100076000D03*
X187706000Y-97536000D03*
X186944000Y-97536000D03*
X161290000Y-79248000D03*
X180086000Y-95758000D03*
X150622000Y-100076000D03*
%TO.N,/D+*%
X193628000Y-81026000D03*
X192625025Y-82028975D03*
%TO.N,/SPK_LP*%
X181102000Y-63598000D03*
%TO.N,/SPK_RN*%
X181152000Y-66598000D03*
%TO.N,/SPK_LN*%
X181102000Y-64598000D03*
%TO.N,/SPK_RP*%
X181102000Y-65532000D03*
%TO.N,/PIO26*%
X164592000Y-81026000D03*
%TO.N,/PIO30*%
X165100000Y-82042000D03*
%TO.N,/AIO5*%
X164338000Y-62484000D03*
%TO.N,/BT_RTS*%
X147066000Y-75926000D03*
X164338000Y-75438000D03*
%TO.N,/AIO4*%
X164381265Y-61424735D03*
%TO.N,/BT_CTS*%
X162814000Y-75438000D03*
%TO.N,/PIO25*%
X168910000Y-84074000D03*
%TO.N,/CHG_EXT*%
X176022000Y-84074000D03*
%TO.N,/PIO24*%
X169926000Y-84074000D03*
%TO.N,/PIO22*%
X170942000Y-84074000D03*
%TO.N,/PIO23*%
X171958000Y-84074000D03*
%TO.N,/SYS_CTRL*%
X183642000Y-92710000D03*
X181102000Y-78994000D03*
%TD*%
%TA.AperFunction,Conductor*%
%TO.N,+3.3V*%
G36*
X160951648Y-59696852D02*
G01*
X160966000Y-59731500D01*
X160966000Y-60298000D01*
X180612537Y-60298000D01*
X180647185Y-60312352D01*
X180661537Y-60347000D01*
X180657109Y-60367356D01*
X180616833Y-60455545D01*
X180596353Y-60597997D01*
X180596353Y-60598002D01*
X180616833Y-60740454D01*
X180648935Y-60810746D01*
X180676623Y-60871373D01*
X180676624Y-60871374D01*
X180676625Y-60871376D01*
X180757561Y-60964781D01*
X180770872Y-60980143D01*
X180891947Y-61057953D01*
X180901443Y-61060741D01*
X180906359Y-61062185D01*
X180935560Y-61085717D01*
X180939569Y-61123005D01*
X180916037Y-61152206D01*
X180906359Y-61156215D01*
X180891949Y-61160446D01*
X180891947Y-61160446D01*
X180891947Y-61160447D01*
X180877549Y-61169700D01*
X180770871Y-61238257D01*
X180676625Y-61347023D01*
X180676624Y-61347025D01*
X180616833Y-61477945D01*
X180596353Y-61620397D01*
X180596353Y-61620402D01*
X180616833Y-61762854D01*
X180636938Y-61806877D01*
X180676623Y-61893773D01*
X180676624Y-61893774D01*
X180676625Y-61893776D01*
X180770872Y-62002544D01*
X180770874Y-62002546D01*
X180872691Y-62067979D01*
X180894080Y-62098784D01*
X180887421Y-62135691D01*
X180872691Y-62150421D01*
X180770874Y-62215853D01*
X180770872Y-62215855D01*
X180676625Y-62324623D01*
X180676624Y-62324625D01*
X180616833Y-62455545D01*
X180596353Y-62597997D01*
X180596353Y-62598002D01*
X180616833Y-62740454D01*
X180640123Y-62791450D01*
X180676623Y-62871373D01*
X180676624Y-62871374D01*
X180676625Y-62871376D01*
X180739513Y-62943953D01*
X180770872Y-62980143D01*
X180777652Y-62984500D01*
X180890119Y-63056778D01*
X180911508Y-63087584D01*
X180904850Y-63124491D01*
X180890119Y-63139222D01*
X180770871Y-63215857D01*
X180676625Y-63324623D01*
X180676624Y-63324625D01*
X180616833Y-63455545D01*
X180596353Y-63597997D01*
X180596353Y-63598002D01*
X180616833Y-63740454D01*
X180641638Y-63794768D01*
X180676623Y-63871373D01*
X180676624Y-63871374D01*
X180676625Y-63871376D01*
X180694769Y-63892315D01*
X180770872Y-63980143D01*
X180838477Y-64023590D01*
X180890119Y-64056778D01*
X180911508Y-64087584D01*
X180904850Y-64124491D01*
X180890119Y-64139222D01*
X180770871Y-64215857D01*
X180676625Y-64324623D01*
X180676624Y-64324625D01*
X180616833Y-64455545D01*
X180596353Y-64597997D01*
X180596353Y-64598002D01*
X180616833Y-64740454D01*
X180630327Y-64770000D01*
X180676623Y-64871373D01*
X180676624Y-64871374D01*
X180676625Y-64871376D01*
X180770872Y-64980144D01*
X180770874Y-64980146D01*
X180838769Y-65023779D01*
X180860158Y-65054584D01*
X180853499Y-65091491D01*
X180838769Y-65106221D01*
X180770874Y-65149853D01*
X180770872Y-65149855D01*
X180676625Y-65258623D01*
X180676624Y-65258625D01*
X180616833Y-65389545D01*
X180596353Y-65531997D01*
X180596353Y-65532002D01*
X180616833Y-65674454D01*
X180618308Y-65677683D01*
X180676623Y-65805373D01*
X180676624Y-65805374D01*
X180676625Y-65805376D01*
X180770871Y-65914142D01*
X180770872Y-65914143D01*
X180891947Y-65991953D01*
X180969257Y-66014653D01*
X181005603Y-66025325D01*
X181034804Y-66048857D01*
X181038813Y-66086145D01*
X181015281Y-66115346D01*
X181005603Y-66119355D01*
X180941949Y-66138046D01*
X180820871Y-66215857D01*
X180726625Y-66324623D01*
X180726624Y-66324625D01*
X180666833Y-66455545D01*
X180646353Y-66597997D01*
X180646353Y-66598002D01*
X180666833Y-66740454D01*
X180672814Y-66753550D01*
X180726623Y-66871373D01*
X180726624Y-66871374D01*
X180726625Y-66871376D01*
X180756664Y-66906043D01*
X180820872Y-66980143D01*
X180941947Y-67057953D01*
X181018785Y-67080514D01*
X181080034Y-67098499D01*
X181080037Y-67098499D01*
X181080039Y-67098500D01*
X181080040Y-67098500D01*
X181223960Y-67098500D01*
X181223961Y-67098500D01*
X181223963Y-67098499D01*
X181223965Y-67098499D01*
X181246795Y-67091795D01*
X181362053Y-67057953D01*
X181483128Y-66980143D01*
X181577377Y-66871373D01*
X181637165Y-66740457D01*
X181637165Y-66740455D01*
X181637166Y-66740454D01*
X181657647Y-66598002D01*
X181657647Y-66597997D01*
X181637166Y-66455545D01*
X181595709Y-66364769D01*
X181577377Y-66324627D01*
X181560110Y-66304700D01*
X181483128Y-66215857D01*
X181362053Y-66138047D01*
X181362050Y-66138046D01*
X181248396Y-66104674D01*
X181219195Y-66081142D01*
X181215186Y-66043854D01*
X181238718Y-66014653D01*
X181248394Y-66010644D01*
X181312053Y-65991953D01*
X181433128Y-65914143D01*
X181527377Y-65805373D01*
X181587165Y-65674457D01*
X181587165Y-65674455D01*
X181587166Y-65674454D01*
X181607647Y-65532002D01*
X181607647Y-65531997D01*
X181587166Y-65389545D01*
X181572052Y-65356450D01*
X181527377Y-65258627D01*
X181433128Y-65149857D01*
X181365229Y-65106221D01*
X181343841Y-65075416D01*
X181350499Y-65038509D01*
X181365230Y-65023778D01*
X181433128Y-64980143D01*
X181527377Y-64871373D01*
X181559973Y-64799999D01*
X198867417Y-64799999D01*
X198867417Y-64800000D01*
X198887700Y-65005934D01*
X198887700Y-65005935D01*
X198905617Y-65065000D01*
X198947768Y-65203954D01*
X199045315Y-65386450D01*
X199176590Y-65546410D01*
X199336550Y-65677685D01*
X199519046Y-65775232D01*
X199717066Y-65835300D01*
X199923000Y-65855583D01*
X200128934Y-65835300D01*
X200326954Y-65775232D01*
X200509450Y-65677685D01*
X200669410Y-65546410D01*
X200800685Y-65386450D01*
X200898232Y-65203954D01*
X200958300Y-65005934D01*
X200978583Y-64800000D01*
X200958300Y-64594066D01*
X200898232Y-64396046D01*
X200800685Y-64213550D01*
X200669410Y-64053590D01*
X200509450Y-63922315D01*
X200326954Y-63824768D01*
X200128934Y-63764700D01*
X199923000Y-63744417D01*
X199717065Y-63764700D01*
X199717064Y-63764700D01*
X199519043Y-63824769D01*
X199336548Y-63922316D01*
X199176590Y-64053590D01*
X199045316Y-64213548D01*
X198947769Y-64396043D01*
X198887700Y-64594064D01*
X198887700Y-64594065D01*
X198867417Y-64799999D01*
X181559973Y-64799999D01*
X181587165Y-64740457D01*
X181587165Y-64740455D01*
X181587166Y-64740454D01*
X181607647Y-64598002D01*
X181607647Y-64597997D01*
X181587166Y-64455545D01*
X181559992Y-64396043D01*
X181527377Y-64324627D01*
X181433128Y-64215857D01*
X181313878Y-64139220D01*
X181292491Y-64108416D01*
X181299149Y-64071509D01*
X181313877Y-64056780D01*
X181433128Y-63980143D01*
X181527377Y-63871373D01*
X181587165Y-63740457D01*
X181587165Y-63740455D01*
X181587166Y-63740454D01*
X181607647Y-63598002D01*
X181607647Y-63597997D01*
X181587166Y-63455545D01*
X181582751Y-63445879D01*
X181527377Y-63324627D01*
X181493545Y-63285583D01*
X181433128Y-63215857D01*
X181377691Y-63180230D01*
X181313878Y-63139220D01*
X181292491Y-63108416D01*
X181299149Y-63071509D01*
X181313877Y-63056780D01*
X181433128Y-62980143D01*
X181527377Y-62871373D01*
X181587165Y-62740457D01*
X181587165Y-62740455D01*
X181587166Y-62740454D01*
X181607647Y-62598002D01*
X181607647Y-62597997D01*
X181587166Y-62455545D01*
X181566793Y-62410935D01*
X181527377Y-62324627D01*
X181433128Y-62215857D01*
X181331307Y-62150420D01*
X181309919Y-62119616D01*
X181316577Y-62082709D01*
X181331306Y-62067979D01*
X181433128Y-62002543D01*
X181527377Y-61893773D01*
X181587165Y-61762857D01*
X181587165Y-61762855D01*
X181587166Y-61762854D01*
X181607647Y-61620402D01*
X181607647Y-61620397D01*
X181587166Y-61477945D01*
X181562864Y-61424732D01*
X181527377Y-61347027D01*
X181517174Y-61335252D01*
X185385500Y-61335252D01*
X185385500Y-63074748D01*
X185397133Y-63133231D01*
X185413837Y-63158230D01*
X185441447Y-63199552D01*
X185465850Y-63215857D01*
X185507769Y-63243867D01*
X185566252Y-63255500D01*
X185566255Y-63255500D01*
X187305745Y-63255500D01*
X187305748Y-63255500D01*
X187364231Y-63243867D01*
X187430552Y-63199552D01*
X187474867Y-63133231D01*
X187486500Y-63074748D01*
X187486500Y-62204999D01*
X187920417Y-62204999D01*
X187920417Y-62205000D01*
X187940700Y-62410934D01*
X187940700Y-62410935D01*
X187948284Y-62435935D01*
X188000768Y-62608954D01*
X188098315Y-62791450D01*
X188229590Y-62951410D01*
X188389550Y-63082685D01*
X188572046Y-63180232D01*
X188770066Y-63240300D01*
X188976000Y-63260583D01*
X189181934Y-63240300D01*
X189379954Y-63180232D01*
X189562450Y-63082685D01*
X189722410Y-62951410D01*
X189853685Y-62791450D01*
X189951232Y-62608954D01*
X190011300Y-62410934D01*
X190031583Y-62205000D01*
X190031583Y-62204999D01*
X190460417Y-62204999D01*
X190460417Y-62205000D01*
X190480700Y-62410934D01*
X190480700Y-62410935D01*
X190488284Y-62435935D01*
X190540768Y-62608954D01*
X190638315Y-62791450D01*
X190769590Y-62951410D01*
X190929550Y-63082685D01*
X191112046Y-63180232D01*
X191310066Y-63240300D01*
X191516000Y-63260583D01*
X191721934Y-63240300D01*
X191919954Y-63180232D01*
X192102450Y-63082685D01*
X192262410Y-62951410D01*
X192393685Y-62791450D01*
X192491232Y-62608954D01*
X192551300Y-62410934D01*
X192571583Y-62205000D01*
X192571583Y-62204999D01*
X193000417Y-62204999D01*
X193000417Y-62205000D01*
X193020700Y-62410934D01*
X193020700Y-62410935D01*
X193028284Y-62435935D01*
X193080768Y-62608954D01*
X193178315Y-62791450D01*
X193309590Y-62951410D01*
X193469550Y-63082685D01*
X193652046Y-63180232D01*
X193850066Y-63240300D01*
X194056000Y-63260583D01*
X194261934Y-63240300D01*
X194459954Y-63180232D01*
X194642450Y-63082685D01*
X194802410Y-62951410D01*
X194933685Y-62791450D01*
X195031232Y-62608954D01*
X195091300Y-62410934D01*
X195111583Y-62205000D01*
X195091300Y-61999066D01*
X195031232Y-61801046D01*
X194933685Y-61618550D01*
X194802410Y-61458590D01*
X194719139Y-61390252D01*
X198872500Y-61390252D01*
X198872500Y-63129748D01*
X198884133Y-63188231D01*
X198891698Y-63199552D01*
X198928447Y-63254552D01*
X198955012Y-63272301D01*
X198994769Y-63298867D01*
X199053252Y-63310500D01*
X199053255Y-63310500D01*
X200792745Y-63310500D01*
X200792748Y-63310500D01*
X200851231Y-63298867D01*
X200917552Y-63254552D01*
X200961867Y-63188231D01*
X200973500Y-63129748D01*
X200973500Y-61390252D01*
X200961867Y-61331769D01*
X200925117Y-61276769D01*
X200917552Y-61265447D01*
X200876858Y-61238257D01*
X200851231Y-61221133D01*
X200792748Y-61209500D01*
X199053252Y-61209500D01*
X198994769Y-61221133D01*
X198928447Y-61265447D01*
X198887109Y-61327315D01*
X198884133Y-61331769D01*
X198872500Y-61390252D01*
X194719139Y-61390252D01*
X194642450Y-61327315D01*
X194475836Y-61238257D01*
X194459956Y-61229769D01*
X194459955Y-61229768D01*
X194459954Y-61229768D01*
X194261934Y-61169700D01*
X194056000Y-61149417D01*
X193850065Y-61169700D01*
X193850064Y-61169700D01*
X193652043Y-61229769D01*
X193469548Y-61327316D01*
X193309590Y-61458590D01*
X193178316Y-61618548D01*
X193080769Y-61801043D01*
X193020700Y-61999064D01*
X193020700Y-61999065D01*
X193000417Y-62204999D01*
X192571583Y-62204999D01*
X192551300Y-61999066D01*
X192491232Y-61801046D01*
X192393685Y-61618550D01*
X192262410Y-61458590D01*
X192102450Y-61327315D01*
X191935836Y-61238257D01*
X191919956Y-61229769D01*
X191919955Y-61229768D01*
X191919954Y-61229768D01*
X191721934Y-61169700D01*
X191516000Y-61149417D01*
X191310065Y-61169700D01*
X191310064Y-61169700D01*
X191112043Y-61229769D01*
X190929548Y-61327316D01*
X190769590Y-61458590D01*
X190638316Y-61618548D01*
X190540769Y-61801043D01*
X190480700Y-61999064D01*
X190480700Y-61999065D01*
X190460417Y-62204999D01*
X190031583Y-62204999D01*
X190011300Y-61999066D01*
X189951232Y-61801046D01*
X189853685Y-61618550D01*
X189722410Y-61458590D01*
X189562450Y-61327315D01*
X189395836Y-61238257D01*
X189379956Y-61229769D01*
X189379955Y-61229768D01*
X189379954Y-61229768D01*
X189181934Y-61169700D01*
X188976000Y-61149417D01*
X188770065Y-61169700D01*
X188770064Y-61169700D01*
X188572043Y-61229769D01*
X188389548Y-61327316D01*
X188229590Y-61458590D01*
X188098316Y-61618548D01*
X188000769Y-61801043D01*
X187940700Y-61999064D01*
X187940700Y-61999065D01*
X187920417Y-62204999D01*
X187486500Y-62204999D01*
X187486500Y-61335252D01*
X187474867Y-61276769D01*
X187443462Y-61229769D01*
X187430552Y-61210447D01*
X187384236Y-61179500D01*
X187364231Y-61166133D01*
X187305748Y-61154500D01*
X185566252Y-61154500D01*
X185507769Y-61166133D01*
X185441447Y-61210447D01*
X185397133Y-61276769D01*
X185385500Y-61335252D01*
X181517174Y-61335252D01*
X181510297Y-61327316D01*
X181433128Y-61238257D01*
X181312050Y-61160445D01*
X181297641Y-61156215D01*
X181268439Y-61132684D01*
X181264430Y-61095396D01*
X181287961Y-61066194D01*
X181297641Y-61062185D01*
X181312050Y-61057954D01*
X181312050Y-61057953D01*
X181312053Y-61057953D01*
X181433128Y-60980143D01*
X181527377Y-60871373D01*
X181587165Y-60740457D01*
X181587165Y-60740455D01*
X181587166Y-60740454D01*
X181607647Y-60598002D01*
X181607647Y-60597997D01*
X181587166Y-60455545D01*
X181546891Y-60367356D01*
X181545552Y-60329876D01*
X181571107Y-60302428D01*
X181591463Y-60298000D01*
X183966000Y-60298000D01*
X183966000Y-59731500D01*
X183980352Y-59696852D01*
X184015000Y-59682500D01*
X201380500Y-59682500D01*
X201415148Y-59696852D01*
X201429500Y-59731500D01*
X201429500Y-77156775D01*
X201415148Y-77191423D01*
X201380500Y-77205775D01*
X201345852Y-77191423D01*
X201335230Y-77175526D01*
X201302085Y-77095508D01*
X201302084Y-77095505D01*
X201219951Y-76972584D01*
X201115416Y-76868049D01*
X200992495Y-76785916D01*
X200992492Y-76785914D01*
X200992491Y-76785914D01*
X200855915Y-76729342D01*
X200855906Y-76729340D01*
X200710921Y-76700500D01*
X200710918Y-76700500D01*
X199863082Y-76700500D01*
X199863078Y-76700500D01*
X199718093Y-76729340D01*
X199718084Y-76729342D01*
X199581508Y-76785914D01*
X199458584Y-76868048D01*
X199354048Y-76972584D01*
X199271914Y-77095508D01*
X199215342Y-77232084D01*
X199215340Y-77232093D01*
X199186500Y-77377078D01*
X199186500Y-77524921D01*
X199215340Y-77669906D01*
X199215342Y-77669915D01*
X199270241Y-77802451D01*
X199271916Y-77806495D01*
X199354049Y-77929416D01*
X199458584Y-78033951D01*
X199581505Y-78116084D01*
X199635673Y-78138521D01*
X199718084Y-78172657D01*
X199718085Y-78172657D01*
X199718087Y-78172658D01*
X199863082Y-78201500D01*
X200710918Y-78201500D01*
X200855913Y-78172658D01*
X200992495Y-78116084D01*
X201115416Y-78033951D01*
X201219951Y-77929416D01*
X201302084Y-77806495D01*
X201335230Y-77726472D01*
X201361748Y-77699954D01*
X201399251Y-77699954D01*
X201425770Y-77726472D01*
X201429500Y-77745224D01*
X201429500Y-84306775D01*
X201415148Y-84341423D01*
X201380500Y-84355775D01*
X201345852Y-84341423D01*
X201335230Y-84325526D01*
X201302085Y-84245508D01*
X201302084Y-84245505D01*
X201219951Y-84122584D01*
X201115416Y-84018049D01*
X201110152Y-84014532D01*
X201074810Y-83990917D01*
X200992495Y-83935916D01*
X200992492Y-83935914D01*
X200992491Y-83935914D01*
X200855915Y-83879342D01*
X200855906Y-83879340D01*
X200710921Y-83850500D01*
X200710918Y-83850500D01*
X199863082Y-83850500D01*
X199863078Y-83850500D01*
X199718093Y-83879340D01*
X199718084Y-83879342D01*
X199581508Y-83935914D01*
X199458584Y-84018048D01*
X199354048Y-84122584D01*
X199271914Y-84245508D01*
X199215342Y-84382084D01*
X199215340Y-84382093D01*
X199186500Y-84527078D01*
X199186500Y-84674921D01*
X199215340Y-84819906D01*
X199215342Y-84819915D01*
X199271914Y-84956491D01*
X199271916Y-84956495D01*
X199354049Y-85079416D01*
X199458584Y-85183951D01*
X199581505Y-85266084D01*
X199649796Y-85294371D01*
X199718084Y-85322657D01*
X199718085Y-85322657D01*
X199718087Y-85322658D01*
X199863082Y-85351500D01*
X200710918Y-85351500D01*
X200855913Y-85322658D01*
X200992495Y-85266084D01*
X201115416Y-85183951D01*
X201219951Y-85079416D01*
X201302084Y-84956495D01*
X201335230Y-84876472D01*
X201361748Y-84849954D01*
X201399251Y-84849954D01*
X201425770Y-84876472D01*
X201429500Y-84895224D01*
X201429500Y-103844500D01*
X201415148Y-103879148D01*
X201380500Y-103893500D01*
X142535500Y-103893500D01*
X142500852Y-103879148D01*
X142486500Y-103844500D01*
X142486500Y-101487370D01*
X162212000Y-101487370D01*
X162212000Y-102237000D01*
X162827856Y-102237000D01*
X162812000Y-102296174D01*
X162812000Y-102427826D01*
X162827856Y-102487000D01*
X162212000Y-102487000D01*
X162212000Y-103236629D01*
X162226503Y-103309542D01*
X162281759Y-103392240D01*
X162364457Y-103447496D01*
X162437370Y-103461999D01*
X162437376Y-103462000D01*
X163187000Y-103462000D01*
X163187000Y-102846144D01*
X163246174Y-102862000D01*
X163377826Y-102862000D01*
X163437000Y-102846144D01*
X163437000Y-103462000D01*
X164186624Y-103462000D01*
X164186629Y-103461999D01*
X164259542Y-103447496D01*
X164342240Y-103392240D01*
X164397496Y-103309542D01*
X164411999Y-103236629D01*
X164412000Y-103236624D01*
X164412000Y-102487000D01*
X163796144Y-102487000D01*
X163812000Y-102427826D01*
X163812000Y-102362000D01*
X164796417Y-102362000D01*
X164816700Y-102567934D01*
X164876768Y-102765954D01*
X164974315Y-102948450D01*
X165105590Y-103108410D01*
X165265550Y-103239685D01*
X165448046Y-103337232D01*
X165646066Y-103397300D01*
X165852000Y-103417583D01*
X166057934Y-103397300D01*
X166255954Y-103337232D01*
X166438450Y-103239685D01*
X166598410Y-103108410D01*
X166729685Y-102948450D01*
X166827232Y-102765954D01*
X166887300Y-102567934D01*
X166907583Y-102362000D01*
X167336417Y-102362000D01*
X167356700Y-102567934D01*
X167416768Y-102765954D01*
X167514315Y-102948450D01*
X167645590Y-103108410D01*
X167805550Y-103239685D01*
X167988046Y-103337232D01*
X168186066Y-103397300D01*
X168392000Y-103417583D01*
X168597934Y-103397300D01*
X168795954Y-103337232D01*
X168978450Y-103239685D01*
X169138410Y-103108410D01*
X169269685Y-102948450D01*
X169367232Y-102765954D01*
X169427300Y-102567934D01*
X169447583Y-102362000D01*
X169876417Y-102362000D01*
X169896700Y-102567934D01*
X169956768Y-102765954D01*
X170054315Y-102948450D01*
X170185590Y-103108410D01*
X170345550Y-103239685D01*
X170528046Y-103337232D01*
X170726066Y-103397300D01*
X170932000Y-103417583D01*
X171137934Y-103397300D01*
X171335954Y-103337232D01*
X171518450Y-103239685D01*
X171678410Y-103108410D01*
X171809685Y-102948450D01*
X171907232Y-102765954D01*
X171967300Y-102567934D01*
X171987583Y-102362000D01*
X172416417Y-102362000D01*
X172436700Y-102567934D01*
X172496768Y-102765954D01*
X172594315Y-102948450D01*
X172725590Y-103108410D01*
X172885550Y-103239685D01*
X173068046Y-103337232D01*
X173266066Y-103397300D01*
X173472000Y-103417583D01*
X173677934Y-103397300D01*
X173875954Y-103337232D01*
X174058450Y-103239685D01*
X174218410Y-103108410D01*
X174349685Y-102948450D01*
X174447232Y-102765954D01*
X174507300Y-102567934D01*
X174527583Y-102362000D01*
X174956417Y-102362000D01*
X174976700Y-102567934D01*
X175036768Y-102765954D01*
X175134315Y-102948450D01*
X175265590Y-103108410D01*
X175425550Y-103239685D01*
X175608046Y-103337232D01*
X175806066Y-103397300D01*
X176012000Y-103417583D01*
X176217934Y-103397300D01*
X176415954Y-103337232D01*
X176598450Y-103239685D01*
X176758410Y-103108410D01*
X176889685Y-102948450D01*
X176987232Y-102765954D01*
X177047300Y-102567934D01*
X177067583Y-102362000D01*
X177496417Y-102362000D01*
X177516700Y-102567934D01*
X177576768Y-102765954D01*
X177674315Y-102948450D01*
X177805590Y-103108410D01*
X177965550Y-103239685D01*
X178148046Y-103337232D01*
X178346066Y-103397300D01*
X178552000Y-103417583D01*
X178757934Y-103397300D01*
X178955954Y-103337232D01*
X179138450Y-103239685D01*
X179298410Y-103108410D01*
X179429685Y-102948450D01*
X179527232Y-102765954D01*
X179587300Y-102567934D01*
X179607583Y-102362000D01*
X180036417Y-102362000D01*
X180056700Y-102567934D01*
X180116768Y-102765954D01*
X180214315Y-102948450D01*
X180345590Y-103108410D01*
X180505550Y-103239685D01*
X180688046Y-103337232D01*
X180886066Y-103397300D01*
X181092000Y-103417583D01*
X181297934Y-103397300D01*
X181495954Y-103337232D01*
X181678450Y-103239685D01*
X181838410Y-103108410D01*
X181969685Y-102948450D01*
X182067232Y-102765954D01*
X182127300Y-102567934D01*
X182147583Y-102362000D01*
X182576417Y-102362000D01*
X182596700Y-102567934D01*
X182656768Y-102765954D01*
X182754315Y-102948450D01*
X182885590Y-103108410D01*
X183045550Y-103239685D01*
X183228046Y-103337232D01*
X183426066Y-103397300D01*
X183632000Y-103417583D01*
X183837934Y-103397300D01*
X184035954Y-103337232D01*
X184218450Y-103239685D01*
X184378410Y-103108410D01*
X184509685Y-102948450D01*
X184607232Y-102765954D01*
X184667300Y-102567934D01*
X184687583Y-102362000D01*
X184667300Y-102156066D01*
X184607232Y-101958046D01*
X184509685Y-101775550D01*
X184378410Y-101615590D01*
X184228121Y-101492252D01*
X188433500Y-101492252D01*
X188433500Y-103231748D01*
X188445133Y-103290231D01*
X188462882Y-103316795D01*
X188489447Y-103356552D01*
X188516012Y-103374301D01*
X188555769Y-103400867D01*
X188614252Y-103412500D01*
X188614255Y-103412500D01*
X190353745Y-103412500D01*
X190353748Y-103412500D01*
X190412231Y-103400867D01*
X190478552Y-103356552D01*
X190522867Y-103290231D01*
X190534500Y-103231748D01*
X190534500Y-102362000D01*
X190968417Y-102362000D01*
X190988700Y-102567934D01*
X191048768Y-102765954D01*
X191146315Y-102948450D01*
X191277590Y-103108410D01*
X191437550Y-103239685D01*
X191620046Y-103337232D01*
X191818066Y-103397300D01*
X192024000Y-103417583D01*
X192229934Y-103397300D01*
X192427954Y-103337232D01*
X192610450Y-103239685D01*
X192770410Y-103108410D01*
X192901685Y-102948450D01*
X192999232Y-102765954D01*
X193059300Y-102567934D01*
X193079583Y-102362000D01*
X198842417Y-102362000D01*
X198862700Y-102567934D01*
X198922768Y-102765954D01*
X199020315Y-102948450D01*
X199151590Y-103108410D01*
X199311550Y-103239685D01*
X199494046Y-103337232D01*
X199692066Y-103397300D01*
X199898000Y-103417583D01*
X200103934Y-103397300D01*
X200301954Y-103337232D01*
X200484450Y-103239685D01*
X200644410Y-103108410D01*
X200775685Y-102948450D01*
X200873232Y-102765954D01*
X200933300Y-102567934D01*
X200953583Y-102362000D01*
X200933300Y-102156066D01*
X200873232Y-101958046D01*
X200775685Y-101775550D01*
X200644410Y-101615590D01*
X200484450Y-101484315D01*
X200301954Y-101386768D01*
X200103934Y-101326700D01*
X199898000Y-101306417D01*
X199692065Y-101326700D01*
X199692064Y-101326700D01*
X199494043Y-101386769D01*
X199311548Y-101484316D01*
X199151590Y-101615590D01*
X199020316Y-101775548D01*
X198922769Y-101958043D01*
X198862700Y-102156064D01*
X198862700Y-102156065D01*
X198854729Y-102237000D01*
X198842417Y-102362000D01*
X193079583Y-102362000D01*
X193059300Y-102156066D01*
X192999232Y-101958046D01*
X192901685Y-101775550D01*
X192770410Y-101615590D01*
X192610450Y-101484315D01*
X192427954Y-101386768D01*
X192229934Y-101326700D01*
X192024000Y-101306417D01*
X191818065Y-101326700D01*
X191818064Y-101326700D01*
X191620043Y-101386769D01*
X191437548Y-101484316D01*
X191277590Y-101615590D01*
X191146316Y-101775548D01*
X191048769Y-101958043D01*
X190988700Y-102156064D01*
X190988700Y-102156065D01*
X190980729Y-102237000D01*
X190968417Y-102362000D01*
X190534500Y-102362000D01*
X190534500Y-101492252D01*
X190522867Y-101433769D01*
X190491462Y-101386769D01*
X190478552Y-101367447D01*
X190438795Y-101340882D01*
X190412231Y-101323133D01*
X190353748Y-101311500D01*
X188614252Y-101311500D01*
X188555769Y-101323133D01*
X188489447Y-101367447D01*
X188458037Y-101414457D01*
X188445133Y-101433769D01*
X188433500Y-101492252D01*
X184228121Y-101492252D01*
X184218450Y-101484315D01*
X184035954Y-101386768D01*
X183837934Y-101326700D01*
X183632000Y-101306417D01*
X183426065Y-101326700D01*
X183426064Y-101326700D01*
X183228043Y-101386769D01*
X183045548Y-101484316D01*
X182885590Y-101615590D01*
X182754316Y-101775548D01*
X182656769Y-101958043D01*
X182596700Y-102156064D01*
X182596700Y-102156065D01*
X182588729Y-102237000D01*
X182576417Y-102362000D01*
X182147583Y-102362000D01*
X182127300Y-102156066D01*
X182067232Y-101958046D01*
X181969685Y-101775550D01*
X181838410Y-101615590D01*
X181678450Y-101484315D01*
X181495954Y-101386768D01*
X181297934Y-101326700D01*
X181092000Y-101306417D01*
X180886065Y-101326700D01*
X180886064Y-101326700D01*
X180688043Y-101386769D01*
X180505548Y-101484316D01*
X180345590Y-101615590D01*
X180214316Y-101775548D01*
X180116769Y-101958043D01*
X180056700Y-102156064D01*
X180056700Y-102156065D01*
X180048729Y-102237000D01*
X180036417Y-102362000D01*
X179607583Y-102362000D01*
X179587300Y-102156066D01*
X179527232Y-101958046D01*
X179429685Y-101775550D01*
X179298410Y-101615590D01*
X179138450Y-101484315D01*
X178955954Y-101386768D01*
X178757934Y-101326700D01*
X178552000Y-101306417D01*
X178346065Y-101326700D01*
X178346064Y-101326700D01*
X178148043Y-101386769D01*
X177965548Y-101484316D01*
X177805590Y-101615590D01*
X177674316Y-101775548D01*
X177576769Y-101958043D01*
X177516700Y-102156064D01*
X177516700Y-102156065D01*
X177508729Y-102237000D01*
X177496417Y-102362000D01*
X177067583Y-102362000D01*
X177047300Y-102156066D01*
X176987232Y-101958046D01*
X176889685Y-101775550D01*
X176758410Y-101615590D01*
X176598450Y-101484315D01*
X176415954Y-101386768D01*
X176217934Y-101326700D01*
X176012000Y-101306417D01*
X175806065Y-101326700D01*
X175806064Y-101326700D01*
X175608043Y-101386769D01*
X175425548Y-101484316D01*
X175265590Y-101615590D01*
X175134316Y-101775548D01*
X175036769Y-101958043D01*
X174976700Y-102156064D01*
X174976700Y-102156065D01*
X174968729Y-102237000D01*
X174956417Y-102362000D01*
X174527583Y-102362000D01*
X174507300Y-102156066D01*
X174447232Y-101958046D01*
X174349685Y-101775550D01*
X174218410Y-101615590D01*
X174058450Y-101484315D01*
X173875954Y-101386768D01*
X173677934Y-101326700D01*
X173472000Y-101306417D01*
X173266065Y-101326700D01*
X173266064Y-101326700D01*
X173068043Y-101386769D01*
X172885548Y-101484316D01*
X172725590Y-101615590D01*
X172594316Y-101775548D01*
X172496769Y-101958043D01*
X172436700Y-102156064D01*
X172436700Y-102156065D01*
X172428729Y-102237000D01*
X172416417Y-102362000D01*
X171987583Y-102362000D01*
X171967300Y-102156066D01*
X171907232Y-101958046D01*
X171809685Y-101775550D01*
X171678410Y-101615590D01*
X171518450Y-101484315D01*
X171335954Y-101386768D01*
X171137934Y-101326700D01*
X170932000Y-101306417D01*
X170726065Y-101326700D01*
X170726064Y-101326700D01*
X170528043Y-101386769D01*
X170345548Y-101484316D01*
X170185590Y-101615590D01*
X170054316Y-101775548D01*
X169956769Y-101958043D01*
X169896700Y-102156064D01*
X169896700Y-102156065D01*
X169888729Y-102237000D01*
X169876417Y-102362000D01*
X169447583Y-102362000D01*
X169427300Y-102156066D01*
X169367232Y-101958046D01*
X169269685Y-101775550D01*
X169138410Y-101615590D01*
X168978450Y-101484315D01*
X168795954Y-101386768D01*
X168597934Y-101326700D01*
X168392000Y-101306417D01*
X168186065Y-101326700D01*
X168186064Y-101326700D01*
X167988043Y-101386769D01*
X167805548Y-101484316D01*
X167645590Y-101615590D01*
X167514316Y-101775548D01*
X167416769Y-101958043D01*
X167356700Y-102156064D01*
X167356700Y-102156065D01*
X167348729Y-102237000D01*
X167336417Y-102362000D01*
X166907583Y-102362000D01*
X166887300Y-102156066D01*
X166827232Y-101958046D01*
X166729685Y-101775550D01*
X166598410Y-101615590D01*
X166438450Y-101484315D01*
X166255954Y-101386768D01*
X166057934Y-101326700D01*
X165852000Y-101306417D01*
X165646065Y-101326700D01*
X165646064Y-101326700D01*
X165448043Y-101386769D01*
X165265548Y-101484316D01*
X165105590Y-101615590D01*
X164974316Y-101775548D01*
X164876769Y-101958043D01*
X164816700Y-102156064D01*
X164816700Y-102156065D01*
X164808729Y-102237000D01*
X164796417Y-102362000D01*
X163812000Y-102362000D01*
X163812000Y-102296174D01*
X163796144Y-102237000D01*
X164412000Y-102237000D01*
X164412000Y-101487376D01*
X164411999Y-101487370D01*
X164397496Y-101414457D01*
X164342240Y-101331759D01*
X164259542Y-101276503D01*
X164186629Y-101262000D01*
X163437000Y-101262000D01*
X163437000Y-101877855D01*
X163377826Y-101862000D01*
X163246174Y-101862000D01*
X163187000Y-101877855D01*
X163187000Y-101262000D01*
X162437370Y-101262000D01*
X162364457Y-101276503D01*
X162281759Y-101331759D01*
X162226503Y-101414457D01*
X162212000Y-101487370D01*
X142486500Y-101487370D01*
X142486500Y-99822000D01*
X198842417Y-99822000D01*
X198862700Y-100027934D01*
X198922768Y-100225954D01*
X199020315Y-100408450D01*
X199151590Y-100568410D01*
X199311550Y-100699685D01*
X199494046Y-100797232D01*
X199692066Y-100857300D01*
X199898000Y-100877583D01*
X200103934Y-100857300D01*
X200301954Y-100797232D01*
X200484450Y-100699685D01*
X200644410Y-100568410D01*
X200775685Y-100408450D01*
X200873232Y-100225954D01*
X200933300Y-100027934D01*
X200953583Y-99822000D01*
X200933300Y-99616066D01*
X200873232Y-99418046D01*
X200775685Y-99235550D01*
X200644410Y-99075590D01*
X200484450Y-98944315D01*
X200301954Y-98846768D01*
X200103934Y-98786700D01*
X199898000Y-98766417D01*
X199692065Y-98786700D01*
X199692064Y-98786700D01*
X199494043Y-98846769D01*
X199311548Y-98944316D01*
X199151590Y-99075590D01*
X199020316Y-99235548D01*
X198922769Y-99418043D01*
X198862700Y-99616064D01*
X198862700Y-99616065D01*
X198862700Y-99616066D01*
X198842417Y-99822000D01*
X142486500Y-99822000D01*
X142486500Y-97282000D01*
X198842417Y-97282000D01*
X198862700Y-97487934D01*
X198922768Y-97685954D01*
X199020315Y-97868450D01*
X199151590Y-98028410D01*
X199311550Y-98159685D01*
X199494046Y-98257232D01*
X199692066Y-98317300D01*
X199898000Y-98337583D01*
X200103934Y-98317300D01*
X200301954Y-98257232D01*
X200484450Y-98159685D01*
X200644410Y-98028410D01*
X200775685Y-97868450D01*
X200873232Y-97685954D01*
X200933300Y-97487934D01*
X200953583Y-97282000D01*
X200933300Y-97076066D01*
X200873232Y-96878046D01*
X200775685Y-96695550D01*
X200644410Y-96535590D01*
X200484450Y-96404315D01*
X200301954Y-96306768D01*
X200103934Y-96246700D01*
X199898000Y-96226417D01*
X199692065Y-96246700D01*
X199692064Y-96246700D01*
X199494043Y-96306769D01*
X199311548Y-96404316D01*
X199151590Y-96535590D01*
X199020316Y-96695548D01*
X198922769Y-96878043D01*
X198862700Y-97076064D01*
X198862700Y-97076065D01*
X198862700Y-97076066D01*
X198842417Y-97282000D01*
X142486500Y-97282000D01*
X142486500Y-94742000D01*
X198842417Y-94742000D01*
X198862700Y-94947934D01*
X198922768Y-95145954D01*
X199020315Y-95328450D01*
X199151590Y-95488410D01*
X199311550Y-95619685D01*
X199494046Y-95717232D01*
X199692066Y-95777300D01*
X199898000Y-95797583D01*
X200103934Y-95777300D01*
X200301954Y-95717232D01*
X200484450Y-95619685D01*
X200644410Y-95488410D01*
X200775685Y-95328450D01*
X200873232Y-95145954D01*
X200933300Y-94947934D01*
X200953583Y-94742000D01*
X200933300Y-94536066D01*
X200873232Y-94338046D01*
X200775685Y-94155550D01*
X200644410Y-93995590D01*
X200484450Y-93864315D01*
X200301954Y-93766768D01*
X200103934Y-93706700D01*
X199898000Y-93686417D01*
X199692065Y-93706700D01*
X199692064Y-93706700D01*
X199494043Y-93766769D01*
X199311548Y-93864316D01*
X199151590Y-93995590D01*
X199020316Y-94155548D01*
X198922769Y-94338043D01*
X198862700Y-94536064D01*
X198862700Y-94536065D01*
X198862700Y-94536066D01*
X198842417Y-94742000D01*
X142486500Y-94742000D01*
X142486500Y-92709997D01*
X183136353Y-92709997D01*
X183136353Y-92710002D01*
X183156833Y-92852454D01*
X183188935Y-92922746D01*
X183216623Y-92983373D01*
X183216624Y-92983374D01*
X183216625Y-92983376D01*
X183300075Y-93079683D01*
X183310872Y-93092143D01*
X183431947Y-93169953D01*
X183508785Y-93192514D01*
X183570034Y-93210499D01*
X183570037Y-93210499D01*
X183570039Y-93210500D01*
X183570040Y-93210500D01*
X183713960Y-93210500D01*
X183713961Y-93210500D01*
X183713963Y-93210499D01*
X183713965Y-93210499D01*
X183736795Y-93203795D01*
X183852053Y-93169953D01*
X183973128Y-93092143D01*
X184067377Y-92983373D01*
X184127165Y-92852457D01*
X184127165Y-92852455D01*
X184127166Y-92852454D01*
X184147647Y-92710002D01*
X184147647Y-92709997D01*
X184127166Y-92567545D01*
X184122751Y-92557879D01*
X184067377Y-92436627D01*
X184042515Y-92407935D01*
X183973128Y-92327857D01*
X183852053Y-92250047D01*
X183852050Y-92250046D01*
X183713965Y-92209500D01*
X183713961Y-92209500D01*
X183570039Y-92209500D01*
X183570034Y-92209500D01*
X183431949Y-92250046D01*
X183310871Y-92327857D01*
X183216625Y-92436623D01*
X183216624Y-92436625D01*
X183156833Y-92567545D01*
X183136353Y-92709997D01*
X142486500Y-92709997D01*
X142486500Y-92201999D01*
X198842417Y-92201999D01*
X198842417Y-92202000D01*
X198862700Y-92407934D01*
X198862700Y-92407935D01*
X198871403Y-92436625D01*
X198922768Y-92605954D01*
X199020315Y-92788450D01*
X199151590Y-92948410D01*
X199311550Y-93079685D01*
X199494046Y-93177232D01*
X199692066Y-93237300D01*
X199898000Y-93257583D01*
X200103934Y-93237300D01*
X200301954Y-93177232D01*
X200484450Y-93079685D01*
X200644410Y-92948410D01*
X200775685Y-92788450D01*
X200873232Y-92605954D01*
X200933300Y-92407934D01*
X200953583Y-92202000D01*
X200933300Y-91996066D01*
X200873232Y-91798046D01*
X200775685Y-91615550D01*
X200644410Y-91455590D01*
X200484450Y-91324315D01*
X200301954Y-91226768D01*
X200103934Y-91166700D01*
X199898000Y-91146417D01*
X199692065Y-91166700D01*
X199692064Y-91166700D01*
X199494043Y-91226769D01*
X199311548Y-91324316D01*
X199151590Y-91455590D01*
X199020316Y-91615548D01*
X198922769Y-91798043D01*
X198862700Y-91996064D01*
X198862700Y-91996065D01*
X198842417Y-92201999D01*
X142486500Y-92201999D01*
X142486500Y-88792252D01*
X198847500Y-88792252D01*
X198847500Y-90531748D01*
X198859133Y-90590231D01*
X198876882Y-90616795D01*
X198903447Y-90656552D01*
X198930012Y-90674301D01*
X198969769Y-90700867D01*
X199028252Y-90712500D01*
X199028255Y-90712500D01*
X200767745Y-90712500D01*
X200767748Y-90712500D01*
X200826231Y-90700867D01*
X200892552Y-90656552D01*
X200936867Y-90590231D01*
X200948500Y-90531748D01*
X200948500Y-88792252D01*
X200936867Y-88733769D01*
X200910301Y-88694012D01*
X200892552Y-88667447D01*
X200852795Y-88640882D01*
X200826231Y-88623133D01*
X200767748Y-88611500D01*
X199028252Y-88611500D01*
X198969769Y-88623133D01*
X198903447Y-88667447D01*
X198859133Y-88733769D01*
X198847500Y-88792252D01*
X142486500Y-88792252D01*
X142486500Y-85089999D01*
X142962417Y-85089999D01*
X142962417Y-85090000D01*
X142982700Y-85295934D01*
X142982700Y-85295935D01*
X143008855Y-85382158D01*
X143042768Y-85493954D01*
X143140315Y-85676450D01*
X143271590Y-85836410D01*
X143431550Y-85967685D01*
X143614046Y-86065232D01*
X143812066Y-86125300D01*
X144018000Y-86145583D01*
X144223934Y-86125300D01*
X144287568Y-86105997D01*
X187454353Y-86105997D01*
X187454353Y-86106002D01*
X187474833Y-86248454D01*
X187506935Y-86318746D01*
X187534623Y-86379373D01*
X187534624Y-86379374D01*
X187534625Y-86379376D01*
X187628871Y-86488142D01*
X187628872Y-86488143D01*
X187749947Y-86565953D01*
X187826785Y-86588514D01*
X187888034Y-86606499D01*
X187888037Y-86606499D01*
X187888039Y-86606500D01*
X187888040Y-86606500D01*
X188031960Y-86606500D01*
X188031961Y-86606500D01*
X188031963Y-86606499D01*
X188031965Y-86606499D01*
X188054795Y-86599795D01*
X188170053Y-86565953D01*
X188291128Y-86488143D01*
X188385377Y-86379373D01*
X188445165Y-86248457D01*
X188445165Y-86248455D01*
X188445166Y-86248454D01*
X188465647Y-86106002D01*
X188465647Y-86105997D01*
X188724353Y-86105997D01*
X188724353Y-86106002D01*
X188744833Y-86248454D01*
X188776935Y-86318746D01*
X188804623Y-86379373D01*
X188804624Y-86379374D01*
X188804625Y-86379376D01*
X188898871Y-86488142D01*
X188898872Y-86488143D01*
X189019947Y-86565953D01*
X189096785Y-86588514D01*
X189158034Y-86606499D01*
X189158037Y-86606499D01*
X189158039Y-86606500D01*
X189158040Y-86606500D01*
X189301960Y-86606500D01*
X189301961Y-86606500D01*
X189301963Y-86606499D01*
X189301965Y-86606499D01*
X189324795Y-86599795D01*
X189440053Y-86565953D01*
X189561128Y-86488143D01*
X189655377Y-86379373D01*
X189715165Y-86248457D01*
X189715165Y-86248455D01*
X189715166Y-86248454D01*
X189735647Y-86106002D01*
X189735647Y-86105997D01*
X189715166Y-85963545D01*
X189710751Y-85953879D01*
X189655377Y-85832627D01*
X189561128Y-85723857D01*
X189440053Y-85646047D01*
X189440050Y-85646046D01*
X189301965Y-85605500D01*
X189301961Y-85605500D01*
X189158039Y-85605500D01*
X189158034Y-85605500D01*
X189019949Y-85646046D01*
X188898871Y-85723857D01*
X188804625Y-85832623D01*
X188804624Y-85832625D01*
X188744833Y-85963545D01*
X188724353Y-86105997D01*
X188465647Y-86105997D01*
X188445166Y-85963545D01*
X188440751Y-85953879D01*
X188385377Y-85832627D01*
X188291128Y-85723857D01*
X188170053Y-85646047D01*
X188170050Y-85646046D01*
X188031965Y-85605500D01*
X188031961Y-85605500D01*
X187888039Y-85605500D01*
X187888034Y-85605500D01*
X187749949Y-85646046D01*
X187628871Y-85723857D01*
X187534625Y-85832623D01*
X187534624Y-85832625D01*
X187474833Y-85963545D01*
X187454353Y-86105997D01*
X144287568Y-86105997D01*
X144421954Y-86065232D01*
X144604450Y-85967685D01*
X144764410Y-85836410D01*
X144895685Y-85676450D01*
X144993232Y-85493954D01*
X145053300Y-85295934D01*
X145073583Y-85090000D01*
X145072540Y-85079415D01*
X145071585Y-85069716D01*
X145053300Y-84884066D01*
X144993232Y-84686046D01*
X144895685Y-84503550D01*
X144764410Y-84343590D01*
X144604450Y-84212315D01*
X144421954Y-84114768D01*
X144287548Y-84073997D01*
X166118353Y-84073997D01*
X166118353Y-84074002D01*
X166138833Y-84216454D01*
X166170935Y-84286746D01*
X166198623Y-84347373D01*
X166198624Y-84347374D01*
X166198625Y-84347376D01*
X166292871Y-84456142D01*
X166292872Y-84456143D01*
X166413947Y-84533953D01*
X166490785Y-84556514D01*
X166552034Y-84574499D01*
X166552037Y-84574499D01*
X166552039Y-84574500D01*
X166552040Y-84574500D01*
X166695960Y-84574500D01*
X166695961Y-84574500D01*
X166695963Y-84574499D01*
X166695965Y-84574499D01*
X166718795Y-84567795D01*
X166834053Y-84533953D01*
X166955128Y-84456143D01*
X167049377Y-84347373D01*
X167109165Y-84216457D01*
X167109165Y-84216455D01*
X167109166Y-84216454D01*
X167129647Y-84074002D01*
X167129647Y-84073997D01*
X168404353Y-84073997D01*
X168404353Y-84074002D01*
X168424833Y-84216454D01*
X168456935Y-84286746D01*
X168484623Y-84347373D01*
X168484624Y-84347374D01*
X168484625Y-84347376D01*
X168578871Y-84456142D01*
X168578872Y-84456143D01*
X168699947Y-84533953D01*
X168776785Y-84556514D01*
X168838034Y-84574499D01*
X168838037Y-84574499D01*
X168838039Y-84574500D01*
X168838040Y-84574500D01*
X168981960Y-84574500D01*
X168981961Y-84574500D01*
X168981963Y-84574499D01*
X168981965Y-84574499D01*
X169004795Y-84567795D01*
X169120053Y-84533953D01*
X169241128Y-84456143D01*
X169335377Y-84347373D01*
X169373428Y-84264052D01*
X169400877Y-84238498D01*
X169438356Y-84239837D01*
X169462571Y-84264052D01*
X169500623Y-84347373D01*
X169500624Y-84347374D01*
X169500625Y-84347376D01*
X169594871Y-84456142D01*
X169594872Y-84456143D01*
X169715947Y-84533953D01*
X169792785Y-84556514D01*
X169854034Y-84574499D01*
X169854037Y-84574499D01*
X169854039Y-84574500D01*
X169854040Y-84574500D01*
X169997960Y-84574500D01*
X169997961Y-84574500D01*
X169997963Y-84574499D01*
X169997965Y-84574499D01*
X170020795Y-84567795D01*
X170136053Y-84533953D01*
X170257128Y-84456143D01*
X170351377Y-84347373D01*
X170389428Y-84264052D01*
X170416877Y-84238498D01*
X170454356Y-84239837D01*
X170478571Y-84264052D01*
X170516623Y-84347373D01*
X170516624Y-84347374D01*
X170516625Y-84347376D01*
X170610871Y-84456142D01*
X170610872Y-84456143D01*
X170731947Y-84533953D01*
X170808785Y-84556514D01*
X170870034Y-84574499D01*
X170870037Y-84574499D01*
X170870039Y-84574500D01*
X170870040Y-84574500D01*
X171013960Y-84574500D01*
X171013961Y-84574500D01*
X171013963Y-84574499D01*
X171013965Y-84574499D01*
X171036795Y-84567795D01*
X171152053Y-84533953D01*
X171273128Y-84456143D01*
X171367377Y-84347373D01*
X171405428Y-84264052D01*
X171432877Y-84238498D01*
X171470356Y-84239837D01*
X171494571Y-84264052D01*
X171532623Y-84347373D01*
X171532624Y-84347374D01*
X171532625Y-84347376D01*
X171626871Y-84456142D01*
X171626872Y-84456143D01*
X171747947Y-84533953D01*
X171824785Y-84556514D01*
X171886034Y-84574499D01*
X171886037Y-84574499D01*
X171886039Y-84574500D01*
X171886040Y-84574500D01*
X172029960Y-84574500D01*
X172029961Y-84574500D01*
X172029963Y-84574499D01*
X172029965Y-84574499D01*
X172052795Y-84567795D01*
X172168053Y-84533953D01*
X172289128Y-84456143D01*
X172383377Y-84347373D01*
X172443165Y-84216457D01*
X172443165Y-84216455D01*
X172443166Y-84216454D01*
X172463647Y-84074002D01*
X172463647Y-84073997D01*
X175516353Y-84073997D01*
X175516353Y-84074002D01*
X175536833Y-84216454D01*
X175568935Y-84286746D01*
X175596623Y-84347373D01*
X175596624Y-84347374D01*
X175596625Y-84347376D01*
X175690871Y-84456142D01*
X175690872Y-84456143D01*
X175811947Y-84533953D01*
X175888785Y-84556514D01*
X175950034Y-84574499D01*
X175950037Y-84574499D01*
X175950039Y-84574500D01*
X175950040Y-84574500D01*
X176093960Y-84574500D01*
X176093961Y-84574500D01*
X176093963Y-84574499D01*
X176093965Y-84574499D01*
X176116795Y-84567795D01*
X176232053Y-84533953D01*
X176353128Y-84456143D01*
X176447377Y-84347373D01*
X176507165Y-84216457D01*
X176507165Y-84216455D01*
X176507166Y-84216454D01*
X176527647Y-84074002D01*
X176527647Y-84073997D01*
X176507166Y-83931545D01*
X176470153Y-83850500D01*
X176447377Y-83800627D01*
X176353128Y-83691857D01*
X176232053Y-83614047D01*
X176232050Y-83614046D01*
X176093965Y-83573500D01*
X176093961Y-83573500D01*
X175950039Y-83573500D01*
X175950034Y-83573500D01*
X175811949Y-83614046D01*
X175690871Y-83691857D01*
X175596625Y-83800623D01*
X175596624Y-83800625D01*
X175536833Y-83931545D01*
X175516353Y-84073997D01*
X172463647Y-84073997D01*
X172443166Y-83931545D01*
X172406153Y-83850500D01*
X172383377Y-83800627D01*
X172289128Y-83691857D01*
X172168053Y-83614047D01*
X172168050Y-83614046D01*
X172029965Y-83573500D01*
X172029961Y-83573500D01*
X171886039Y-83573500D01*
X171886034Y-83573500D01*
X171747949Y-83614046D01*
X171626871Y-83691857D01*
X171532625Y-83800623D01*
X171532624Y-83800625D01*
X171494572Y-83883946D01*
X171467123Y-83909501D01*
X171429644Y-83908162D01*
X171405428Y-83883946D01*
X171390153Y-83850500D01*
X171367377Y-83800627D01*
X171273128Y-83691857D01*
X171152053Y-83614047D01*
X171152050Y-83614046D01*
X171013965Y-83573500D01*
X171013961Y-83573500D01*
X170870039Y-83573500D01*
X170870034Y-83573500D01*
X170731949Y-83614046D01*
X170610871Y-83691857D01*
X170516625Y-83800623D01*
X170516624Y-83800625D01*
X170478572Y-83883946D01*
X170451123Y-83909501D01*
X170413644Y-83908162D01*
X170389428Y-83883946D01*
X170374153Y-83850500D01*
X170351377Y-83800627D01*
X170257128Y-83691857D01*
X170136053Y-83614047D01*
X170136050Y-83614046D01*
X169997965Y-83573500D01*
X169997961Y-83573500D01*
X169854039Y-83573500D01*
X169854034Y-83573500D01*
X169715949Y-83614046D01*
X169594871Y-83691857D01*
X169500625Y-83800623D01*
X169500624Y-83800625D01*
X169462572Y-83883946D01*
X169435123Y-83909501D01*
X169397644Y-83908162D01*
X169373428Y-83883946D01*
X169358153Y-83850500D01*
X169335377Y-83800627D01*
X169241128Y-83691857D01*
X169120053Y-83614047D01*
X169120050Y-83614046D01*
X168981965Y-83573500D01*
X168981961Y-83573500D01*
X168838039Y-83573500D01*
X168838034Y-83573500D01*
X168699949Y-83614046D01*
X168578871Y-83691857D01*
X168484625Y-83800623D01*
X168484624Y-83800625D01*
X168424833Y-83931545D01*
X168404353Y-84073997D01*
X167129647Y-84073997D01*
X167109166Y-83931545D01*
X167072153Y-83850500D01*
X167049377Y-83800627D01*
X166955128Y-83691857D01*
X166834053Y-83614047D01*
X166834050Y-83614046D01*
X166695965Y-83573500D01*
X166695961Y-83573500D01*
X166552039Y-83573500D01*
X166552034Y-83573500D01*
X166413949Y-83614046D01*
X166292871Y-83691857D01*
X166198625Y-83800623D01*
X166198624Y-83800625D01*
X166138833Y-83931545D01*
X166118353Y-84073997D01*
X144287548Y-84073997D01*
X144223934Y-84054700D01*
X144018000Y-84034417D01*
X143812065Y-84054700D01*
X143812064Y-84054700D01*
X143614043Y-84114769D01*
X143431548Y-84212316D01*
X143271590Y-84343590D01*
X143140316Y-84503548D01*
X143042769Y-84686043D01*
X142982700Y-84884064D01*
X142982700Y-84884065D01*
X142962417Y-85089999D01*
X142486500Y-85089999D01*
X142486500Y-82549999D01*
X142962417Y-82549999D01*
X142962417Y-82550000D01*
X142982700Y-82755934D01*
X142982700Y-82755935D01*
X142995005Y-82796499D01*
X143042768Y-82953954D01*
X143140315Y-83136450D01*
X143271590Y-83296410D01*
X143431550Y-83427685D01*
X143614046Y-83525232D01*
X143812066Y-83585300D01*
X144018000Y-83605583D01*
X144223934Y-83585300D01*
X144421954Y-83525232D01*
X144604450Y-83427685D01*
X144663116Y-83379539D01*
X196736500Y-83379539D01*
X196736500Y-83522460D01*
X196764378Y-83662611D01*
X196764380Y-83662618D01*
X196764381Y-83662620D01*
X196819071Y-83794653D01*
X196898468Y-83913479D01*
X196999521Y-84014532D01*
X197118347Y-84093929D01*
X197250380Y-84148619D01*
X197250383Y-84148619D01*
X197250388Y-84148621D01*
X197390539Y-84176499D01*
X197390545Y-84176500D01*
X197733455Y-84176500D01*
X197736991Y-84175796D01*
X197873611Y-84148621D01*
X197873613Y-84148620D01*
X197873620Y-84148619D01*
X198005653Y-84093929D01*
X198124479Y-84014532D01*
X198225532Y-83913479D01*
X198304929Y-83794653D01*
X198359619Y-83662620D01*
X198387500Y-83522455D01*
X198387500Y-83379545D01*
X198381938Y-83351583D01*
X198359621Y-83239388D01*
X198359619Y-83239381D01*
X198316984Y-83136450D01*
X198304929Y-83107347D01*
X198225532Y-82988521D01*
X198124479Y-82887468D01*
X198005653Y-82808071D01*
X197977719Y-82796500D01*
X197873618Y-82753380D01*
X197873611Y-82753378D01*
X197733460Y-82725500D01*
X197733455Y-82725500D01*
X197390545Y-82725500D01*
X197390539Y-82725500D01*
X197250388Y-82753378D01*
X197250381Y-82753380D01*
X197118348Y-82808070D01*
X196999521Y-82887467D01*
X196898467Y-82988521D01*
X196819070Y-83107348D01*
X196764380Y-83239381D01*
X196764378Y-83239388D01*
X196736500Y-83379539D01*
X144663116Y-83379539D01*
X144764410Y-83296410D01*
X144895685Y-83136450D01*
X144993232Y-82953954D01*
X145053300Y-82755934D01*
X145073583Y-82550000D01*
X145053300Y-82344066D01*
X145038719Y-82295999D01*
X154900417Y-82295999D01*
X154900417Y-82296000D01*
X154920700Y-82501934D01*
X154920700Y-82501935D01*
X154929054Y-82529474D01*
X154980768Y-82699954D01*
X155078315Y-82882450D01*
X155209590Y-83042410D01*
X155369550Y-83173685D01*
X155552046Y-83271232D01*
X155750066Y-83331300D01*
X155956000Y-83351583D01*
X156161934Y-83331300D01*
X156359954Y-83271232D01*
X156542450Y-83173685D01*
X156702410Y-83042410D01*
X156833685Y-82882450D01*
X156931232Y-82699954D01*
X156991300Y-82501934D01*
X157011583Y-82296000D01*
X157011583Y-82295999D01*
X157440417Y-82295999D01*
X157440417Y-82296000D01*
X157460700Y-82501934D01*
X157460700Y-82501935D01*
X157469054Y-82529474D01*
X157520768Y-82699954D01*
X157618315Y-82882450D01*
X157749590Y-83042410D01*
X157909550Y-83173685D01*
X158092046Y-83271232D01*
X158290066Y-83331300D01*
X158496000Y-83351583D01*
X158701934Y-83331300D01*
X158899954Y-83271232D01*
X159082450Y-83173685D01*
X159242410Y-83042410D01*
X159373685Y-82882450D01*
X159471232Y-82699954D01*
X159531300Y-82501934D01*
X159551583Y-82296000D01*
X159531300Y-82090066D01*
X159516719Y-82041997D01*
X164594353Y-82041997D01*
X164594353Y-82042002D01*
X164614833Y-82184454D01*
X164646935Y-82254746D01*
X164674623Y-82315373D01*
X164674624Y-82315374D01*
X164674625Y-82315376D01*
X164699485Y-82344066D01*
X164768872Y-82424143D01*
X164889947Y-82501953D01*
X164966785Y-82524514D01*
X165028034Y-82542499D01*
X165028037Y-82542499D01*
X165028039Y-82542500D01*
X165028040Y-82542500D01*
X165171960Y-82542500D01*
X165171961Y-82542500D01*
X165171963Y-82542499D01*
X165171965Y-82542499D01*
X165194795Y-82535795D01*
X165310053Y-82501953D01*
X165431128Y-82424143D01*
X165525377Y-82315373D01*
X165534226Y-82295997D01*
X181866353Y-82295997D01*
X181866353Y-82296002D01*
X181886833Y-82438454D01*
X181915824Y-82501934D01*
X181946623Y-82569373D01*
X181946624Y-82569374D01*
X181946625Y-82569376D01*
X182040871Y-82678142D01*
X182040872Y-82678143D01*
X182161947Y-82755953D01*
X182238785Y-82778514D01*
X182300034Y-82796499D01*
X182300037Y-82796499D01*
X182300039Y-82796500D01*
X182300040Y-82796500D01*
X182443960Y-82796500D01*
X182443961Y-82796500D01*
X182443963Y-82796499D01*
X182443965Y-82796499D01*
X182466795Y-82789795D01*
X182582053Y-82755953D01*
X182703128Y-82678143D01*
X182797377Y-82569373D01*
X182857165Y-82438457D01*
X182857165Y-82438455D01*
X182857166Y-82438454D01*
X182877647Y-82296002D01*
X182877647Y-82295997D01*
X182857166Y-82153545D01*
X182852751Y-82143879D01*
X182800275Y-82028972D01*
X192119378Y-82028972D01*
X192119378Y-82028977D01*
X192139858Y-82171429D01*
X192145807Y-82184454D01*
X192199648Y-82302348D01*
X192199649Y-82302349D01*
X192199650Y-82302351D01*
X192293896Y-82411117D01*
X192293897Y-82411118D01*
X192414972Y-82488928D01*
X192459332Y-82501953D01*
X192553059Y-82529474D01*
X192553062Y-82529474D01*
X192553064Y-82529475D01*
X192553065Y-82529475D01*
X192696985Y-82529475D01*
X192696986Y-82529475D01*
X192696988Y-82529474D01*
X192696990Y-82529474D01*
X192719820Y-82522770D01*
X192835078Y-82488928D01*
X192956153Y-82411118D01*
X193050402Y-82302348D01*
X193110190Y-82171432D01*
X193110190Y-82171430D01*
X193110191Y-82171429D01*
X193130672Y-82028977D01*
X193130672Y-82028972D01*
X193110191Y-81886520D01*
X193087140Y-81836046D01*
X193050402Y-81755602D01*
X193010496Y-81709548D01*
X192956153Y-81646832D01*
X192835078Y-81569022D01*
X192835075Y-81569021D01*
X192696990Y-81528475D01*
X192696986Y-81528475D01*
X192553064Y-81528475D01*
X192553059Y-81528475D01*
X192414974Y-81569021D01*
X192414972Y-81569021D01*
X192414972Y-81569022D01*
X192394706Y-81582046D01*
X192293896Y-81646832D01*
X192199650Y-81755598D01*
X192199649Y-81755600D01*
X192139858Y-81886520D01*
X192119378Y-82028972D01*
X182800275Y-82028972D01*
X182797377Y-82022627D01*
X182703128Y-81913857D01*
X182582053Y-81836047D01*
X182582050Y-81836046D01*
X182443965Y-81795500D01*
X182443961Y-81795500D01*
X182300039Y-81795500D01*
X182300034Y-81795500D01*
X182161949Y-81836046D01*
X182040871Y-81913857D01*
X181946625Y-82022623D01*
X181946624Y-82022625D01*
X181886833Y-82153545D01*
X181866353Y-82295997D01*
X165534226Y-82295997D01*
X165585165Y-82184457D01*
X165585165Y-82184455D01*
X165585166Y-82184454D01*
X165605647Y-82042002D01*
X165605647Y-82041997D01*
X165585166Y-81899545D01*
X165580751Y-81889879D01*
X165525377Y-81768627D01*
X165514089Y-81755600D01*
X165431128Y-81659857D01*
X165310053Y-81582047D01*
X165310050Y-81582046D01*
X165171965Y-81541500D01*
X165171961Y-81541500D01*
X165028039Y-81541500D01*
X165028034Y-81541500D01*
X164889949Y-81582046D01*
X164768871Y-81659857D01*
X164674625Y-81768623D01*
X164674624Y-81768625D01*
X164614833Y-81899545D01*
X164594353Y-82041997D01*
X159516719Y-82041997D01*
X159471232Y-81892046D01*
X159373685Y-81709550D01*
X159242410Y-81549590D01*
X159082450Y-81418315D01*
X158899954Y-81320768D01*
X158701934Y-81260700D01*
X158496000Y-81240417D01*
X158290065Y-81260700D01*
X158290064Y-81260700D01*
X158092043Y-81320769D01*
X157909548Y-81418316D01*
X157749590Y-81549590D01*
X157618316Y-81709548D01*
X157520769Y-81892043D01*
X157460700Y-82090064D01*
X157460700Y-82090065D01*
X157440417Y-82295999D01*
X157011583Y-82295999D01*
X156991300Y-82090066D01*
X156931232Y-81892046D01*
X156833685Y-81709550D01*
X156702410Y-81549590D01*
X156542450Y-81418315D01*
X156359954Y-81320768D01*
X156161934Y-81260700D01*
X155956000Y-81240417D01*
X155750065Y-81260700D01*
X155750064Y-81260700D01*
X155552043Y-81320769D01*
X155369548Y-81418316D01*
X155209590Y-81549590D01*
X155078316Y-81709548D01*
X154980769Y-81892043D01*
X154920700Y-82090064D01*
X154920700Y-82090065D01*
X154900417Y-82295999D01*
X145038719Y-82295999D01*
X144993232Y-82146046D01*
X144895685Y-81963550D01*
X144764410Y-81803590D01*
X144604450Y-81672315D01*
X144421954Y-81574768D01*
X144223934Y-81514700D01*
X144018000Y-81494417D01*
X143812065Y-81514700D01*
X143812064Y-81514700D01*
X143614043Y-81574769D01*
X143431548Y-81672316D01*
X143271590Y-81803590D01*
X143140316Y-81963548D01*
X143042769Y-82146043D01*
X142982700Y-82344064D01*
X142982700Y-82344065D01*
X142962417Y-82549999D01*
X142486500Y-82549999D01*
X142486500Y-80010000D01*
X142962417Y-80010000D01*
X142982700Y-80215934D01*
X143042768Y-80413954D01*
X143140315Y-80596450D01*
X143271590Y-80756410D01*
X143431550Y-80887685D01*
X143614046Y-80985232D01*
X143812066Y-81045300D01*
X144018000Y-81065583D01*
X144223934Y-81045300D01*
X144287568Y-81025997D01*
X164086353Y-81025997D01*
X164086353Y-81026002D01*
X164106833Y-81168454D01*
X164138935Y-81238746D01*
X164166623Y-81299373D01*
X164166624Y-81299374D01*
X164166625Y-81299376D01*
X164260871Y-81408142D01*
X164260872Y-81408143D01*
X164381947Y-81485953D01*
X164458785Y-81508514D01*
X164520034Y-81526499D01*
X164520037Y-81526499D01*
X164520039Y-81526500D01*
X164520040Y-81526500D01*
X164663960Y-81526500D01*
X164663961Y-81526500D01*
X164663963Y-81526499D01*
X164663965Y-81526499D01*
X164686795Y-81519795D01*
X164802053Y-81485953D01*
X164923128Y-81408143D01*
X165017377Y-81299373D01*
X165077165Y-81168457D01*
X165077165Y-81168455D01*
X165077166Y-81168454D01*
X165097647Y-81026002D01*
X165097647Y-81025997D01*
X193122353Y-81025997D01*
X193122353Y-81026002D01*
X193142833Y-81168454D01*
X193174935Y-81238746D01*
X193202623Y-81299373D01*
X193202624Y-81299374D01*
X193202625Y-81299376D01*
X193296871Y-81408142D01*
X193296872Y-81408143D01*
X193417947Y-81485953D01*
X193494785Y-81508514D01*
X193556034Y-81526499D01*
X193556037Y-81526499D01*
X193556039Y-81526500D01*
X193556040Y-81526500D01*
X193699960Y-81526500D01*
X193699961Y-81526500D01*
X193699963Y-81526499D01*
X193699965Y-81526499D01*
X193722795Y-81519795D01*
X193838053Y-81485953D01*
X193959128Y-81408143D01*
X194053377Y-81299373D01*
X194113165Y-81168457D01*
X194113165Y-81168455D01*
X194113166Y-81168454D01*
X194133647Y-81026002D01*
X194133647Y-81025997D01*
X194113166Y-80883545D01*
X194108751Y-80873879D01*
X194053377Y-80752627D01*
X194034838Y-80731232D01*
X193959128Y-80643857D01*
X193943297Y-80633683D01*
X193838053Y-80566047D01*
X193838050Y-80566046D01*
X193699965Y-80525500D01*
X193699961Y-80525500D01*
X193556039Y-80525500D01*
X193556034Y-80525500D01*
X193417949Y-80566046D01*
X193296871Y-80643857D01*
X193202625Y-80752623D01*
X193202624Y-80752625D01*
X193142833Y-80883545D01*
X193122353Y-81025997D01*
X165097647Y-81025997D01*
X165077166Y-80883545D01*
X165072751Y-80873879D01*
X165017377Y-80752627D01*
X164998838Y-80731232D01*
X164923128Y-80643857D01*
X164907297Y-80633683D01*
X164802053Y-80566047D01*
X164802050Y-80566046D01*
X164663965Y-80525500D01*
X164663961Y-80525500D01*
X164520039Y-80525500D01*
X164520034Y-80525500D01*
X164381949Y-80566046D01*
X164260871Y-80643857D01*
X164166625Y-80752623D01*
X164166624Y-80752625D01*
X164106833Y-80883545D01*
X164086353Y-81025997D01*
X144287568Y-81025997D01*
X144421954Y-80985232D01*
X144604450Y-80887685D01*
X144764410Y-80756410D01*
X144895685Y-80596450D01*
X144993232Y-80413954D01*
X145053300Y-80215934D01*
X145073583Y-80010000D01*
X145053300Y-79804066D01*
X145038720Y-79756000D01*
X154900417Y-79756000D01*
X154920700Y-79961934D01*
X154980768Y-80159954D01*
X155078315Y-80342450D01*
X155209590Y-80502410D01*
X155369550Y-80633685D01*
X155552046Y-80731232D01*
X155750066Y-80791300D01*
X155956000Y-80811583D01*
X156161934Y-80791300D01*
X156359954Y-80731232D01*
X156542450Y-80633685D01*
X156702410Y-80502410D01*
X156833685Y-80342450D01*
X156931232Y-80159954D01*
X156991300Y-79961934D01*
X157011583Y-79756000D01*
X157440417Y-79756000D01*
X157460700Y-79961934D01*
X157520768Y-80159954D01*
X157618315Y-80342450D01*
X157749590Y-80502410D01*
X157909550Y-80633685D01*
X158092046Y-80731232D01*
X158290066Y-80791300D01*
X158496000Y-80811583D01*
X158701934Y-80791300D01*
X158899954Y-80731232D01*
X159082450Y-80633685D01*
X159242410Y-80502410D01*
X159373685Y-80342450D01*
X159471232Y-80159954D01*
X159531300Y-79961934D01*
X159551583Y-79756000D01*
X159531300Y-79550066D01*
X159471232Y-79352046D01*
X159373685Y-79169550D01*
X159242410Y-79009590D01*
X159223410Y-78993997D01*
X180596353Y-78993997D01*
X180596353Y-78994002D01*
X180616833Y-79136454D01*
X180648935Y-79206746D01*
X180676623Y-79267373D01*
X180676624Y-79267374D01*
X180676625Y-79267376D01*
X180727856Y-79326500D01*
X180770872Y-79376143D01*
X180891947Y-79453953D01*
X180968785Y-79476514D01*
X181030034Y-79494499D01*
X181030037Y-79494499D01*
X181030039Y-79494500D01*
X181030040Y-79494500D01*
X181173960Y-79494500D01*
X181173961Y-79494500D01*
X181173963Y-79494499D01*
X181173965Y-79494499D01*
X181196795Y-79487795D01*
X181312053Y-79453953D01*
X181433128Y-79376143D01*
X181527377Y-79267373D01*
X181587165Y-79136457D01*
X181587165Y-79136455D01*
X181587166Y-79136454D01*
X181607647Y-78994002D01*
X181607647Y-78993997D01*
X184660353Y-78993997D01*
X184660353Y-78994002D01*
X184680833Y-79136454D01*
X184712935Y-79206746D01*
X184740623Y-79267373D01*
X184740624Y-79267374D01*
X184740625Y-79267376D01*
X184791856Y-79326500D01*
X184834872Y-79376143D01*
X184955947Y-79453953D01*
X185032785Y-79476514D01*
X185094034Y-79494499D01*
X185094037Y-79494499D01*
X185094039Y-79494500D01*
X185094040Y-79494500D01*
X185237960Y-79494500D01*
X185237961Y-79494500D01*
X185237963Y-79494499D01*
X185237965Y-79494499D01*
X185260795Y-79487795D01*
X185376053Y-79453953D01*
X185497128Y-79376143D01*
X185591377Y-79267373D01*
X185629428Y-79184052D01*
X185656877Y-79158498D01*
X185694356Y-79159837D01*
X185718571Y-79184052D01*
X185756623Y-79267373D01*
X185756624Y-79267374D01*
X185756625Y-79267376D01*
X185807856Y-79326500D01*
X185850872Y-79376143D01*
X185971947Y-79453953D01*
X186048785Y-79476514D01*
X186110034Y-79494499D01*
X186110037Y-79494499D01*
X186110039Y-79494500D01*
X186110040Y-79494500D01*
X186253960Y-79494500D01*
X186253961Y-79494500D01*
X186253963Y-79494499D01*
X186253965Y-79494499D01*
X186276795Y-79487795D01*
X186392053Y-79453953D01*
X186513128Y-79376143D01*
X186607377Y-79267373D01*
X186667165Y-79136457D01*
X186667165Y-79136455D01*
X186667166Y-79136454D01*
X186687647Y-78994002D01*
X186687647Y-78993997D01*
X186667166Y-78851545D01*
X186634843Y-78780769D01*
X186607377Y-78720627D01*
X186565640Y-78672460D01*
X186513128Y-78611857D01*
X186392053Y-78534047D01*
X186392050Y-78534046D01*
X186376701Y-78529539D01*
X196736500Y-78529539D01*
X196736500Y-78672460D01*
X196764378Y-78812611D01*
X196764380Y-78812618D01*
X196819070Y-78944651D01*
X196879284Y-79034769D01*
X196898468Y-79063479D01*
X196999521Y-79164532D01*
X197118347Y-79243929D01*
X197250380Y-79298619D01*
X197250383Y-79298619D01*
X197250388Y-79298621D01*
X197390539Y-79326499D01*
X197390545Y-79326500D01*
X197733455Y-79326500D01*
X197736991Y-79325796D01*
X197873611Y-79298621D01*
X197873613Y-79298620D01*
X197873620Y-79298619D01*
X198005653Y-79243929D01*
X198124479Y-79164532D01*
X198225532Y-79063479D01*
X198304929Y-78944653D01*
X198359619Y-78812620D01*
X198361345Y-78803946D01*
X198387499Y-78672460D01*
X198387500Y-78672455D01*
X198387500Y-78529545D01*
X198387499Y-78529539D01*
X198359621Y-78389388D01*
X198359619Y-78389381D01*
X198310826Y-78271583D01*
X198304929Y-78257347D01*
X198225532Y-78138521D01*
X198124479Y-78037468D01*
X198119215Y-78033951D01*
X198065467Y-77998038D01*
X198005653Y-77958071D01*
X197936472Y-77929415D01*
X197873618Y-77903380D01*
X197873611Y-77903378D01*
X197733460Y-77875500D01*
X197733455Y-77875500D01*
X197390545Y-77875500D01*
X197390539Y-77875500D01*
X197250388Y-77903378D01*
X197250381Y-77903380D01*
X197118348Y-77958070D01*
X196999521Y-78037467D01*
X196898467Y-78138521D01*
X196819070Y-78257348D01*
X196764380Y-78389381D01*
X196764378Y-78389388D01*
X196736500Y-78529539D01*
X186376701Y-78529539D01*
X186253965Y-78493500D01*
X186253961Y-78493500D01*
X186110039Y-78493500D01*
X186110034Y-78493500D01*
X185971949Y-78534046D01*
X185850871Y-78611857D01*
X185756625Y-78720623D01*
X185756624Y-78720625D01*
X185718572Y-78803946D01*
X185691123Y-78829501D01*
X185653644Y-78828162D01*
X185629428Y-78803946D01*
X185618843Y-78780768D01*
X185591377Y-78720627D01*
X185549640Y-78672460D01*
X185497128Y-78611857D01*
X185376053Y-78534047D01*
X185376050Y-78534046D01*
X185237965Y-78493500D01*
X185237961Y-78493500D01*
X185094039Y-78493500D01*
X185094034Y-78493500D01*
X184955949Y-78534046D01*
X184834871Y-78611857D01*
X184740625Y-78720623D01*
X184740624Y-78720625D01*
X184680833Y-78851545D01*
X184660353Y-78993997D01*
X181607647Y-78993997D01*
X181587166Y-78851545D01*
X181554843Y-78780769D01*
X181527377Y-78720627D01*
X181485640Y-78672460D01*
X181433128Y-78611857D01*
X181312053Y-78534047D01*
X181312050Y-78534046D01*
X181173965Y-78493500D01*
X181173961Y-78493500D01*
X181030039Y-78493500D01*
X181030034Y-78493500D01*
X180891949Y-78534046D01*
X180770871Y-78611857D01*
X180676625Y-78720623D01*
X180676624Y-78720625D01*
X180616833Y-78851545D01*
X180596353Y-78993997D01*
X159223410Y-78993997D01*
X159082450Y-78878315D01*
X158899954Y-78780768D01*
X158701934Y-78720700D01*
X158496000Y-78700417D01*
X158290065Y-78720700D01*
X158290064Y-78720700D01*
X158092043Y-78780769D01*
X157909548Y-78878316D01*
X157749590Y-79009590D01*
X157618316Y-79169548D01*
X157520769Y-79352043D01*
X157460700Y-79550064D01*
X157460700Y-79550065D01*
X157460700Y-79550066D01*
X157440417Y-79756000D01*
X157011583Y-79756000D01*
X156991300Y-79550066D01*
X156931232Y-79352046D01*
X156833685Y-79169550D01*
X156702410Y-79009590D01*
X156542450Y-78878315D01*
X156359954Y-78780768D01*
X156161934Y-78720700D01*
X155956000Y-78700417D01*
X155750065Y-78720700D01*
X155750064Y-78720700D01*
X155552043Y-78780769D01*
X155369548Y-78878316D01*
X155209590Y-79009590D01*
X155078316Y-79169548D01*
X154980769Y-79352043D01*
X154920700Y-79550064D01*
X154920700Y-79550065D01*
X154920700Y-79550066D01*
X154900417Y-79756000D01*
X145038720Y-79756000D01*
X144993232Y-79606046D01*
X144895685Y-79423550D01*
X144764410Y-79263590D01*
X144604450Y-79132315D01*
X144421954Y-79034768D01*
X144223934Y-78974700D01*
X144018000Y-78954417D01*
X143812065Y-78974700D01*
X143812064Y-78974700D01*
X143614043Y-79034769D01*
X143431548Y-79132316D01*
X143271590Y-79263590D01*
X143140316Y-79423548D01*
X143042769Y-79606043D01*
X142982700Y-79804064D01*
X142982700Y-79804065D01*
X142982700Y-79804066D01*
X142962417Y-80010000D01*
X142486500Y-80010000D01*
X142486500Y-77470000D01*
X142962417Y-77470000D01*
X142982700Y-77675934D01*
X143042768Y-77873954D01*
X143140315Y-78056450D01*
X143271590Y-78216410D01*
X143431550Y-78347685D01*
X143614046Y-78445232D01*
X143812066Y-78505300D01*
X144018000Y-78525583D01*
X144223934Y-78505300D01*
X144421954Y-78445232D01*
X144604450Y-78347685D01*
X144764410Y-78216410D01*
X144895685Y-78056450D01*
X144993232Y-77873954D01*
X145053300Y-77675934D01*
X145073583Y-77470000D01*
X145053300Y-77264066D01*
X145038720Y-77216000D01*
X154900417Y-77216000D01*
X154920700Y-77421934D01*
X154980768Y-77619954D01*
X155078315Y-77802450D01*
X155209590Y-77962410D01*
X155369550Y-78093685D01*
X155552046Y-78191232D01*
X155750066Y-78251300D01*
X155956000Y-78271583D01*
X156161934Y-78251300D01*
X156359954Y-78191232D01*
X156542450Y-78093685D01*
X156702410Y-77962410D01*
X156833685Y-77802450D01*
X156931232Y-77619954D01*
X156991300Y-77421934D01*
X157011583Y-77216000D01*
X157440417Y-77216000D01*
X157460700Y-77421934D01*
X157520768Y-77619954D01*
X157618315Y-77802450D01*
X157749590Y-77962410D01*
X157909550Y-78093685D01*
X158092046Y-78191232D01*
X158290066Y-78251300D01*
X158496000Y-78271583D01*
X158701934Y-78251300D01*
X158899954Y-78191232D01*
X159082450Y-78093685D01*
X159242410Y-77962410D01*
X159373685Y-77802450D01*
X159471232Y-77619954D01*
X159531300Y-77421934D01*
X159551583Y-77216000D01*
X159531300Y-77010066D01*
X159471232Y-76812046D01*
X159373685Y-76629550D01*
X159242410Y-76469590D01*
X159082450Y-76338315D01*
X158899954Y-76240768D01*
X158701934Y-76180700D01*
X158496000Y-76160417D01*
X158290065Y-76180700D01*
X158290064Y-76180700D01*
X158092043Y-76240769D01*
X157909548Y-76338316D01*
X157749590Y-76469590D01*
X157618316Y-76629548D01*
X157520769Y-76812043D01*
X157460700Y-77010064D01*
X157460700Y-77010065D01*
X157452285Y-77095508D01*
X157440417Y-77216000D01*
X157011583Y-77216000D01*
X156991300Y-77010066D01*
X156931232Y-76812046D01*
X156833685Y-76629550D01*
X156702410Y-76469590D01*
X156542450Y-76338315D01*
X156359954Y-76240768D01*
X156161934Y-76180700D01*
X155956000Y-76160417D01*
X155750065Y-76180700D01*
X155750064Y-76180700D01*
X155552043Y-76240769D01*
X155369548Y-76338316D01*
X155209590Y-76469590D01*
X155078316Y-76629548D01*
X154980769Y-76812043D01*
X154920700Y-77010064D01*
X154920700Y-77010065D01*
X154912285Y-77095508D01*
X154900417Y-77216000D01*
X145038720Y-77216000D01*
X144993232Y-77066046D01*
X144895685Y-76883550D01*
X144764410Y-76723590D01*
X144604450Y-76592315D01*
X144421954Y-76494768D01*
X144223934Y-76434700D01*
X144018000Y-76414417D01*
X143812065Y-76434700D01*
X143812064Y-76434700D01*
X143614043Y-76494769D01*
X143431548Y-76592316D01*
X143271590Y-76723590D01*
X143140316Y-76883548D01*
X143042769Y-77066043D01*
X142982700Y-77264064D01*
X142982700Y-77264065D01*
X142982700Y-77264066D01*
X142962417Y-77470000D01*
X142486500Y-77470000D01*
X142486500Y-74929999D01*
X142962417Y-74929999D01*
X142962417Y-74930000D01*
X142982700Y-75135934D01*
X142982700Y-75135935D01*
X142991403Y-75164625D01*
X143042768Y-75333954D01*
X143140315Y-75516450D01*
X143271590Y-75676410D01*
X143431550Y-75807685D01*
X143614046Y-75905232D01*
X143812066Y-75965300D01*
X144018000Y-75985583D01*
X144223934Y-75965300D01*
X144353500Y-75925997D01*
X146560353Y-75925997D01*
X146560353Y-75926002D01*
X146580833Y-76068454D01*
X146612935Y-76138746D01*
X146640623Y-76199373D01*
X146640624Y-76199374D01*
X146640625Y-76199376D01*
X146734871Y-76308142D01*
X146734872Y-76308143D01*
X146855947Y-76385953D01*
X146932785Y-76408514D01*
X146994034Y-76426499D01*
X146994037Y-76426499D01*
X146994039Y-76426500D01*
X146994040Y-76426500D01*
X147137960Y-76426500D01*
X147137961Y-76426500D01*
X147137963Y-76426499D01*
X147137965Y-76426499D01*
X147179112Y-76414417D01*
X147276053Y-76385953D01*
X147397128Y-76308143D01*
X147491377Y-76199373D01*
X147551165Y-76068457D01*
X147551165Y-76068455D01*
X147551166Y-76068454D01*
X147571647Y-75926002D01*
X147571647Y-75925997D01*
X147551166Y-75783545D01*
X147518206Y-75711374D01*
X147491377Y-75652627D01*
X147490168Y-75651232D01*
X147397128Y-75543857D01*
X147354483Y-75516451D01*
X147276053Y-75466047D01*
X147276050Y-75466046D01*
X147137965Y-75425500D01*
X147137961Y-75425500D01*
X146994039Y-75425500D01*
X146994034Y-75425500D01*
X146855949Y-75466046D01*
X146734871Y-75543857D01*
X146640625Y-75652623D01*
X146640624Y-75652625D01*
X146580833Y-75783545D01*
X146560353Y-75925997D01*
X144353500Y-75925997D01*
X144421954Y-75905232D01*
X144604450Y-75807685D01*
X144764410Y-75676410D01*
X144895685Y-75516450D01*
X144993232Y-75333954D01*
X145053300Y-75135934D01*
X145073583Y-74930000D01*
X145053300Y-74724066D01*
X145038719Y-74675999D01*
X154900417Y-74675999D01*
X154900417Y-74676000D01*
X154920700Y-74881934D01*
X154920700Y-74881935D01*
X154946855Y-74968158D01*
X154980768Y-75079954D01*
X155078315Y-75262450D01*
X155209590Y-75422410D01*
X155369550Y-75553685D01*
X155552046Y-75651232D01*
X155750066Y-75711300D01*
X155956000Y-75731583D01*
X156161934Y-75711300D01*
X156359954Y-75651232D01*
X156542450Y-75553685D01*
X156702410Y-75422410D01*
X156833685Y-75262450D01*
X156931232Y-75079954D01*
X156991300Y-74881934D01*
X157011583Y-74676000D01*
X156991300Y-74470066D01*
X156931232Y-74272046D01*
X156833685Y-74089550D01*
X156702410Y-73929590D01*
X156546173Y-73801370D01*
X157396000Y-73801370D01*
X157396000Y-74551000D01*
X158011856Y-74551000D01*
X157996000Y-74610174D01*
X157996000Y-74741826D01*
X158011856Y-74801000D01*
X157396000Y-74801000D01*
X157396000Y-75550629D01*
X157410503Y-75623542D01*
X157465759Y-75706240D01*
X157548457Y-75761496D01*
X157621370Y-75775999D01*
X157621376Y-75776000D01*
X158371000Y-75776000D01*
X158371000Y-75160144D01*
X158430174Y-75176000D01*
X158561826Y-75176000D01*
X158621000Y-75160144D01*
X158621000Y-75776000D01*
X159370624Y-75776000D01*
X159370629Y-75775999D01*
X159443542Y-75761496D01*
X159526240Y-75706240D01*
X159581496Y-75623542D01*
X159595999Y-75550629D01*
X159596000Y-75550624D01*
X159596000Y-75437997D01*
X162308353Y-75437997D01*
X162308353Y-75438002D01*
X162328833Y-75580454D01*
X162348511Y-75623542D01*
X162388623Y-75711373D01*
X162388624Y-75711374D01*
X162388625Y-75711376D01*
X162432054Y-75761496D01*
X162482872Y-75820143D01*
X162603947Y-75897953D01*
X162680785Y-75920514D01*
X162742034Y-75938499D01*
X162742037Y-75938499D01*
X162742039Y-75938500D01*
X162742040Y-75938500D01*
X162885960Y-75938500D01*
X162885961Y-75938500D01*
X162885963Y-75938499D01*
X162885965Y-75938499D01*
X162908795Y-75931795D01*
X163024053Y-75897953D01*
X163145128Y-75820143D01*
X163239377Y-75711373D01*
X163299165Y-75580457D01*
X163299165Y-75580455D01*
X163299166Y-75580454D01*
X163319647Y-75438002D01*
X163319647Y-75437997D01*
X163832353Y-75437997D01*
X163832353Y-75438002D01*
X163852833Y-75580454D01*
X163872511Y-75623542D01*
X163912623Y-75711373D01*
X163912624Y-75711374D01*
X163912625Y-75711376D01*
X163956054Y-75761496D01*
X164006872Y-75820143D01*
X164127947Y-75897953D01*
X164204785Y-75920514D01*
X164266034Y-75938499D01*
X164266037Y-75938499D01*
X164266039Y-75938500D01*
X164266040Y-75938500D01*
X164409960Y-75938500D01*
X164409961Y-75938500D01*
X164409963Y-75938499D01*
X164409965Y-75938499D01*
X164432795Y-75931795D01*
X164548053Y-75897953D01*
X164669128Y-75820143D01*
X164763377Y-75711373D01*
X164823165Y-75580457D01*
X164823165Y-75580455D01*
X164823166Y-75580454D01*
X164843647Y-75438002D01*
X164843647Y-75437997D01*
X164823166Y-75295545D01*
X164808052Y-75262450D01*
X164763377Y-75164627D01*
X164738515Y-75135935D01*
X164669128Y-75055857D01*
X164548053Y-74978047D01*
X164548050Y-74978046D01*
X164409965Y-74937500D01*
X164409961Y-74937500D01*
X164266039Y-74937500D01*
X164266034Y-74937500D01*
X164127949Y-74978046D01*
X164006871Y-75055857D01*
X163912625Y-75164623D01*
X163912624Y-75164625D01*
X163852833Y-75295545D01*
X163832353Y-75437997D01*
X163319647Y-75437997D01*
X163299166Y-75295545D01*
X163284052Y-75262450D01*
X163239377Y-75164627D01*
X163214515Y-75135935D01*
X163145128Y-75055857D01*
X163024053Y-74978047D01*
X163024050Y-74978046D01*
X162885965Y-74937500D01*
X162885961Y-74937500D01*
X162742039Y-74937500D01*
X162742034Y-74937500D01*
X162603949Y-74978046D01*
X162482871Y-75055857D01*
X162388625Y-75164623D01*
X162388624Y-75164625D01*
X162328833Y-75295545D01*
X162308353Y-75437997D01*
X159596000Y-75437997D01*
X159596000Y-74801000D01*
X158980144Y-74801000D01*
X158996000Y-74741826D01*
X158996000Y-74610174D01*
X158980144Y-74551000D01*
X159596000Y-74551000D01*
X159596000Y-73801376D01*
X159595999Y-73801370D01*
X159581496Y-73728457D01*
X159526240Y-73645759D01*
X159454758Y-73597997D01*
X180596353Y-73597997D01*
X180596353Y-73598002D01*
X180616833Y-73740454D01*
X180643258Y-73798315D01*
X180676623Y-73871373D01*
X180676624Y-73871374D01*
X180676625Y-73871376D01*
X180748885Y-73954769D01*
X180770872Y-73980143D01*
X180891947Y-74057953D01*
X180968785Y-74080514D01*
X181030034Y-74098499D01*
X181030037Y-74098499D01*
X181030039Y-74098500D01*
X181030040Y-74098500D01*
X181173960Y-74098500D01*
X181173961Y-74098500D01*
X181173963Y-74098499D01*
X181173965Y-74098499D01*
X181204449Y-74089548D01*
X181312053Y-74057953D01*
X181433128Y-73980143D01*
X181527377Y-73871373D01*
X181587165Y-73740457D01*
X181587165Y-73740455D01*
X181587166Y-73740454D01*
X181607647Y-73598002D01*
X181607647Y-73597997D01*
X181587166Y-73455545D01*
X181573353Y-73425299D01*
X181527377Y-73324627D01*
X181433128Y-73215857D01*
X181312053Y-73138047D01*
X181306478Y-73136410D01*
X181173965Y-73097500D01*
X181173961Y-73097500D01*
X181030039Y-73097500D01*
X181030034Y-73097500D01*
X180891949Y-73138046D01*
X180770871Y-73215857D01*
X180676625Y-73324623D01*
X180676624Y-73324625D01*
X180616833Y-73455545D01*
X180596353Y-73597997D01*
X159454758Y-73597997D01*
X159443542Y-73590503D01*
X159370629Y-73576000D01*
X158621000Y-73576000D01*
X158621000Y-74191855D01*
X158561826Y-74176000D01*
X158430174Y-74176000D01*
X158371000Y-74191855D01*
X158371000Y-73576000D01*
X157621370Y-73576000D01*
X157548457Y-73590503D01*
X157465759Y-73645759D01*
X157410503Y-73728457D01*
X157396000Y-73801370D01*
X156546173Y-73801370D01*
X156542450Y-73798315D01*
X156359954Y-73700768D01*
X156161934Y-73640700D01*
X155956000Y-73620417D01*
X155750065Y-73640700D01*
X155750064Y-73640700D01*
X155552043Y-73700769D01*
X155369548Y-73798316D01*
X155209590Y-73929590D01*
X155078316Y-74089548D01*
X154980769Y-74272043D01*
X154920700Y-74470064D01*
X154920700Y-74470065D01*
X154900417Y-74675999D01*
X145038719Y-74675999D01*
X144993232Y-74526046D01*
X144895685Y-74343550D01*
X144764410Y-74183590D01*
X144604450Y-74052315D01*
X144421954Y-73954768D01*
X144223934Y-73894700D01*
X144018000Y-73874417D01*
X143812065Y-73894700D01*
X143812064Y-73894700D01*
X143614043Y-73954769D01*
X143431548Y-74052316D01*
X143271590Y-74183590D01*
X143140316Y-74343548D01*
X143042769Y-74526043D01*
X142982700Y-74724064D01*
X142982700Y-74724065D01*
X142962417Y-74929999D01*
X142486500Y-74929999D01*
X142486500Y-72389999D01*
X142962417Y-72389999D01*
X142962417Y-72390000D01*
X142982700Y-72595934D01*
X142982700Y-72595935D01*
X143008855Y-72682158D01*
X143042768Y-72793954D01*
X143140315Y-72976450D01*
X143271590Y-73136410D01*
X143431550Y-73267685D01*
X143614046Y-73365232D01*
X143812066Y-73425300D01*
X144018000Y-73445583D01*
X144223934Y-73425300D01*
X144421954Y-73365232D01*
X144604450Y-73267685D01*
X144764410Y-73136410D01*
X144895685Y-72976450D01*
X144993232Y-72793954D01*
X145053300Y-72595934D01*
X145070628Y-72420000D01*
X198867417Y-72420000D01*
X198887700Y-72625934D01*
X198947768Y-72823954D01*
X199045315Y-73006450D01*
X199176590Y-73166410D01*
X199336550Y-73297685D01*
X199519046Y-73395232D01*
X199717066Y-73455300D01*
X199923000Y-73475583D01*
X200128934Y-73455300D01*
X200326954Y-73395232D01*
X200509450Y-73297685D01*
X200669410Y-73166410D01*
X200800685Y-73006450D01*
X200898232Y-72823954D01*
X200958300Y-72625934D01*
X200978583Y-72420000D01*
X200958300Y-72214066D01*
X200898232Y-72016046D01*
X200800685Y-71833550D01*
X200669410Y-71673590D01*
X200509450Y-71542315D01*
X200326954Y-71444768D01*
X200128934Y-71384700D01*
X199923000Y-71364417D01*
X199717065Y-71384700D01*
X199717064Y-71384700D01*
X199519043Y-71444769D01*
X199336548Y-71542316D01*
X199176590Y-71673590D01*
X199045316Y-71833548D01*
X198947769Y-72016043D01*
X198887700Y-72214064D01*
X198887700Y-72214065D01*
X198887700Y-72214066D01*
X198867417Y-72420000D01*
X145070628Y-72420000D01*
X145073583Y-72390000D01*
X145053300Y-72184066D01*
X144993232Y-71986046D01*
X144895685Y-71803550D01*
X144764410Y-71643590D01*
X144604450Y-71512315D01*
X144421954Y-71414768D01*
X144223934Y-71354700D01*
X144018000Y-71334417D01*
X143812065Y-71354700D01*
X143812064Y-71354700D01*
X143614043Y-71414769D01*
X143431548Y-71512316D01*
X143271590Y-71643590D01*
X143140316Y-71803548D01*
X143042769Y-71986043D01*
X142982700Y-72184064D01*
X142982700Y-72184065D01*
X142962417Y-72389999D01*
X142486500Y-72389999D01*
X142486500Y-69849999D01*
X142962417Y-69849999D01*
X142962417Y-69850000D01*
X142982700Y-70055934D01*
X142982700Y-70055935D01*
X143008855Y-70142158D01*
X143042768Y-70253954D01*
X143140315Y-70436450D01*
X143271590Y-70596410D01*
X143431550Y-70727685D01*
X143614046Y-70825232D01*
X143812066Y-70885300D01*
X144018000Y-70905583D01*
X144223934Y-70885300D01*
X144421954Y-70825232D01*
X144604450Y-70727685D01*
X144764410Y-70596410D01*
X144895685Y-70436450D01*
X144993232Y-70253954D01*
X145053300Y-70055934D01*
X145070628Y-69880000D01*
X198867417Y-69880000D01*
X198887700Y-70085934D01*
X198947768Y-70283954D01*
X199045315Y-70466450D01*
X199176590Y-70626410D01*
X199336550Y-70757685D01*
X199519046Y-70855232D01*
X199717066Y-70915300D01*
X199923000Y-70935583D01*
X200128934Y-70915300D01*
X200326954Y-70855232D01*
X200509450Y-70757685D01*
X200669410Y-70626410D01*
X200800685Y-70466450D01*
X200898232Y-70283954D01*
X200958300Y-70085934D01*
X200978583Y-69880000D01*
X200958300Y-69674066D01*
X200898232Y-69476046D01*
X200800685Y-69293550D01*
X200669410Y-69133590D01*
X200509450Y-69002315D01*
X200326954Y-68904768D01*
X200128934Y-68844700D01*
X199923000Y-68824417D01*
X199717065Y-68844700D01*
X199717064Y-68844700D01*
X199519043Y-68904769D01*
X199336548Y-69002316D01*
X199176590Y-69133590D01*
X199045316Y-69293548D01*
X198947769Y-69476043D01*
X198887700Y-69674064D01*
X198887700Y-69674065D01*
X198887700Y-69674066D01*
X198867417Y-69880000D01*
X145070628Y-69880000D01*
X145073583Y-69850000D01*
X145053300Y-69644066D01*
X144993232Y-69446046D01*
X144895685Y-69263550D01*
X144764410Y-69103590D01*
X144604450Y-68972315D01*
X144421954Y-68874768D01*
X144223934Y-68814700D01*
X144018000Y-68794417D01*
X143812065Y-68814700D01*
X143812064Y-68814700D01*
X143614043Y-68874769D01*
X143431548Y-68972316D01*
X143271590Y-69103590D01*
X143140316Y-69263548D01*
X143042769Y-69446043D01*
X142982700Y-69644064D01*
X142982700Y-69644065D01*
X142962417Y-69849999D01*
X142486500Y-69849999D01*
X142486500Y-67309999D01*
X142962417Y-67309999D01*
X142962417Y-67310000D01*
X142982700Y-67515934D01*
X142982700Y-67515935D01*
X143008855Y-67602158D01*
X143042768Y-67713954D01*
X143140315Y-67896450D01*
X143271590Y-68056410D01*
X143431550Y-68187685D01*
X143614046Y-68285232D01*
X143812066Y-68345300D01*
X144018000Y-68365583D01*
X144223934Y-68345300D01*
X144421954Y-68285232D01*
X144604450Y-68187685D01*
X144764410Y-68056410D01*
X144895685Y-67896450D01*
X144993232Y-67713954D01*
X145053300Y-67515934D01*
X145070628Y-67340000D01*
X198867417Y-67340000D01*
X198887700Y-67545934D01*
X198947768Y-67743954D01*
X199045315Y-67926450D01*
X199176590Y-68086410D01*
X199336550Y-68217685D01*
X199519046Y-68315232D01*
X199717066Y-68375300D01*
X199923000Y-68395583D01*
X200128934Y-68375300D01*
X200326954Y-68315232D01*
X200509450Y-68217685D01*
X200669410Y-68086410D01*
X200800685Y-67926450D01*
X200898232Y-67743954D01*
X200958300Y-67545934D01*
X200978583Y-67340000D01*
X200958300Y-67134066D01*
X200898232Y-66936046D01*
X200800685Y-66753550D01*
X200669410Y-66593590D01*
X200509450Y-66462315D01*
X200326954Y-66364768D01*
X200128934Y-66304700D01*
X199923000Y-66284417D01*
X199717065Y-66304700D01*
X199717064Y-66304700D01*
X199519043Y-66364769D01*
X199336548Y-66462316D01*
X199176590Y-66593590D01*
X199045316Y-66753548D01*
X198947769Y-66936043D01*
X198887700Y-67134064D01*
X198887700Y-67134065D01*
X198887700Y-67134066D01*
X198867417Y-67340000D01*
X145070628Y-67340000D01*
X145073583Y-67310000D01*
X145053300Y-67104066D01*
X144993232Y-66906046D01*
X144895685Y-66723550D01*
X144764410Y-66563590D01*
X144604450Y-66432315D01*
X144421954Y-66334768D01*
X144223934Y-66274700D01*
X144018000Y-66254417D01*
X143812065Y-66274700D01*
X143812064Y-66274700D01*
X143614043Y-66334769D01*
X143431548Y-66432316D01*
X143271590Y-66563590D01*
X143140316Y-66723548D01*
X143042769Y-66906043D01*
X142982700Y-67104064D01*
X142982700Y-67104065D01*
X142962417Y-67309999D01*
X142486500Y-67309999D01*
X142486500Y-64769999D01*
X142962417Y-64769999D01*
X142962417Y-64770000D01*
X142982700Y-64975934D01*
X142982700Y-64975935D01*
X142997213Y-65023778D01*
X143042768Y-65173954D01*
X143140315Y-65356450D01*
X143271590Y-65516410D01*
X143431550Y-65647685D01*
X143614046Y-65745232D01*
X143812066Y-65805300D01*
X144018000Y-65825583D01*
X144223934Y-65805300D01*
X144421954Y-65745232D01*
X144604450Y-65647685D01*
X144764410Y-65516410D01*
X144895685Y-65356450D01*
X144993232Y-65173954D01*
X145053300Y-64975934D01*
X145073583Y-64770000D01*
X145053300Y-64564066D01*
X144993232Y-64366046D01*
X144895685Y-64183550D01*
X144764410Y-64023590D01*
X144604450Y-63892315D01*
X144421954Y-63794768D01*
X144223934Y-63734700D01*
X144018000Y-63714417D01*
X143812065Y-63734700D01*
X143812064Y-63734700D01*
X143614043Y-63794769D01*
X143431548Y-63892316D01*
X143271590Y-64023590D01*
X143140316Y-64183548D01*
X143042769Y-64366043D01*
X142982700Y-64564064D01*
X142982700Y-64564065D01*
X142962417Y-64769999D01*
X142486500Y-64769999D01*
X142486500Y-61355370D01*
X142918000Y-61355370D01*
X142918000Y-62105000D01*
X143533856Y-62105000D01*
X143518000Y-62164174D01*
X143518000Y-62295826D01*
X143533856Y-62355000D01*
X142918000Y-62355000D01*
X142918000Y-63104629D01*
X142932503Y-63177542D01*
X142987759Y-63260240D01*
X143070457Y-63315496D01*
X143143370Y-63329999D01*
X143143376Y-63330000D01*
X143893000Y-63330000D01*
X143893000Y-62714144D01*
X143952174Y-62730000D01*
X144083826Y-62730000D01*
X144143000Y-62714144D01*
X144143000Y-63330000D01*
X144892624Y-63330000D01*
X144892629Y-63329999D01*
X144965542Y-63315496D01*
X145048240Y-63260240D01*
X145103496Y-63177542D01*
X145117999Y-63104629D01*
X145118000Y-63104624D01*
X145118000Y-62355000D01*
X144502144Y-62355000D01*
X144518000Y-62295826D01*
X144518000Y-62229999D01*
X148296417Y-62229999D01*
X148296417Y-62230000D01*
X148316700Y-62435934D01*
X148316700Y-62435935D01*
X148331280Y-62484000D01*
X148376768Y-62633954D01*
X148474315Y-62816450D01*
X148605590Y-62976410D01*
X148765550Y-63107685D01*
X148948046Y-63205232D01*
X149146066Y-63265300D01*
X149352000Y-63285583D01*
X149557934Y-63265300D01*
X149755954Y-63205232D01*
X149938450Y-63107685D01*
X150098410Y-62976410D01*
X150229685Y-62816450D01*
X150327232Y-62633954D01*
X150387300Y-62435934D01*
X150407583Y-62230000D01*
X150407583Y-62229999D01*
X150836417Y-62229999D01*
X150836417Y-62230000D01*
X150856700Y-62435934D01*
X150856700Y-62435935D01*
X150871280Y-62484000D01*
X150916768Y-62633954D01*
X151014315Y-62816450D01*
X151145590Y-62976410D01*
X151305550Y-63107685D01*
X151488046Y-63205232D01*
X151686066Y-63265300D01*
X151892000Y-63285583D01*
X152097934Y-63265300D01*
X152295954Y-63205232D01*
X152478450Y-63107685D01*
X152638410Y-62976410D01*
X152769685Y-62816450D01*
X152867232Y-62633954D01*
X152927300Y-62435934D01*
X152947583Y-62230000D01*
X152947583Y-62229999D01*
X153376417Y-62229999D01*
X153376417Y-62230000D01*
X153396700Y-62435934D01*
X153396700Y-62435935D01*
X153411280Y-62484000D01*
X153456768Y-62633954D01*
X153554315Y-62816450D01*
X153685590Y-62976410D01*
X153845550Y-63107685D01*
X154028046Y-63205232D01*
X154226066Y-63265300D01*
X154432000Y-63285583D01*
X154637934Y-63265300D01*
X154835954Y-63205232D01*
X155018450Y-63107685D01*
X155178410Y-62976410D01*
X155309685Y-62816450D01*
X155407232Y-62633954D01*
X155467300Y-62435934D01*
X155487583Y-62230000D01*
X155487583Y-62229999D01*
X155916417Y-62229999D01*
X155916417Y-62230000D01*
X155936700Y-62435934D01*
X155936700Y-62435935D01*
X155951280Y-62484000D01*
X155996768Y-62633954D01*
X156094315Y-62816450D01*
X156225590Y-62976410D01*
X156385550Y-63107685D01*
X156568046Y-63205232D01*
X156766066Y-63265300D01*
X156972000Y-63285583D01*
X157177934Y-63265300D01*
X157375954Y-63205232D01*
X157558450Y-63107685D01*
X157718410Y-62976410D01*
X157849685Y-62816450D01*
X157947232Y-62633954D01*
X158007300Y-62435934D01*
X158027583Y-62230000D01*
X158027583Y-62229999D01*
X158456417Y-62229999D01*
X158456417Y-62230000D01*
X158476700Y-62435934D01*
X158476700Y-62435935D01*
X158491280Y-62484000D01*
X158536768Y-62633954D01*
X158634315Y-62816450D01*
X158765590Y-62976410D01*
X158925550Y-63107685D01*
X159108046Y-63205232D01*
X159306066Y-63265300D01*
X159512000Y-63285583D01*
X159717934Y-63265300D01*
X159915954Y-63205232D01*
X160098450Y-63107685D01*
X160258410Y-62976410D01*
X160389685Y-62816450D01*
X160487232Y-62633954D01*
X160547300Y-62435934D01*
X160567583Y-62230000D01*
X160547300Y-62024066D01*
X160487232Y-61826046D01*
X160389685Y-61643550D01*
X160258410Y-61483590D01*
X160108121Y-61360252D01*
X161001500Y-61360252D01*
X161001500Y-63099748D01*
X161013133Y-63158231D01*
X161027833Y-63180230D01*
X161057447Y-63224552D01*
X161081015Y-63240299D01*
X161123769Y-63268867D01*
X161182252Y-63280500D01*
X161182255Y-63280500D01*
X162921745Y-63280500D01*
X162921748Y-63280500D01*
X162980231Y-63268867D01*
X163046552Y-63224552D01*
X163090867Y-63158231D01*
X163102500Y-63099748D01*
X163102500Y-62483997D01*
X163832353Y-62483997D01*
X163832353Y-62484002D01*
X163852833Y-62626454D01*
X163884560Y-62695925D01*
X163912623Y-62757373D01*
X163912624Y-62757374D01*
X163912625Y-62757376D01*
X163963813Y-62816450D01*
X164006872Y-62866143D01*
X164127947Y-62943953D01*
X164204785Y-62966514D01*
X164266034Y-62984499D01*
X164266037Y-62984499D01*
X164266039Y-62984500D01*
X164266040Y-62984500D01*
X164409960Y-62984500D01*
X164409961Y-62984500D01*
X164409963Y-62984499D01*
X164409965Y-62984499D01*
X164437517Y-62976409D01*
X164548053Y-62943953D01*
X164669128Y-62866143D01*
X164763377Y-62757373D01*
X164823165Y-62626457D01*
X164823165Y-62626455D01*
X164823166Y-62626454D01*
X164843647Y-62484002D01*
X164843647Y-62483997D01*
X164823166Y-62341545D01*
X164815438Y-62324623D01*
X164763377Y-62210627D01*
X164758501Y-62205000D01*
X164669128Y-62101857D01*
X164635667Y-62080353D01*
X164548053Y-62024047D01*
X164548050Y-62024046D01*
X164492497Y-62007734D01*
X164463296Y-61984202D01*
X164459287Y-61946914D01*
X164482819Y-61917713D01*
X164492497Y-61913704D01*
X164591318Y-61884688D01*
X164712393Y-61806878D01*
X164806642Y-61698108D01*
X164866430Y-61567192D01*
X164866430Y-61567190D01*
X164866431Y-61567189D01*
X164886912Y-61424737D01*
X164886912Y-61424732D01*
X164866431Y-61282280D01*
X164845043Y-61235448D01*
X164806642Y-61151362D01*
X164779380Y-61119900D01*
X164712393Y-61042592D01*
X164591318Y-60964782D01*
X164591315Y-60964781D01*
X164453230Y-60924235D01*
X164453226Y-60924235D01*
X164309304Y-60924235D01*
X164309299Y-60924235D01*
X164171214Y-60964781D01*
X164050136Y-61042592D01*
X163955890Y-61151358D01*
X163955889Y-61151360D01*
X163896098Y-61282280D01*
X163875618Y-61424732D01*
X163875618Y-61424737D01*
X163896098Y-61567189D01*
X163920400Y-61620402D01*
X163955888Y-61698108D01*
X163955889Y-61698109D01*
X163955890Y-61698111D01*
X164050136Y-61806877D01*
X164050137Y-61806878D01*
X164085962Y-61829901D01*
X164171214Y-61884689D01*
X164226766Y-61901000D01*
X164255968Y-61924531D01*
X164259977Y-61961819D01*
X164236446Y-61991021D01*
X164226767Y-61995030D01*
X164127949Y-62024046D01*
X164127947Y-62024046D01*
X164127947Y-62024047D01*
X164107781Y-62037007D01*
X164006871Y-62101857D01*
X163912625Y-62210623D01*
X163912624Y-62210625D01*
X163852833Y-62341545D01*
X163832353Y-62483997D01*
X163102500Y-62483997D01*
X163102500Y-61360252D01*
X163090867Y-61301769D01*
X163059462Y-61254769D01*
X163046552Y-61235447D01*
X163006795Y-61208882D01*
X162980231Y-61191133D01*
X162921748Y-61179500D01*
X161182252Y-61179500D01*
X161123769Y-61191133D01*
X161057447Y-61235447D01*
X161026155Y-61282280D01*
X161013133Y-61301769D01*
X161001500Y-61360252D01*
X160108121Y-61360252D01*
X160098450Y-61352315D01*
X159915954Y-61254768D01*
X159717934Y-61194700D01*
X159512000Y-61174417D01*
X159306065Y-61194700D01*
X159306064Y-61194700D01*
X159108043Y-61254769D01*
X158925548Y-61352316D01*
X158765590Y-61483590D01*
X158634316Y-61643548D01*
X158536769Y-61826043D01*
X158476700Y-62024064D01*
X158476700Y-62024065D01*
X158456417Y-62229999D01*
X158027583Y-62229999D01*
X158007300Y-62024066D01*
X157947232Y-61826046D01*
X157849685Y-61643550D01*
X157718410Y-61483590D01*
X157558450Y-61352315D01*
X157375954Y-61254768D01*
X157177934Y-61194700D01*
X156972000Y-61174417D01*
X156766065Y-61194700D01*
X156766064Y-61194700D01*
X156568043Y-61254769D01*
X156385548Y-61352316D01*
X156225590Y-61483590D01*
X156094316Y-61643548D01*
X155996769Y-61826043D01*
X155936700Y-62024064D01*
X155936700Y-62024065D01*
X155916417Y-62229999D01*
X155487583Y-62229999D01*
X155467300Y-62024066D01*
X155407232Y-61826046D01*
X155309685Y-61643550D01*
X155178410Y-61483590D01*
X155018450Y-61352315D01*
X154835954Y-61254768D01*
X154637934Y-61194700D01*
X154432000Y-61174417D01*
X154226065Y-61194700D01*
X154226064Y-61194700D01*
X154028043Y-61254769D01*
X153845548Y-61352316D01*
X153685590Y-61483590D01*
X153554316Y-61643548D01*
X153456769Y-61826043D01*
X153396700Y-62024064D01*
X153396700Y-62024065D01*
X153376417Y-62229999D01*
X152947583Y-62229999D01*
X152927300Y-62024066D01*
X152867232Y-61826046D01*
X152769685Y-61643550D01*
X152638410Y-61483590D01*
X152478450Y-61352315D01*
X152295954Y-61254768D01*
X152097934Y-61194700D01*
X151892000Y-61174417D01*
X151686065Y-61194700D01*
X151686064Y-61194700D01*
X151488043Y-61254769D01*
X151305548Y-61352316D01*
X151145590Y-61483590D01*
X151014316Y-61643548D01*
X150916769Y-61826043D01*
X150856700Y-62024064D01*
X150856700Y-62024065D01*
X150836417Y-62229999D01*
X150407583Y-62229999D01*
X150387300Y-62024066D01*
X150327232Y-61826046D01*
X150229685Y-61643550D01*
X150098410Y-61483590D01*
X149938450Y-61352315D01*
X149755954Y-61254768D01*
X149557934Y-61194700D01*
X149352000Y-61174417D01*
X149146065Y-61194700D01*
X149146064Y-61194700D01*
X148948043Y-61254769D01*
X148765548Y-61352316D01*
X148605590Y-61483590D01*
X148474316Y-61643548D01*
X148376769Y-61826043D01*
X148316700Y-62024064D01*
X148316700Y-62024065D01*
X148296417Y-62229999D01*
X144518000Y-62229999D01*
X144518000Y-62164174D01*
X144502144Y-62105000D01*
X145118000Y-62105000D01*
X145118000Y-61355376D01*
X145117999Y-61355370D01*
X145103496Y-61282457D01*
X145048240Y-61199759D01*
X144965542Y-61144503D01*
X144892629Y-61130000D01*
X144143000Y-61130000D01*
X144143000Y-61745855D01*
X144083826Y-61730000D01*
X143952174Y-61730000D01*
X143893000Y-61745855D01*
X143893000Y-61130000D01*
X143143370Y-61130000D01*
X143070457Y-61144503D01*
X142987759Y-61199759D01*
X142932503Y-61282457D01*
X142918000Y-61355370D01*
X142486500Y-61355370D01*
X142486500Y-59731500D01*
X142500852Y-59696852D01*
X142535500Y-59682500D01*
X160917000Y-59682500D01*
X160951648Y-59696852D01*
G37*
%TD.AperFunction*%
%TD*%
M02*
