%TF.GenerationSoftware,KiCad,Pcbnew,8.0.8*%
%TF.CreationDate,2025-02-03T11:58:04+00:00*%
%TF.ProjectId,FSC-BT1038B Barebones Breakout,4653432d-4254-4313-9033-384220426172,0.1*%
%TF.SameCoordinates,Original*%
%TF.FileFunction,Soldermask,Bot*%
%TF.FilePolarity,Negative*%
%FSLAX46Y46*%
G04 Gerber Fmt 4.6, Leading zero omitted, Abs format (unit mm)*
G04 Created by KiCad (PCBNEW 8.0.8) date 2025-02-03 11:58:04*
%MOMM*%
%LPD*%
G01*
G04 APERTURE LIST*
%ADD10R,1.700000X1.700000*%
%ADD11O,1.700000X1.700000*%
%ADD12O,1.800000X1.100000*%
%ADD13O,1.250000X1.050000*%
%ADD14R,1.000000X1.500000*%
G04 APERTURE END LIST*
D10*
%TO.C,J1*%
X158496000Y-74676000D03*
D11*
X155956000Y-74676000D03*
X158496000Y-77216000D03*
X155956000Y-77216000D03*
X158496000Y-79756000D03*
X155956000Y-79756000D03*
X158496000Y-82296000D03*
X155956000Y-82296000D03*
%TD*%
D10*
%TO.C,J5*%
X189484000Y-102362000D03*
D11*
X192024000Y-102362000D03*
%TD*%
D12*
%TO.C,J2*%
X200287000Y-84601000D03*
D13*
X197562000Y-83451000D03*
X197562000Y-78601000D03*
D12*
X200287000Y-77451000D03*
%TD*%
D10*
%TO.C,J4*%
X186436000Y-62205000D03*
D11*
X188976000Y-62205000D03*
X191516000Y-62205000D03*
X194056000Y-62205000D03*
%TD*%
D10*
%TO.C,J3*%
X199923000Y-62260000D03*
D11*
X199923000Y-64800000D03*
X199923000Y-67340000D03*
X199923000Y-69880000D03*
X199923000Y-72420000D03*
%TD*%
D10*
%TO.C,J6*%
X162052000Y-62230000D03*
D11*
X159512000Y-62230000D03*
X156972000Y-62230000D03*
X154432000Y-62230000D03*
X151892000Y-62230000D03*
X149352000Y-62230000D03*
%TD*%
D10*
%TO.C,J8*%
X144018000Y-62230000D03*
D11*
X144018000Y-64770000D03*
X144018000Y-67310000D03*
X144018000Y-69850000D03*
X144018000Y-72390000D03*
X144018000Y-74930000D03*
X144018000Y-77470000D03*
X144018000Y-80010000D03*
X144018000Y-82550000D03*
X144018000Y-85090000D03*
%TD*%
D10*
%TO.C,J7*%
X199898000Y-89662000D03*
D11*
X199898000Y-92202000D03*
X199898000Y-94742000D03*
X199898000Y-97282000D03*
X199898000Y-99822000D03*
X199898000Y-102362000D03*
%TD*%
D10*
%TO.C,J9*%
X163312000Y-102362000D03*
D11*
X165852000Y-102362000D03*
X168392000Y-102362000D03*
X170932000Y-102362000D03*
X173472000Y-102362000D03*
X176012000Y-102362000D03*
X178552000Y-102362000D03*
X181092000Y-102362000D03*
X183632000Y-102362000D03*
%TD*%
D14*
%TO.C,JP1*%
X160722000Y-66548000D03*
X162022000Y-66548000D03*
X163322000Y-66548000D03*
%TD*%
M02*
