%TF.GenerationSoftware,KiCad,Pcbnew,8.0.8*%
%TF.CreationDate,2025-02-03T11:58:04+00:00*%
%TF.ProjectId,FSC-BT1038B Barebones Breakout,4653432d-4254-4313-9033-384220426172,0.1*%
%TF.SameCoordinates,Original*%
%TF.FileFunction,Soldermask,Top*%
%TF.FilePolarity,Negative*%
%FSLAX46Y46*%
G04 Gerber Fmt 4.6, Leading zero omitted, Abs format (unit mm)*
G04 Created by KiCad (PCBNEW 8.0.8) date 2025-02-03 11:58:04*
%MOMM*%
%LPD*%
G01*
G04 APERTURE LIST*
G04 Aperture macros list*
%AMRoundRect*
0 Rectangle with rounded corners*
0 $1 Rounding radius*
0 $2 $3 $4 $5 $6 $7 $8 $9 X,Y pos of 4 corners*
0 Add a 4 corners polygon primitive as box body*
4,1,4,$2,$3,$4,$5,$6,$7,$8,$9,$2,$3,0*
0 Add four circle primitives for the rounded corners*
1,1,$1+$1,$2,$3*
1,1,$1+$1,$4,$5*
1,1,$1+$1,$6,$7*
1,1,$1+$1,$8,$9*
0 Add four rect primitives between the rounded corners*
20,1,$1+$1,$2,$3,$4,$5,0*
20,1,$1+$1,$4,$5,$6,$7,0*
20,1,$1+$1,$6,$7,$8,$9,0*
20,1,$1+$1,$8,$9,$2,$3,0*%
G04 Aperture macros list end*
%ADD10RoundRect,0.237500X0.237500X-0.250000X0.237500X0.250000X-0.237500X0.250000X-0.237500X-0.250000X0*%
%ADD11R,1.050000X0.650000*%
%ADD12R,1.700000X1.700000*%
%ADD13O,1.700000X1.700000*%
%ADD14RoundRect,0.237500X-0.237500X0.287500X-0.237500X-0.287500X0.237500X-0.287500X0.237500X0.287500X0*%
%ADD15C,1.500000*%
%ADD16RoundRect,0.375000X0.625000X0.375000X-0.625000X0.375000X-0.625000X-0.375000X0.625000X-0.375000X0*%
%ADD17RoundRect,0.500000X0.500000X1.400000X-0.500000X1.400000X-0.500000X-1.400000X0.500000X-1.400000X0*%
%ADD18RoundRect,0.237500X0.250000X0.237500X-0.250000X0.237500X-0.250000X-0.237500X0.250000X-0.237500X0*%
%ADD19RoundRect,0.237500X0.300000X0.237500X-0.300000X0.237500X-0.300000X-0.237500X0.300000X-0.237500X0*%
%ADD20RoundRect,0.020000X0.655000X-0.180000X0.655000X0.180000X-0.655000X0.180000X-0.655000X-0.180000X0*%
%ADD21O,1.800000X1.100000*%
%ADD22O,1.250000X1.050000*%
%ADD23RoundRect,0.237500X-0.300000X-0.237500X0.300000X-0.237500X0.300000X0.237500X-0.300000X0.237500X0*%
%ADD24RoundRect,0.150000X-0.650000X-0.150000X0.650000X-0.150000X0.650000X0.150000X-0.650000X0.150000X0*%
%ADD25RoundRect,0.150000X-0.150000X-0.650000X0.150000X-0.650000X0.150000X0.650000X-0.150000X0.650000X0*%
G04 APERTURE END LIST*
D10*
%TO.C,R5*%
X153416000Y-93114500D03*
X153416000Y-91289500D03*
%TD*%
D11*
%TO.C,SW1*%
X178011000Y-92601000D03*
X182161000Y-92601000D03*
X178011000Y-94751000D03*
X182161000Y-94751000D03*
%TD*%
D12*
%TO.C,J1*%
X158496000Y-74676000D03*
D13*
X155956000Y-74676000D03*
X158496000Y-77216000D03*
X155956000Y-77216000D03*
X158496000Y-79756000D03*
X155956000Y-79756000D03*
X158496000Y-82296000D03*
X155956000Y-82296000D03*
%TD*%
D11*
%TO.C,SW3*%
X170137000Y-92601000D03*
X174287000Y-92601000D03*
X170137000Y-94751000D03*
X174287000Y-94751000D03*
%TD*%
D14*
%TO.C,D1*%
X147828000Y-96915000D03*
X147828000Y-98665000D03*
%TD*%
D15*
%TO.C,TP1*%
X183896000Y-84074000D03*
%TD*%
D16*
%TO.C,U1*%
X192634000Y-95772000D03*
X192634000Y-93472000D03*
D17*
X186334000Y-93472000D03*
D16*
X192634000Y-91172000D03*
%TD*%
D10*
%TO.C,R3*%
X147828000Y-93114500D03*
X147828000Y-91289500D03*
%TD*%
D11*
%TO.C,SW2*%
X162263000Y-92601000D03*
X166413000Y-92601000D03*
X162263000Y-94751000D03*
X166413000Y-94751000D03*
%TD*%
D12*
%TO.C,J5*%
X189484000Y-102362000D03*
D13*
X192024000Y-102362000D03*
%TD*%
D18*
%TO.C,R2*%
X190222500Y-82296000D03*
X188397500Y-82296000D03*
%TD*%
%TO.C,R6*%
X190222500Y-79502000D03*
X188397500Y-79502000D03*
%TD*%
D10*
%TO.C,R1*%
X162814000Y-78636500D03*
X162814000Y-76811500D03*
%TD*%
%TO.C,R4*%
X150622000Y-93114500D03*
X150622000Y-91289500D03*
%TD*%
D19*
%TO.C,C2*%
X190346500Y-87630000D03*
X188621500Y-87630000D03*
%TD*%
D20*
%TO.C,J2*%
X197612000Y-82326000D03*
X197612000Y-81676000D03*
X197612000Y-81026000D03*
X197612000Y-80376000D03*
X197612000Y-79726000D03*
D21*
X200287000Y-84601000D03*
D22*
X197562000Y-83451000D03*
X197562000Y-78601000D03*
D21*
X200287000Y-77451000D03*
%TD*%
D12*
%TO.C,J4*%
X186436000Y-62205000D03*
D13*
X188976000Y-62205000D03*
X191516000Y-62205000D03*
X194056000Y-62205000D03*
%TD*%
D12*
%TO.C,J3*%
X199923000Y-62260000D03*
D13*
X199923000Y-64800000D03*
X199923000Y-67340000D03*
X199923000Y-69880000D03*
X199923000Y-72420000D03*
%TD*%
D23*
%TO.C,C6*%
X179731500Y-87122000D03*
X181456500Y-87122000D03*
%TD*%
D14*
%TO.C,D3*%
X153416000Y-96915000D03*
X153416000Y-98665000D03*
%TD*%
D23*
%TO.C,C5*%
X184049500Y-77470000D03*
X185774500Y-77470000D03*
%TD*%
D14*
%TO.C,D2*%
X150622000Y-96915000D03*
X150622000Y-98665000D03*
%TD*%
D12*
%TO.C,J6*%
X162052000Y-62230000D03*
D13*
X159512000Y-62230000D03*
X156972000Y-62230000D03*
X154432000Y-62230000D03*
X151892000Y-62230000D03*
X149352000Y-62230000D03*
%TD*%
D24*
%TO.C,U2*%
X165966000Y-60598000D03*
X165966000Y-61598000D03*
X165966000Y-62598000D03*
X165966000Y-63598000D03*
X165966000Y-64598000D03*
X165966000Y-65598000D03*
X165966000Y-66598000D03*
X165966000Y-67598000D03*
X165966000Y-68598000D03*
X165966000Y-69598000D03*
X165966000Y-70598000D03*
X165966000Y-71598000D03*
X165966000Y-72598000D03*
X165966000Y-73598000D03*
X165966000Y-74598000D03*
X165966000Y-75598000D03*
X165966000Y-76598000D03*
X165966000Y-77598000D03*
X165966000Y-78598000D03*
X165966000Y-79598000D03*
X165966000Y-80598000D03*
D25*
X167966000Y-82098000D03*
X168966000Y-82098000D03*
X169966000Y-82098000D03*
X170966000Y-82098000D03*
X171966000Y-82098000D03*
X172966000Y-82098000D03*
X173966000Y-82098000D03*
X174966000Y-82098000D03*
X175966000Y-82098000D03*
X176966000Y-82098000D03*
D24*
X178966000Y-80598000D03*
X178966000Y-79598000D03*
X178966000Y-78598000D03*
X178966000Y-77598000D03*
X178966000Y-76598000D03*
X178966000Y-75598000D03*
X178966000Y-74598000D03*
X178966000Y-73598000D03*
X178966000Y-72598000D03*
X178966000Y-71598000D03*
X178966000Y-70598000D03*
X178966000Y-69598000D03*
X178966000Y-68598000D03*
X178966000Y-67598000D03*
X178966000Y-66598000D03*
X178966000Y-65598000D03*
X178966000Y-64598000D03*
X178966000Y-63598000D03*
X178966000Y-62598000D03*
X178966000Y-61598000D03*
X178966000Y-60598000D03*
%TD*%
D23*
%TO.C,C3*%
X188621500Y-99060000D03*
X190346500Y-99060000D03*
%TD*%
%TO.C,C4*%
X183993500Y-80638000D03*
X185718500Y-80638000D03*
%TD*%
D15*
%TO.C,TP2*%
X177038000Y-87122000D03*
%TD*%
D12*
%TO.C,J8*%
X144018000Y-62230000D03*
D13*
X144018000Y-64770000D03*
X144018000Y-67310000D03*
X144018000Y-69850000D03*
X144018000Y-72390000D03*
X144018000Y-74930000D03*
X144018000Y-77470000D03*
X144018000Y-80010000D03*
X144018000Y-82550000D03*
X144018000Y-85090000D03*
%TD*%
D12*
%TO.C,J7*%
X199898000Y-89662000D03*
D13*
X199898000Y-92202000D03*
X199898000Y-94742000D03*
X199898000Y-97282000D03*
X199898000Y-99822000D03*
X199898000Y-102362000D03*
%TD*%
D19*
%TO.C,C1*%
X181456500Y-84074000D03*
X179731500Y-84074000D03*
%TD*%
D12*
%TO.C,J9*%
X163312000Y-102362000D03*
D13*
X165852000Y-102362000D03*
X168392000Y-102362000D03*
X170932000Y-102362000D03*
X173472000Y-102362000D03*
X176012000Y-102362000D03*
X178552000Y-102362000D03*
X181092000Y-102362000D03*
X183632000Y-102362000D03*
%TD*%
M02*
