%TF.GenerationSoftware,KiCad,Pcbnew,8.0.8*%
%TF.CreationDate,2025-02-03T11:58:04+00:00*%
%TF.ProjectId,FSC-BT1038B Barebones Breakout,4653432d-4254-4313-9033-384220426172,0.1*%
%TF.SameCoordinates,Original*%
%TF.FileFunction,Copper,L4,Bot*%
%TF.FilePolarity,Positive*%
%FSLAX46Y46*%
G04 Gerber Fmt 4.6, Leading zero omitted, Abs format (unit mm)*
G04 Created by KiCad (PCBNEW 8.0.8) date 2025-02-03 11:58:04*
%MOMM*%
%LPD*%
G01*
G04 APERTURE LIST*
%TA.AperFunction,EtchedComponent*%
%ADD10C,0.000000*%
%TD*%
%TA.AperFunction,ComponentPad*%
%ADD11R,1.700000X1.700000*%
%TD*%
%TA.AperFunction,ComponentPad*%
%ADD12O,1.700000X1.700000*%
%TD*%
%TA.AperFunction,ComponentPad*%
%ADD13O,1.800000X1.100000*%
%TD*%
%TA.AperFunction,ComponentPad*%
%ADD14O,1.250000X1.050000*%
%TD*%
%TA.AperFunction,SMDPad,CuDef*%
%ADD15R,1.000000X1.500000*%
%TD*%
%TA.AperFunction,ViaPad*%
%ADD16C,0.600000*%
%TD*%
%TA.AperFunction,Conductor*%
%ADD17C,0.400000*%
%TD*%
%TA.AperFunction,Conductor*%
%ADD18C,0.200000*%
%TD*%
G04 APERTURE END LIST*
D10*
%TA.AperFunction,EtchedComponent*%
%TO.C,JP1*%
G36*
X161622000Y-66348000D02*
G01*
X161122000Y-66348000D01*
X161122000Y-65948000D01*
X161622000Y-65948000D01*
X161622000Y-66348000D01*
G37*
%TD.AperFunction*%
%TA.AperFunction,EtchedComponent*%
G36*
X161622000Y-67148000D02*
G01*
X161122000Y-67148000D01*
X161122000Y-66748000D01*
X161622000Y-66748000D01*
X161622000Y-67148000D01*
G37*
%TD.AperFunction*%
%TD*%
D11*
%TO.P,J1,1,Pin_1*%
%TO.N,+3.3V*%
X158496000Y-74676000D03*
D12*
%TO.P,J1,2,Pin_2*%
%TO.N,/SPI_CLK*%
X155956000Y-74676000D03*
%TO.P,J1,3,Pin_3*%
%TO.N,/BT_TX*%
X158496000Y-77216000D03*
%TO.P,J1,4,Pin_4*%
%TO.N,/SPI_MISO*%
X155956000Y-77216000D03*
%TO.P,J1,5,Pin_5*%
%TO.N,/BT_RX*%
X158496000Y-79756000D03*
%TO.P,J1,6,Pin_6*%
%TO.N,/SPI_MOSI*%
X155956000Y-79756000D03*
%TO.P,J1,7,Pin_7*%
%TO.N,GND*%
X158496000Y-82296000D03*
%TO.P,J1,8,Pin_8*%
X155956000Y-82296000D03*
%TD*%
D11*
%TO.P,J5,1,Pin_1*%
%TO.N,/VBAT_IN*%
X189484000Y-102362000D03*
D12*
%TO.P,J5,2,Pin_2*%
%TO.N,GND*%
X192024000Y-102362000D03*
%TD*%
D13*
%TO.P,J2,6,Shield*%
%TO.N,GND*%
X200287000Y-84601000D03*
D14*
X197562000Y-83451000D03*
X197562000Y-78601000D03*
D13*
X200287000Y-77451000D03*
%TD*%
D11*
%TO.P,J4,1,Pin_1*%
%TO.N,/MIC_BIAS*%
X186436000Y-62205000D03*
D12*
%TO.P,J4,2,Pin_2*%
%TO.N,/MIC{slash}LINE_LN*%
X188976000Y-62205000D03*
%TO.P,J4,3,Pin_3*%
%TO.N,/MIC{slash}LINE_LP*%
X191516000Y-62205000D03*
%TO.P,J4,4,Pin_4*%
%TO.N,GND*%
X194056000Y-62205000D03*
%TD*%
D11*
%TO.P,J3,1,Pin_1*%
%TO.N,/MIC{slash}LINE_LN*%
X199923000Y-62260000D03*
D12*
%TO.P,J3,2,Pin_2*%
%TO.N,/MIC{slash}LINE_LP*%
X199923000Y-64800000D03*
%TO.P,J3,3,Pin_3*%
%TO.N,/LINE_RN*%
X199923000Y-67340000D03*
%TO.P,J3,4,Pin_4*%
%TO.N,/LINE_RP*%
X199923000Y-69880000D03*
%TO.P,J3,5,Pin_5*%
%TO.N,GND*%
X199923000Y-72420000D03*
%TD*%
D11*
%TO.P,J6,1,Pin_1*%
%TO.N,Net-(J6-Pin_1)*%
X162052000Y-62230000D03*
D12*
%TO.P,J6,2,Pin_2*%
%TO.N,/PCM_CLK*%
X159512000Y-62230000D03*
%TO.P,J6,3,Pin_3*%
%TO.N,/PCM_IN*%
X156972000Y-62230000D03*
%TO.P,J6,4,Pin_4*%
%TO.N,/PCM_OUT*%
X154432000Y-62230000D03*
%TO.P,J6,5,Pin_5*%
%TO.N,/PCM_SYNC*%
X151892000Y-62230000D03*
%TO.P,J6,6,Pin_6*%
%TO.N,GND*%
X149352000Y-62230000D03*
%TD*%
D11*
%TO.P,J8,1,Pin_1*%
%TO.N,+3.3V*%
X144018000Y-62230000D03*
D12*
%TO.P,J8,2,Pin_2*%
%TO.N,/AIO4*%
X144018000Y-64770000D03*
%TO.P,J8,3,Pin_3*%
%TO.N,/AIO5*%
X144018000Y-67310000D03*
%TO.P,J8,4,Pin_4*%
%TO.N,/RESET*%
X144018000Y-69850000D03*
%TO.P,J8,5,Pin_5*%
%TO.N,/PIO15*%
X144018000Y-72390000D03*
%TO.P,J8,6,Pin_6*%
%TO.N,/BT_CTS*%
X144018000Y-74930000D03*
%TO.P,J8,7,Pin_7*%
%TO.N,/BT_RTS*%
X144018000Y-77470000D03*
%TO.P,J8,8,Pin_8*%
%TO.N,/PIO26*%
X144018000Y-80010000D03*
%TO.P,J8,9,Pin_9*%
%TO.N,/PIO30*%
X144018000Y-82550000D03*
%TO.P,J8,10,Pin_10*%
%TO.N,GND*%
X144018000Y-85090000D03*
%TD*%
D11*
%TO.P,J7,1,Pin_1*%
%TO.N,/SPK_LP*%
X199898000Y-89662000D03*
D12*
%TO.P,J7,2,Pin_2*%
%TO.N,/SPK_LN*%
X199898000Y-92202000D03*
%TO.P,J7,3,Pin_3*%
%TO.N,GND*%
X199898000Y-94742000D03*
%TO.P,J7,4,Pin_4*%
%TO.N,/SPK_RP*%
X199898000Y-97282000D03*
%TO.P,J7,5,Pin_5*%
%TO.N,/SPK_RN*%
X199898000Y-99822000D03*
%TO.P,J7,6,Pin_6*%
%TO.N,GND*%
X199898000Y-102362000D03*
%TD*%
D11*
%TO.P,J9,1,Pin_1*%
%TO.N,+3.3V*%
X163312000Y-102362000D03*
D12*
%TO.P,J9,2,Pin_2*%
%TO.N,/PIO25*%
X165852000Y-102362000D03*
%TO.P,J9,3,Pin_3*%
%TO.N,/PIO24*%
X168392000Y-102362000D03*
%TO.P,J9,4,Pin_4*%
%TO.N,/PIO22*%
X170932000Y-102362000D03*
%TO.P,J9,5,Pin_5*%
%TO.N,/PIO23*%
X173472000Y-102362000D03*
%TO.P,J9,6,Pin_6*%
%TO.N,/VCGH_SENSE*%
X176012000Y-102362000D03*
%TO.P,J9,7,Pin_7*%
%TO.N,/CHG_EXT*%
X178552000Y-102362000D03*
%TO.P,J9,8,Pin_8*%
%TO.N,/SYS_CTRL*%
X181092000Y-102362000D03*
%TO.P,J9,9,Pin_9*%
%TO.N,GND*%
X183632000Y-102362000D03*
%TD*%
D15*
%TO.P,JP1,1,A*%
%TO.N,+3.3V*%
X160722000Y-66548000D03*
%TO.P,JP1,2,C*%
%TO.N,Net-(J6-Pin_1)*%
X162022000Y-66548000D03*
%TO.P,JP1,3,B*%
%TO.N,+5V*%
X163322000Y-66548000D03*
%TD*%
D16*
%TO.N,GND*%
X166624000Y-84074000D03*
X186182000Y-78994000D03*
X181102000Y-61620400D03*
X181102000Y-62598000D03*
X185166000Y-78994000D03*
X189230000Y-86106000D03*
X182372000Y-82296000D03*
X181102000Y-60598000D03*
X187960000Y-86106000D03*
%TO.N,+5V*%
X181102000Y-73598000D03*
%TO.N,+3.3V*%
X164338000Y-95758000D03*
X186944000Y-89408000D03*
X153416000Y-100076000D03*
X172212000Y-95758000D03*
X188468000Y-89408000D03*
X181102000Y-76598000D03*
X186182000Y-97536000D03*
X187706000Y-89408000D03*
X147828000Y-100076000D03*
X187706000Y-97536000D03*
X186944000Y-97536000D03*
X161290000Y-79248000D03*
X180086000Y-95758000D03*
X150622000Y-100076000D03*
%TO.N,/D+*%
X193628000Y-81026000D03*
X192625025Y-82028975D03*
%TO.N,/SPK_LP*%
X181102000Y-63598000D03*
%TO.N,/SPK_RN*%
X181152000Y-66598000D03*
%TO.N,/SPK_LN*%
X181102000Y-64598000D03*
%TO.N,/SPK_RP*%
X181102000Y-65532000D03*
%TO.N,/PIO26*%
X164592000Y-81026000D03*
%TO.N,/PIO30*%
X165100000Y-82042000D03*
%TO.N,/AIO5*%
X164338000Y-62484000D03*
%TO.N,/BT_RTS*%
X147066000Y-75926000D03*
X164338000Y-75438000D03*
%TO.N,/AIO4*%
X164381265Y-61424735D03*
%TO.N,/BT_CTS*%
X162814000Y-75438000D03*
%TO.N,/PIO25*%
X168910000Y-84074000D03*
%TO.N,/CHG_EXT*%
X176022000Y-84074000D03*
%TO.N,/PIO24*%
X169926000Y-84074000D03*
%TO.N,/PIO22*%
X170942000Y-84074000D03*
%TO.N,/PIO23*%
X171958000Y-84074000D03*
%TO.N,/SYS_CTRL*%
X183642000Y-92710000D03*
X181102000Y-78994000D03*
%TD*%
D17*
%TO.N,+5V*%
X163322000Y-66548000D02*
X174052000Y-66548000D01*
X174052000Y-66548000D02*
X181102000Y-73598000D01*
%TO.N,+3.3V*%
X158496000Y-74676000D02*
X158496000Y-68774000D01*
X158496000Y-68774000D02*
X160722000Y-66548000D01*
%TO.N,/D+*%
X193628000Y-81026000D02*
X192625025Y-82028975D01*
%TO.N,Net-(J6-Pin_1)*%
X162022000Y-62260000D02*
X162052000Y-62230000D01*
X162022000Y-66548000D02*
X162022000Y-62260000D01*
X162052000Y-66518000D02*
X162022000Y-66548000D01*
%TO.N,/SPK_LP*%
X181102000Y-63598000D02*
X181200000Y-63598000D01*
X191925025Y-74421025D02*
X191925025Y-85245025D01*
X191925025Y-85245025D02*
X196342000Y-89662000D01*
X196342000Y-89662000D02*
X199898000Y-89662000D01*
X181102000Y-63598000D02*
X191925025Y-74421025D01*
%TO.N,/SPK_RN*%
X190125025Y-90049025D02*
X199898000Y-99822000D01*
X190125025Y-75571025D02*
X190125025Y-90049025D01*
X181152000Y-66598000D02*
X190125025Y-75571025D01*
%TO.N,/SPK_LN*%
X181102000Y-64598000D02*
X181157950Y-64598000D01*
X191325025Y-74765075D02*
X191325025Y-85661025D01*
X191325025Y-85661025D02*
X197866000Y-92202000D01*
X197866000Y-92202000D02*
X199898000Y-92202000D01*
X181157950Y-64598000D02*
X191325025Y-74765075D01*
%TO.N,/SPK_RP*%
X190725025Y-75155025D02*
X190725025Y-88109025D01*
X190725025Y-88109025D02*
X199898000Y-97282000D01*
X181102000Y-65532000D02*
X190725025Y-75155025D01*
%TO.N,/PIO26*%
X164592000Y-81026000D02*
X164572000Y-81046000D01*
X164572000Y-81046000D02*
X145054000Y-81046000D01*
X145054000Y-81046000D02*
X144018000Y-80010000D01*
%TO.N,/PIO30*%
X145014000Y-83546000D02*
X144018000Y-82550000D01*
X165100000Y-82042000D02*
X163596000Y-83546000D01*
X163596000Y-83546000D02*
X145014000Y-83546000D01*
D18*
%TO.N,/AIO5*%
X147066000Y-62484000D02*
X147066000Y-61722000D01*
X163068000Y-60960000D02*
X164338000Y-62230000D01*
X162560000Y-60960000D02*
X163068000Y-60960000D01*
X147828000Y-60960000D02*
X162560000Y-60960000D01*
X147066000Y-61722000D02*
X147828000Y-60960000D01*
X147066000Y-64262000D02*
X147066000Y-62484000D01*
X144018000Y-67310000D02*
X147066000Y-64262000D01*
X164338000Y-62230000D02*
X164338000Y-62484000D01*
D17*
%TO.N,/BT_RTS*%
X147066000Y-75926000D02*
X159786000Y-75926000D01*
X160974000Y-74738000D02*
X163638000Y-74738000D01*
X163638000Y-74738000D02*
X164338000Y-75438000D01*
X159786000Y-75926000D02*
X160974000Y-74738000D01*
D18*
%TO.N,/AIO4*%
X163516530Y-60560000D02*
X164381265Y-61424735D01*
X145992314Y-64770000D02*
X146656157Y-64106157D01*
X144018000Y-64770000D02*
X145992314Y-64770000D01*
X146656157Y-64106157D02*
X146666000Y-64096314D01*
X146666000Y-61556314D02*
X147662314Y-60560000D01*
X146666000Y-64096314D02*
X146666000Y-61556314D01*
X150622000Y-60560000D02*
X163516530Y-60560000D01*
X147662314Y-60560000D02*
X150622000Y-60560000D01*
D17*
%TO.N,/BT_CTS*%
X162814000Y-75438000D02*
X159786000Y-78466000D01*
X147554000Y-78466000D02*
X144018000Y-74930000D01*
X159786000Y-78466000D02*
X147554000Y-78466000D01*
%TO.N,/PIO25*%
X165852000Y-87132000D02*
X165852000Y-102362000D01*
X168910000Y-84074000D02*
X165852000Y-87132000D01*
%TO.N,/CHG_EXT*%
X176022000Y-84582000D02*
X178552000Y-87112000D01*
X176022000Y-84074000D02*
X176022000Y-84582000D01*
X178552000Y-87112000D02*
X178552000Y-102362000D01*
%TO.N,/PIO24*%
X169926000Y-100828000D02*
X168392000Y-102362000D01*
X169926000Y-84074000D02*
X169926000Y-100828000D01*
%TO.N,/PIO22*%
X170942000Y-85090000D02*
X170932000Y-85100000D01*
X170932000Y-85100000D02*
X170932000Y-102362000D01*
X170942000Y-84074000D02*
X170942000Y-85090000D01*
%TO.N,/PIO23*%
X171958000Y-84074000D02*
X173472000Y-85588000D01*
X173472000Y-85588000D02*
X173472000Y-102362000D01*
%TO.N,/SYS_CTRL*%
X181102000Y-89916000D02*
X181102000Y-78994000D01*
X183642000Y-99812000D02*
X181092000Y-102362000D01*
X183642000Y-92710000D02*
X183642000Y-99812000D01*
X183642000Y-92456000D02*
X181102000Y-89916000D01*
X183642000Y-92710000D02*
X183642000Y-92456000D01*
%TD*%
%TA.AperFunction,Conductor*%
%TO.N,GND*%
G36*
X160951648Y-59696852D02*
G01*
X160966000Y-59731500D01*
X160966000Y-60210500D01*
X160951648Y-60245148D01*
X160917000Y-60259500D01*
X147622749Y-60259500D01*
X147546327Y-60279977D01*
X147546324Y-60279978D01*
X147477802Y-60319540D01*
X147477802Y-60319541D01*
X146425541Y-61371802D01*
X146425540Y-61371802D01*
X146385979Y-61440322D01*
X146385979Y-61440324D01*
X146365500Y-61516750D01*
X146365500Y-63951547D01*
X146351148Y-63986195D01*
X145882195Y-64455148D01*
X145847547Y-64469500D01*
X145060955Y-64469500D01*
X145026307Y-64455148D01*
X145014065Y-64434724D01*
X144996855Y-64377991D01*
X144993232Y-64366046D01*
X144895685Y-64183550D01*
X144764410Y-64023590D01*
X144604450Y-63892315D01*
X144421954Y-63794768D01*
X144223934Y-63734700D01*
X144018000Y-63714417D01*
X143812065Y-63734700D01*
X143812064Y-63734700D01*
X143614043Y-63794769D01*
X143431548Y-63892316D01*
X143271590Y-64023590D01*
X143140316Y-64183548D01*
X143042769Y-64366043D01*
X142982700Y-64564064D01*
X142982700Y-64564065D01*
X142962417Y-64769999D01*
X142962417Y-64770000D01*
X142982700Y-64975934D01*
X142982700Y-64975935D01*
X142997213Y-65023779D01*
X143042768Y-65173954D01*
X143140315Y-65356450D01*
X143271590Y-65516410D01*
X143431550Y-65647685D01*
X143614046Y-65745232D01*
X143812066Y-65805300D01*
X144018000Y-65825583D01*
X144223934Y-65805300D01*
X144421954Y-65745232D01*
X144604450Y-65647685D01*
X144764410Y-65516410D01*
X144895685Y-65356450D01*
X144993232Y-65173954D01*
X145014065Y-65105276D01*
X145037857Y-65076286D01*
X145060955Y-65070500D01*
X145714233Y-65070500D01*
X145748881Y-65084852D01*
X145763233Y-65119500D01*
X145748881Y-65154148D01*
X144542994Y-66360033D01*
X144508346Y-66374385D01*
X144485248Y-66368599D01*
X144421962Y-66334772D01*
X144421959Y-66334771D01*
X144421954Y-66334768D01*
X144223934Y-66274700D01*
X144018000Y-66254417D01*
X143812065Y-66274700D01*
X143812064Y-66274700D01*
X143647490Y-66324623D01*
X143614050Y-66334767D01*
X143614043Y-66334769D01*
X143431548Y-66432316D01*
X143271590Y-66563590D01*
X143140316Y-66723548D01*
X143042769Y-66906043D01*
X142982700Y-67104064D01*
X142982700Y-67104065D01*
X142962417Y-67309999D01*
X142962417Y-67310000D01*
X142982700Y-67515934D01*
X142982700Y-67515935D01*
X143008855Y-67602158D01*
X143042768Y-67713954D01*
X143140315Y-67896450D01*
X143271590Y-68056410D01*
X143431550Y-68187685D01*
X143614046Y-68285232D01*
X143812066Y-68345300D01*
X144018000Y-68365583D01*
X144223934Y-68345300D01*
X144421954Y-68285232D01*
X144604450Y-68187685D01*
X144764410Y-68056410D01*
X144895685Y-67896450D01*
X144993232Y-67713954D01*
X145053300Y-67515934D01*
X145073583Y-67310000D01*
X145053300Y-67104066D01*
X144993232Y-66906046D01*
X144959398Y-66842748D01*
X144955723Y-66805429D01*
X144967963Y-66785006D01*
X147306460Y-64446511D01*
X147308249Y-64443412D01*
X147346021Y-64377989D01*
X147366500Y-64301562D01*
X147366500Y-62444438D01*
X147366500Y-61866767D01*
X147380852Y-61832119D01*
X147938119Y-61274852D01*
X147972767Y-61260500D01*
X148656491Y-61260500D01*
X148691139Y-61274852D01*
X148705491Y-61309500D01*
X148691139Y-61344148D01*
X148686923Y-61347815D01*
X148535607Y-61485759D01*
X148535604Y-61485762D01*
X148412755Y-61648442D01*
X148412752Y-61648446D01*
X148321884Y-61830935D01*
X148321883Y-61830936D01*
X148266098Y-62027004D01*
X148266096Y-62027013D01*
X148258870Y-62104999D01*
X148258870Y-62105000D01*
X148867856Y-62105000D01*
X148852000Y-62164174D01*
X148852000Y-62295826D01*
X148867856Y-62355000D01*
X148258870Y-62355000D01*
X148266096Y-62432986D01*
X148266098Y-62432995D01*
X148321883Y-62629063D01*
X148321884Y-62629064D01*
X148412752Y-62811553D01*
X148412755Y-62811557D01*
X148535604Y-62974237D01*
X148535607Y-62974240D01*
X148686257Y-63111576D01*
X148859590Y-63218900D01*
X149049674Y-63292538D01*
X149227000Y-63325686D01*
X149227000Y-62714144D01*
X149286174Y-62730000D01*
X149417826Y-62730000D01*
X149477000Y-62714144D01*
X149477000Y-63325685D01*
X149654325Y-63292538D01*
X149844409Y-63218900D01*
X150017742Y-63111576D01*
X150168392Y-62974240D01*
X150168395Y-62974237D01*
X150291244Y-62811557D01*
X150291247Y-62811553D01*
X150382115Y-62629064D01*
X150382116Y-62629063D01*
X150437901Y-62432995D01*
X150437903Y-62432986D01*
X150445129Y-62355000D01*
X149836144Y-62355000D01*
X149852000Y-62295826D01*
X149852000Y-62164174D01*
X149836144Y-62105000D01*
X150445130Y-62105000D01*
X150445129Y-62104999D01*
X150437903Y-62027013D01*
X150437901Y-62027004D01*
X150382116Y-61830936D01*
X150382115Y-61830935D01*
X150291247Y-61648446D01*
X150291244Y-61648442D01*
X150168395Y-61485762D01*
X150168392Y-61485759D01*
X150016064Y-61346893D01*
X150016620Y-61346282D01*
X149998981Y-61316281D01*
X150008399Y-61279980D01*
X150040728Y-61260972D01*
X150047509Y-61260500D01*
X151281705Y-61260500D01*
X151316353Y-61274852D01*
X151330705Y-61309500D01*
X151316353Y-61344148D01*
X151307416Y-61350776D01*
X151307551Y-61350978D01*
X151305551Y-61352313D01*
X151145590Y-61483590D01*
X151014316Y-61643548D01*
X150916769Y-61826043D01*
X150856700Y-62024064D01*
X150856700Y-62024065D01*
X150836417Y-62229999D01*
X150836417Y-62230000D01*
X150856700Y-62435934D01*
X150856700Y-62435935D01*
X150871280Y-62484000D01*
X150916768Y-62633954D01*
X151014315Y-62816450D01*
X151145590Y-62976410D01*
X151305550Y-63107685D01*
X151488046Y-63205232D01*
X151686066Y-63265300D01*
X151892000Y-63285583D01*
X152097934Y-63265300D01*
X152295954Y-63205232D01*
X152478450Y-63107685D01*
X152638410Y-62976410D01*
X152769685Y-62816450D01*
X152867232Y-62633954D01*
X152927300Y-62435934D01*
X152947583Y-62230000D01*
X152927300Y-62024066D01*
X152867232Y-61826046D01*
X152769685Y-61643550D01*
X152638410Y-61483590D01*
X152524677Y-61390252D01*
X152478448Y-61352313D01*
X152476449Y-61350978D01*
X152477042Y-61350089D01*
X152455405Y-61323725D01*
X152459081Y-61286402D01*
X152488070Y-61262610D01*
X152502295Y-61260500D01*
X153821705Y-61260500D01*
X153856353Y-61274852D01*
X153870705Y-61309500D01*
X153856353Y-61344148D01*
X153847416Y-61350776D01*
X153847551Y-61350978D01*
X153845551Y-61352313D01*
X153685590Y-61483590D01*
X153554316Y-61643548D01*
X153456769Y-61826043D01*
X153396700Y-62024064D01*
X153396700Y-62024065D01*
X153376417Y-62229999D01*
X153376417Y-62230000D01*
X153396700Y-62435934D01*
X153396700Y-62435935D01*
X153411280Y-62484000D01*
X153456768Y-62633954D01*
X153554315Y-62816450D01*
X153685590Y-62976410D01*
X153845550Y-63107685D01*
X154028046Y-63205232D01*
X154226066Y-63265300D01*
X154432000Y-63285583D01*
X154637934Y-63265300D01*
X154835954Y-63205232D01*
X155018450Y-63107685D01*
X155178410Y-62976410D01*
X155309685Y-62816450D01*
X155407232Y-62633954D01*
X155467300Y-62435934D01*
X155487583Y-62230000D01*
X155467300Y-62024066D01*
X155407232Y-61826046D01*
X155309685Y-61643550D01*
X155178410Y-61483590D01*
X155064677Y-61390252D01*
X155018448Y-61352313D01*
X155016449Y-61350978D01*
X155017042Y-61350089D01*
X154995405Y-61323725D01*
X154999081Y-61286402D01*
X155028070Y-61262610D01*
X155042295Y-61260500D01*
X156361705Y-61260500D01*
X156396353Y-61274852D01*
X156410705Y-61309500D01*
X156396353Y-61344148D01*
X156387416Y-61350776D01*
X156387551Y-61350978D01*
X156385551Y-61352313D01*
X156225590Y-61483590D01*
X156094316Y-61643548D01*
X155996769Y-61826043D01*
X155936700Y-62024064D01*
X155936700Y-62024065D01*
X155916417Y-62229999D01*
X155916417Y-62230000D01*
X155936700Y-62435934D01*
X155936700Y-62435935D01*
X155951280Y-62484000D01*
X155996768Y-62633954D01*
X156094315Y-62816450D01*
X156225590Y-62976410D01*
X156385550Y-63107685D01*
X156568046Y-63205232D01*
X156766066Y-63265300D01*
X156972000Y-63285583D01*
X157177934Y-63265300D01*
X157375954Y-63205232D01*
X157558450Y-63107685D01*
X157718410Y-62976410D01*
X157849685Y-62816450D01*
X157947232Y-62633954D01*
X158007300Y-62435934D01*
X158027583Y-62230000D01*
X158007300Y-62024066D01*
X157947232Y-61826046D01*
X157849685Y-61643550D01*
X157718410Y-61483590D01*
X157604677Y-61390252D01*
X157558448Y-61352313D01*
X157556449Y-61350978D01*
X157557042Y-61350089D01*
X157535405Y-61323725D01*
X157539081Y-61286402D01*
X157568070Y-61262610D01*
X157582295Y-61260500D01*
X158901705Y-61260500D01*
X158936353Y-61274852D01*
X158950705Y-61309500D01*
X158936353Y-61344148D01*
X158927416Y-61350776D01*
X158927551Y-61350978D01*
X158925551Y-61352313D01*
X158765590Y-61483590D01*
X158634316Y-61643548D01*
X158536769Y-61826043D01*
X158476700Y-62024064D01*
X158476700Y-62024065D01*
X158456417Y-62229999D01*
X158456417Y-62230000D01*
X158476700Y-62435934D01*
X158476700Y-62435935D01*
X158491280Y-62484000D01*
X158536768Y-62633954D01*
X158634315Y-62816450D01*
X158765590Y-62976410D01*
X158925550Y-63107685D01*
X159108046Y-63205232D01*
X159306066Y-63265300D01*
X159512000Y-63285583D01*
X159717934Y-63265300D01*
X159915954Y-63205232D01*
X160098450Y-63107685D01*
X160258410Y-62976410D01*
X160389685Y-62816450D01*
X160487232Y-62633954D01*
X160547300Y-62435934D01*
X160567583Y-62230000D01*
X160547300Y-62024066D01*
X160487232Y-61826046D01*
X160389685Y-61643550D01*
X160258410Y-61483590D01*
X160144677Y-61390252D01*
X160098448Y-61352313D01*
X160096449Y-61350978D01*
X160097042Y-61350089D01*
X160075405Y-61323725D01*
X160079081Y-61286402D01*
X160108070Y-61262610D01*
X160122295Y-61260500D01*
X160961635Y-61260500D01*
X160996283Y-61274852D01*
X161010635Y-61309500D01*
X161009694Y-61319057D01*
X161001500Y-61360252D01*
X161001500Y-63099748D01*
X161013133Y-63158231D01*
X161027833Y-63180230D01*
X161057447Y-63224552D01*
X161081015Y-63240299D01*
X161123769Y-63268867D01*
X161182252Y-63280500D01*
X161572500Y-63280500D01*
X161607148Y-63294852D01*
X161621500Y-63329500D01*
X161621500Y-65548500D01*
X161607148Y-65583148D01*
X161572500Y-65597500D01*
X161502252Y-65597500D01*
X161443769Y-65609133D01*
X161399223Y-65638898D01*
X161362441Y-65646214D01*
X161344777Y-65638898D01*
X161335646Y-65632797D01*
X161300231Y-65609133D01*
X161241748Y-65597500D01*
X160202252Y-65597500D01*
X160143769Y-65609133D01*
X160077447Y-65653447D01*
X160033133Y-65719769D01*
X160021500Y-65778252D01*
X160021500Y-65778255D01*
X160021500Y-66661811D01*
X160007148Y-66696459D01*
X158175521Y-68528086D01*
X158175520Y-68528086D01*
X158122793Y-68619410D01*
X158121124Y-68625642D01*
X158121123Y-68625641D01*
X158121123Y-68625645D01*
X158095500Y-68721269D01*
X158095500Y-73576500D01*
X158081148Y-73611148D01*
X158046500Y-73625500D01*
X157626252Y-73625500D01*
X157567769Y-73637133D01*
X157501447Y-73681447D01*
X157462021Y-73740454D01*
X157457133Y-73747769D01*
X157445500Y-73806252D01*
X157445500Y-73806255D01*
X157445500Y-75476500D01*
X157431148Y-75511148D01*
X157396500Y-75525500D01*
X156713740Y-75525500D01*
X156679092Y-75511148D01*
X156664740Y-75476500D01*
X156679092Y-75441852D01*
X156682655Y-75438623D01*
X156693401Y-75429803D01*
X156702410Y-75422410D01*
X156833685Y-75262450D01*
X156931232Y-75079954D01*
X156991300Y-74881934D01*
X157011583Y-74676000D01*
X156991300Y-74470066D01*
X156931232Y-74272046D01*
X156833685Y-74089550D01*
X156702410Y-73929590D01*
X156542450Y-73798315D01*
X156359954Y-73700768D01*
X156161934Y-73640700D01*
X155956000Y-73620417D01*
X155750065Y-73640700D01*
X155750064Y-73640700D01*
X155552043Y-73700769D01*
X155369548Y-73798316D01*
X155209590Y-73929590D01*
X155078316Y-74089548D01*
X154980769Y-74272043D01*
X154920700Y-74470064D01*
X154920700Y-74470065D01*
X154900417Y-74675999D01*
X154900417Y-74676000D01*
X154920700Y-74881934D01*
X154920700Y-74881935D01*
X154937859Y-74938500D01*
X154980768Y-75079954D01*
X155078315Y-75262450D01*
X155157115Y-75358469D01*
X155209592Y-75422412D01*
X155229345Y-75438623D01*
X155247024Y-75471697D01*
X155236137Y-75507585D01*
X155203063Y-75525264D01*
X155198260Y-75525500D01*
X147382951Y-75525500D01*
X147356460Y-75517721D01*
X147276053Y-75466047D01*
X147137965Y-75425500D01*
X147137961Y-75425500D01*
X146994039Y-75425500D01*
X146994034Y-75425500D01*
X146855949Y-75466046D01*
X146855947Y-75466046D01*
X146855947Y-75466047D01*
X146839682Y-75476500D01*
X146734871Y-75543857D01*
X146640625Y-75652623D01*
X146640624Y-75652625D01*
X146580833Y-75783545D01*
X146560353Y-75925997D01*
X146560353Y-75926002D01*
X146580833Y-76068454D01*
X146612616Y-76138046D01*
X146640623Y-76199373D01*
X146640624Y-76199374D01*
X146640625Y-76199376D01*
X146654906Y-76215857D01*
X146734872Y-76308143D01*
X146855947Y-76385953D01*
X146932785Y-76408514D01*
X146994034Y-76426499D01*
X146994037Y-76426499D01*
X146994039Y-76426500D01*
X146994040Y-76426500D01*
X147137960Y-76426500D01*
X147137961Y-76426500D01*
X147137963Y-76426499D01*
X147137965Y-76426499D01*
X147179112Y-76414417D01*
X147276053Y-76385953D01*
X147346232Y-76340852D01*
X147356460Y-76334279D01*
X147382951Y-76326500D01*
X155247001Y-76326500D01*
X155281649Y-76340852D01*
X155296001Y-76375500D01*
X155281649Y-76410148D01*
X155278096Y-76413368D01*
X155226704Y-76455545D01*
X155209590Y-76469590D01*
X155078316Y-76629548D01*
X154980769Y-76812043D01*
X154920700Y-77010064D01*
X154920700Y-77010065D01*
X154920700Y-77010066D01*
X154900417Y-77216000D01*
X154920700Y-77421934D01*
X154980768Y-77619954D01*
X155078315Y-77802450D01*
X155208407Y-77960969D01*
X155209592Y-77962412D01*
X155229345Y-77978623D01*
X155247024Y-78011697D01*
X155236137Y-78047585D01*
X155203063Y-78065264D01*
X155198260Y-78065500D01*
X147740189Y-78065500D01*
X147705541Y-78051148D01*
X145012862Y-75358469D01*
X144998510Y-75323821D01*
X145000619Y-75309600D01*
X145053300Y-75135934D01*
X145073583Y-74930000D01*
X145053300Y-74724066D01*
X144993232Y-74526046D01*
X144895685Y-74343550D01*
X144764410Y-74183590D01*
X144604450Y-74052315D01*
X144421954Y-73954768D01*
X144223934Y-73894700D01*
X144018000Y-73874417D01*
X143812065Y-73894700D01*
X143812064Y-73894700D01*
X143614043Y-73954769D01*
X143431548Y-74052316D01*
X143271590Y-74183590D01*
X143140316Y-74343548D01*
X143042769Y-74526043D01*
X142982700Y-74724064D01*
X142982700Y-74724065D01*
X142962417Y-74929999D01*
X142962417Y-74930000D01*
X142982700Y-75135934D01*
X142982700Y-75135935D01*
X142991403Y-75164625D01*
X143042768Y-75333954D01*
X143140315Y-75516450D01*
X143271590Y-75676410D01*
X143431550Y-75807685D01*
X143614046Y-75905232D01*
X143812066Y-75965300D01*
X144018000Y-75985583D01*
X144223934Y-75965300D01*
X144397598Y-75912620D01*
X144434919Y-75916296D01*
X144446469Y-75924862D01*
X147308087Y-78786480D01*
X147332464Y-78800554D01*
X147399410Y-78839206D01*
X147399412Y-78839207D01*
X147501269Y-78866499D01*
X147501270Y-78866500D01*
X147501273Y-78866500D01*
X155247001Y-78866500D01*
X155281649Y-78880852D01*
X155296001Y-78915500D01*
X155281649Y-78950148D01*
X155278096Y-78953368D01*
X155228587Y-78994000D01*
X155209590Y-79009590D01*
X155078316Y-79169548D01*
X154980769Y-79352043D01*
X154920700Y-79550064D01*
X154920700Y-79550065D01*
X154920700Y-79550066D01*
X154900417Y-79756000D01*
X154920700Y-79961934D01*
X154980768Y-80159954D01*
X155078315Y-80342450D01*
X155209590Y-80502410D01*
X155278086Y-80558623D01*
X155295765Y-80591697D01*
X155284879Y-80627585D01*
X155251804Y-80645264D01*
X155247001Y-80645500D01*
X145240189Y-80645500D01*
X145205541Y-80631148D01*
X145012862Y-80438469D01*
X144998510Y-80403821D01*
X145000619Y-80389600D01*
X145053300Y-80215934D01*
X145073583Y-80010000D01*
X145053300Y-79804066D01*
X144993232Y-79606046D01*
X144895685Y-79423550D01*
X144764410Y-79263590D01*
X144604450Y-79132315D01*
X144421954Y-79034768D01*
X144223934Y-78974700D01*
X144018000Y-78954417D01*
X143812065Y-78974700D01*
X143812064Y-78974700D01*
X143614043Y-79034769D01*
X143431548Y-79132316D01*
X143271590Y-79263590D01*
X143140316Y-79423548D01*
X143042769Y-79606043D01*
X142982700Y-79804064D01*
X142982700Y-79804065D01*
X142982700Y-79804066D01*
X142962417Y-80010000D01*
X142982700Y-80215934D01*
X143042768Y-80413954D01*
X143140315Y-80596450D01*
X143271590Y-80756410D01*
X143431550Y-80887685D01*
X143614046Y-80985232D01*
X143812066Y-81045300D01*
X144018000Y-81065583D01*
X144223934Y-81045300D01*
X144397598Y-80992620D01*
X144434919Y-80996296D01*
X144446469Y-81004862D01*
X144808087Y-81366480D01*
X144874938Y-81405077D01*
X144899410Y-81419206D01*
X144899412Y-81419207D01*
X145001269Y-81446499D01*
X145001270Y-81446500D01*
X145001273Y-81446500D01*
X145106727Y-81446500D01*
X155128589Y-81446500D01*
X155163237Y-81460852D01*
X155177589Y-81495500D01*
X155163237Y-81530148D01*
X155161600Y-81531712D01*
X155139603Y-81551764D01*
X155016755Y-81714442D01*
X155016752Y-81714446D01*
X154925884Y-81896935D01*
X154925883Y-81896936D01*
X154870098Y-82093004D01*
X154870096Y-82093013D01*
X154862870Y-82170999D01*
X154862870Y-82171000D01*
X155471856Y-82171000D01*
X155456000Y-82230174D01*
X155456000Y-82361826D01*
X155471856Y-82421000D01*
X154862870Y-82421000D01*
X154870096Y-82498986D01*
X154870098Y-82498995D01*
X154925883Y-82695063D01*
X154925884Y-82695064D01*
X155016752Y-82877553D01*
X155016755Y-82877557D01*
X155139603Y-83040235D01*
X155161600Y-83060288D01*
X155177537Y-83094237D01*
X155164801Y-83129511D01*
X155130852Y-83145448D01*
X155128589Y-83145500D01*
X145200188Y-83145500D01*
X145165540Y-83131148D01*
X145012862Y-82978469D01*
X144998510Y-82943821D01*
X145000619Y-82929600D01*
X145053300Y-82755934D01*
X145073583Y-82550000D01*
X145053300Y-82344066D01*
X144993232Y-82146046D01*
X144895685Y-81963550D01*
X144764410Y-81803590D01*
X144604450Y-81672315D01*
X144421954Y-81574768D01*
X144223934Y-81514700D01*
X144018000Y-81494417D01*
X143812065Y-81514700D01*
X143812064Y-81514700D01*
X143614043Y-81574769D01*
X143431548Y-81672316D01*
X143271590Y-81803590D01*
X143140316Y-81963548D01*
X143042769Y-82146043D01*
X142982700Y-82344064D01*
X142982700Y-82344065D01*
X142964439Y-82529475D01*
X142962417Y-82550000D01*
X142982700Y-82755934D01*
X143042768Y-82953954D01*
X143140315Y-83136450D01*
X143271590Y-83296410D01*
X143431550Y-83427685D01*
X143614046Y-83525232D01*
X143812066Y-83585300D01*
X144018000Y-83605583D01*
X144223934Y-83585300D01*
X144397598Y-83532620D01*
X144434919Y-83536296D01*
X144446469Y-83544862D01*
X144691804Y-83790196D01*
X144691809Y-83790202D01*
X144693520Y-83791913D01*
X144768087Y-83866480D01*
X144798339Y-83883946D01*
X144859410Y-83919206D01*
X144859412Y-83919206D01*
X144859413Y-83919207D01*
X144893366Y-83928305D01*
X144961271Y-83946501D01*
X144961273Y-83946501D01*
X145069724Y-83946501D01*
X145069740Y-83946500D01*
X163648730Y-83946500D01*
X163648730Y-83946499D01*
X163750588Y-83919207D01*
X163841913Y-83866480D01*
X165154528Y-82553864D01*
X165175367Y-82541499D01*
X165310053Y-82501953D01*
X165431128Y-82424143D01*
X165525377Y-82315373D01*
X165585165Y-82184457D01*
X165585165Y-82184455D01*
X165585166Y-82184454D01*
X165605647Y-82042002D01*
X165605647Y-82041997D01*
X165585166Y-81899545D01*
X165580751Y-81889879D01*
X165525377Y-81768627D01*
X165431128Y-81659857D01*
X165310053Y-81582047D01*
X165310050Y-81582046D01*
X165171965Y-81541500D01*
X165171961Y-81541500D01*
X165028039Y-81541500D01*
X165028034Y-81541500D01*
X164889949Y-81582046D01*
X164889947Y-81582046D01*
X164889947Y-81582047D01*
X164852722Y-81605969D01*
X164768871Y-81659857D01*
X164674625Y-81768623D01*
X164674624Y-81768625D01*
X164614835Y-81899542D01*
X164606874Y-81954911D01*
X164593021Y-81982585D01*
X163444459Y-83131148D01*
X163409811Y-83145500D01*
X159323411Y-83145500D01*
X159288763Y-83131148D01*
X159274411Y-83096500D01*
X159288763Y-83061852D01*
X159290400Y-83060288D01*
X159312396Y-83040235D01*
X159435244Y-82877557D01*
X159435247Y-82877553D01*
X159526115Y-82695064D01*
X159526116Y-82695063D01*
X159581901Y-82498995D01*
X159581903Y-82498986D01*
X159589129Y-82421000D01*
X158980144Y-82421000D01*
X158996000Y-82361826D01*
X158996000Y-82230174D01*
X158980144Y-82171000D01*
X159589130Y-82171000D01*
X159589129Y-82170999D01*
X159581903Y-82093013D01*
X159581901Y-82093004D01*
X159526116Y-81896936D01*
X159526115Y-81896935D01*
X159435247Y-81714446D01*
X159435244Y-81714442D01*
X159312396Y-81551764D01*
X159290400Y-81531712D01*
X159274463Y-81497763D01*
X159287199Y-81462489D01*
X159321148Y-81446552D01*
X159323411Y-81446500D01*
X164306170Y-81446500D01*
X164332660Y-81454278D01*
X164381947Y-81485953D01*
X164422169Y-81497763D01*
X164520034Y-81526499D01*
X164520037Y-81526499D01*
X164520039Y-81526500D01*
X164520040Y-81526500D01*
X164663960Y-81526500D01*
X164663961Y-81526500D01*
X164663963Y-81526499D01*
X164663965Y-81526499D01*
X164686795Y-81519795D01*
X164802053Y-81485953D01*
X164923128Y-81408143D01*
X165017377Y-81299373D01*
X165077165Y-81168457D01*
X165077165Y-81168455D01*
X165077166Y-81168454D01*
X165097647Y-81026002D01*
X165097647Y-81025997D01*
X165077166Y-80883545D01*
X165072751Y-80873879D01*
X165017377Y-80752627D01*
X164923128Y-80643857D01*
X164802053Y-80566047D01*
X164802050Y-80566046D01*
X164663965Y-80525500D01*
X164663961Y-80525500D01*
X164520039Y-80525500D01*
X164520034Y-80525500D01*
X164381949Y-80566046D01*
X164270418Y-80637722D01*
X164243927Y-80645500D01*
X159204999Y-80645500D01*
X159170351Y-80631148D01*
X159155999Y-80596500D01*
X159170351Y-80561852D01*
X159173903Y-80558631D01*
X159242410Y-80502410D01*
X159373685Y-80342450D01*
X159471232Y-80159954D01*
X159531300Y-79961934D01*
X159551583Y-79756000D01*
X159531300Y-79550066D01*
X159471232Y-79352046D01*
X159415616Y-79247997D01*
X160784353Y-79247997D01*
X160784353Y-79248002D01*
X160804833Y-79390454D01*
X160819947Y-79423548D01*
X160864623Y-79521373D01*
X160864624Y-79521374D01*
X160864625Y-79521376D01*
X160889485Y-79550066D01*
X160958872Y-79630143D01*
X161079947Y-79707953D01*
X161156785Y-79730514D01*
X161218034Y-79748499D01*
X161218037Y-79748499D01*
X161218039Y-79748500D01*
X161218040Y-79748500D01*
X161361960Y-79748500D01*
X161361961Y-79748500D01*
X161361963Y-79748499D01*
X161361965Y-79748499D01*
X161384795Y-79741795D01*
X161500053Y-79707953D01*
X161621128Y-79630143D01*
X161715377Y-79521373D01*
X161775165Y-79390457D01*
X161775165Y-79390455D01*
X161775166Y-79390454D01*
X161795647Y-79248002D01*
X161795647Y-79247997D01*
X161775166Y-79105545D01*
X161742843Y-79034769D01*
X161715377Y-78974627D01*
X161668305Y-78920303D01*
X161621128Y-78865857D01*
X161598855Y-78851543D01*
X161500053Y-78788047D01*
X161500050Y-78788046D01*
X161361965Y-78747500D01*
X161361961Y-78747500D01*
X161218039Y-78747500D01*
X161218034Y-78747500D01*
X161079949Y-78788046D01*
X160958871Y-78865857D01*
X160864625Y-78974623D01*
X160864624Y-78974625D01*
X160804833Y-79105545D01*
X160784353Y-79247997D01*
X159415616Y-79247997D01*
X159373685Y-79169550D01*
X159242410Y-79009590D01*
X159173913Y-78953376D01*
X159156235Y-78920303D01*
X159167121Y-78884415D01*
X159200196Y-78866736D01*
X159204999Y-78866500D01*
X159838730Y-78866500D01*
X159838730Y-78866499D01*
X159940588Y-78839207D01*
X160031913Y-78786480D01*
X162220394Y-76597997D01*
X180596353Y-76597997D01*
X180596353Y-76598002D01*
X180616833Y-76740454D01*
X180648935Y-76810746D01*
X180676623Y-76871373D01*
X180676624Y-76871374D01*
X180676625Y-76871376D01*
X180770871Y-76980142D01*
X180770872Y-76980143D01*
X180891947Y-77057953D01*
X180968785Y-77080514D01*
X181030034Y-77098499D01*
X181030037Y-77098499D01*
X181030039Y-77098500D01*
X181030040Y-77098500D01*
X181173960Y-77098500D01*
X181173961Y-77098500D01*
X181173963Y-77098499D01*
X181173965Y-77098499D01*
X181196795Y-77091795D01*
X181312053Y-77057953D01*
X181433128Y-76980143D01*
X181527377Y-76871373D01*
X181587165Y-76740457D01*
X181587165Y-76740455D01*
X181587166Y-76740454D01*
X181607647Y-76598002D01*
X181607647Y-76597997D01*
X181587166Y-76455545D01*
X181568383Y-76414417D01*
X181527377Y-76324627D01*
X181433128Y-76215857D01*
X181312053Y-76138047D01*
X181312050Y-76138046D01*
X181173965Y-76097500D01*
X181173961Y-76097500D01*
X181030039Y-76097500D01*
X181030034Y-76097500D01*
X180891949Y-76138046D01*
X180770871Y-76215857D01*
X180676625Y-76324623D01*
X180676624Y-76324625D01*
X180616833Y-76455545D01*
X180596353Y-76597997D01*
X162220394Y-76597997D01*
X162868526Y-75949865D01*
X162889367Y-75937500D01*
X162900612Y-75934197D01*
X163024053Y-75897953D01*
X163145128Y-75820143D01*
X163239377Y-75711373D01*
X163299165Y-75580457D01*
X163299165Y-75580455D01*
X163299166Y-75580454D01*
X163319647Y-75438002D01*
X163319647Y-75437997D01*
X163299166Y-75295545D01*
X163259119Y-75207856D01*
X163257780Y-75170377D01*
X163283335Y-75142928D01*
X163303691Y-75138500D01*
X163451811Y-75138500D01*
X163486459Y-75152852D01*
X163831021Y-75497414D01*
X163844873Y-75525087D01*
X163852835Y-75580457D01*
X163912623Y-75711373D01*
X163912624Y-75711374D01*
X163912625Y-75711376D01*
X163952343Y-75757213D01*
X164006872Y-75820143D01*
X164127947Y-75897953D01*
X164204785Y-75920514D01*
X164266034Y-75938499D01*
X164266037Y-75938499D01*
X164266039Y-75938500D01*
X164266040Y-75938500D01*
X164409960Y-75938500D01*
X164409961Y-75938500D01*
X164409963Y-75938499D01*
X164409965Y-75938499D01*
X164432795Y-75931795D01*
X164548053Y-75897953D01*
X164669128Y-75820143D01*
X164763377Y-75711373D01*
X164823165Y-75580457D01*
X164823165Y-75580455D01*
X164823166Y-75580454D01*
X164843647Y-75438002D01*
X164843647Y-75437997D01*
X164823166Y-75295545D01*
X164783119Y-75207856D01*
X164763377Y-75164627D01*
X164738515Y-75135935D01*
X164669128Y-75055857D01*
X164548053Y-74978047D01*
X164548050Y-74978046D01*
X164413369Y-74938500D01*
X164392526Y-74926133D01*
X163883913Y-74417520D01*
X163792589Y-74364793D01*
X163792587Y-74364792D01*
X163690730Y-74337500D01*
X163690727Y-74337500D01*
X161029740Y-74337500D01*
X161029724Y-74337499D01*
X161026727Y-74337499D01*
X160921273Y-74337499D01*
X160921271Y-74337499D01*
X160820234Y-74364573D01*
X160820227Y-74364575D01*
X160819880Y-74364667D01*
X160819412Y-74364793D01*
X160819410Y-74364793D01*
X160728086Y-74417520D01*
X160728086Y-74417521D01*
X159634459Y-75511148D01*
X159599811Y-75525500D01*
X159595500Y-75525500D01*
X159560852Y-75511148D01*
X159546500Y-75476500D01*
X159546500Y-73806255D01*
X159546500Y-73806252D01*
X159534867Y-73747769D01*
X159503462Y-73700769D01*
X159490552Y-73681447D01*
X159429569Y-73640700D01*
X159424231Y-73637133D01*
X159365748Y-73625500D01*
X159365745Y-73625500D01*
X158945500Y-73625500D01*
X158910852Y-73611148D01*
X158896500Y-73576500D01*
X158896500Y-68960189D01*
X158910852Y-68925541D01*
X160323541Y-67512852D01*
X160358189Y-67498500D01*
X161241745Y-67498500D01*
X161241748Y-67498500D01*
X161300231Y-67486867D01*
X161344778Y-67457100D01*
X161381559Y-67449784D01*
X161399219Y-67457099D01*
X161443769Y-67486867D01*
X161502252Y-67498500D01*
X161502255Y-67498500D01*
X162541745Y-67498500D01*
X162541748Y-67498500D01*
X162600231Y-67486867D01*
X162644778Y-67457100D01*
X162681559Y-67449784D01*
X162699219Y-67457099D01*
X162743769Y-67486867D01*
X162802252Y-67498500D01*
X162802255Y-67498500D01*
X163841745Y-67498500D01*
X163841748Y-67498500D01*
X163900231Y-67486867D01*
X163966552Y-67442552D01*
X164010867Y-67376231D01*
X164022500Y-67317748D01*
X164022500Y-66997500D01*
X164036852Y-66962852D01*
X164071500Y-66948500D01*
X173865811Y-66948500D01*
X173900459Y-66962852D01*
X180595020Y-73657412D01*
X180608873Y-73685086D01*
X180616835Y-73740454D01*
X180616835Y-73740457D01*
X180676623Y-73871373D01*
X180676624Y-73871374D01*
X180676625Y-73871376D01*
X180748885Y-73954769D01*
X180770872Y-73980143D01*
X180891947Y-74057953D01*
X180968785Y-74080514D01*
X181030034Y-74098499D01*
X181030037Y-74098499D01*
X181030039Y-74098500D01*
X181030040Y-74098500D01*
X181173960Y-74098500D01*
X181173961Y-74098500D01*
X181173963Y-74098499D01*
X181173965Y-74098499D01*
X181204449Y-74089548D01*
X181312053Y-74057953D01*
X181433128Y-73980143D01*
X181527377Y-73871373D01*
X181587165Y-73740457D01*
X181587165Y-73740455D01*
X181587166Y-73740454D01*
X181607647Y-73598002D01*
X181607647Y-73597997D01*
X181587166Y-73455545D01*
X181573353Y-73425299D01*
X181527377Y-73324627D01*
X181507403Y-73301576D01*
X181433128Y-73215857D01*
X181312053Y-73138047D01*
X181306478Y-73136410D01*
X181177367Y-73098499D01*
X181156524Y-73086132D01*
X174297913Y-66227520D01*
X174206589Y-66174793D01*
X174206587Y-66174792D01*
X174104730Y-66147500D01*
X174104727Y-66147500D01*
X164071500Y-66147500D01*
X164036852Y-66133148D01*
X164022500Y-66098500D01*
X164022500Y-65778255D01*
X164022500Y-65778252D01*
X164010867Y-65719769D01*
X163972000Y-65661601D01*
X163966552Y-65653447D01*
X163926795Y-65626882D01*
X163900231Y-65609133D01*
X163841748Y-65597500D01*
X162802252Y-65597500D01*
X162743769Y-65609133D01*
X162699223Y-65638898D01*
X162662441Y-65646214D01*
X162644777Y-65638898D01*
X162635646Y-65632797D01*
X162600231Y-65609133D01*
X162541748Y-65597500D01*
X162541745Y-65597500D01*
X162471500Y-65597500D01*
X162436852Y-65583148D01*
X162422500Y-65548500D01*
X162422500Y-63597997D01*
X180596353Y-63597997D01*
X180596353Y-63598002D01*
X180616833Y-63740454D01*
X180641638Y-63794768D01*
X180676623Y-63871373D01*
X180676624Y-63871374D01*
X180676625Y-63871376D01*
X180763680Y-63971843D01*
X180770872Y-63980143D01*
X180838477Y-64023590D01*
X180890119Y-64056778D01*
X180911508Y-64087584D01*
X180904850Y-64124491D01*
X180890119Y-64139222D01*
X180770871Y-64215857D01*
X180676625Y-64324623D01*
X180676624Y-64324625D01*
X180616833Y-64455545D01*
X180596353Y-64597997D01*
X180596353Y-64598002D01*
X180616833Y-64740454D01*
X180630327Y-64770000D01*
X180676623Y-64871373D01*
X180676624Y-64871374D01*
X180676625Y-64871376D01*
X180770872Y-64980144D01*
X180770874Y-64980146D01*
X180838769Y-65023779D01*
X180860158Y-65054584D01*
X180853499Y-65091491D01*
X180838769Y-65106221D01*
X180770874Y-65149853D01*
X180770872Y-65149855D01*
X180676625Y-65258623D01*
X180676624Y-65258625D01*
X180616833Y-65389545D01*
X180596353Y-65531997D01*
X180596353Y-65532002D01*
X180616833Y-65674454D01*
X180648935Y-65744746D01*
X180676623Y-65805373D01*
X180676624Y-65805374D01*
X180676625Y-65805376D01*
X180770871Y-65914142D01*
X180770872Y-65914143D01*
X180891947Y-65991953D01*
X181005603Y-66025325D01*
X181034804Y-66048857D01*
X181038813Y-66086145D01*
X181015281Y-66115346D01*
X181005603Y-66119355D01*
X180941949Y-66138046D01*
X180820871Y-66215857D01*
X180726625Y-66324623D01*
X180726624Y-66324625D01*
X180666833Y-66455545D01*
X180646353Y-66597997D01*
X180646353Y-66598002D01*
X180666833Y-66740454D01*
X180672814Y-66753550D01*
X180726623Y-66871373D01*
X180726624Y-66871374D01*
X180726625Y-66871376D01*
X180782659Y-66936043D01*
X180820872Y-66980143D01*
X180941947Y-67057953D01*
X181076630Y-67097499D01*
X181097473Y-67109866D01*
X189710173Y-75722565D01*
X189724525Y-75757213D01*
X189724525Y-90101755D01*
X189751817Y-90203612D01*
X189751818Y-90203614D01*
X189804545Y-90294938D01*
X198903137Y-99393529D01*
X198917489Y-99428177D01*
X198915379Y-99442401D01*
X198862700Y-99616063D01*
X198862700Y-99616065D01*
X198842417Y-99821999D01*
X198842417Y-99822000D01*
X198862700Y-100027934D01*
X198862700Y-100027935D01*
X198877280Y-100076000D01*
X198922768Y-100225954D01*
X199020315Y-100408450D01*
X199151590Y-100568410D01*
X199311550Y-100699685D01*
X199494046Y-100797232D01*
X199692066Y-100857300D01*
X199898000Y-100877583D01*
X200103934Y-100857300D01*
X200301954Y-100797232D01*
X200484450Y-100699685D01*
X200644410Y-100568410D01*
X200775685Y-100408450D01*
X200873232Y-100225954D01*
X200933300Y-100027934D01*
X200953583Y-99822000D01*
X200933300Y-99616066D01*
X200873232Y-99418046D01*
X200775685Y-99235550D01*
X200644410Y-99075590D01*
X200484450Y-98944315D01*
X200301954Y-98846768D01*
X200103934Y-98786700D01*
X199898000Y-98766417D01*
X199692065Y-98786700D01*
X199692063Y-98786700D01*
X199518401Y-98839379D01*
X199481078Y-98835703D01*
X199469529Y-98827137D01*
X190539877Y-89897484D01*
X190525525Y-89862836D01*
X190525525Y-88594213D01*
X190539877Y-88559565D01*
X190574525Y-88545213D01*
X190609173Y-88559565D01*
X198903137Y-96853529D01*
X198917489Y-96888177D01*
X198915379Y-96902401D01*
X198862700Y-97076063D01*
X198862700Y-97076065D01*
X198842417Y-97281999D01*
X198842417Y-97282000D01*
X198862700Y-97487934D01*
X198862700Y-97487935D01*
X198877280Y-97536000D01*
X198922768Y-97685954D01*
X199020315Y-97868450D01*
X199151590Y-98028410D01*
X199311550Y-98159685D01*
X199494046Y-98257232D01*
X199692066Y-98317300D01*
X199898000Y-98337583D01*
X200103934Y-98317300D01*
X200301954Y-98257232D01*
X200484450Y-98159685D01*
X200644410Y-98028410D01*
X200775685Y-97868450D01*
X200873232Y-97685954D01*
X200933300Y-97487934D01*
X200953583Y-97282000D01*
X200933300Y-97076066D01*
X200873232Y-96878046D01*
X200775685Y-96695550D01*
X200644410Y-96535590D01*
X200484450Y-96404315D01*
X200301954Y-96306768D01*
X200103934Y-96246700D01*
X199898000Y-96226417D01*
X199692065Y-96246700D01*
X199692063Y-96246700D01*
X199518401Y-96299379D01*
X199481078Y-96295703D01*
X199469529Y-96287137D01*
X197799391Y-94616999D01*
X198804870Y-94616999D01*
X198804870Y-94617000D01*
X199413856Y-94617000D01*
X199398000Y-94676174D01*
X199398000Y-94807826D01*
X199413856Y-94867000D01*
X198804870Y-94867000D01*
X198812096Y-94944986D01*
X198812098Y-94944995D01*
X198867883Y-95141063D01*
X198867884Y-95141064D01*
X198958752Y-95323553D01*
X198958755Y-95323557D01*
X199081604Y-95486237D01*
X199081607Y-95486240D01*
X199232257Y-95623576D01*
X199405590Y-95730900D01*
X199595674Y-95804538D01*
X199773000Y-95837686D01*
X199773000Y-95226144D01*
X199832174Y-95242000D01*
X199963826Y-95242000D01*
X200023000Y-95226144D01*
X200023000Y-95837685D01*
X200200325Y-95804538D01*
X200390409Y-95730900D01*
X200563742Y-95623576D01*
X200714392Y-95486240D01*
X200714395Y-95486237D01*
X200837244Y-95323557D01*
X200837247Y-95323553D01*
X200928115Y-95141064D01*
X200928116Y-95141063D01*
X200983901Y-94944995D01*
X200983903Y-94944986D01*
X200991129Y-94867000D01*
X200382144Y-94867000D01*
X200398000Y-94807826D01*
X200398000Y-94676174D01*
X200382144Y-94617000D01*
X200991130Y-94617000D01*
X200991129Y-94616999D01*
X200983903Y-94539013D01*
X200983901Y-94539004D01*
X200928116Y-94342936D01*
X200928115Y-94342935D01*
X200837247Y-94160446D01*
X200837244Y-94160442D01*
X200714395Y-93997762D01*
X200714392Y-93997759D01*
X200563742Y-93860423D01*
X200390409Y-93753099D01*
X200200324Y-93679460D01*
X200023000Y-93646312D01*
X200023000Y-94257855D01*
X199963826Y-94242000D01*
X199832174Y-94242000D01*
X199773000Y-94257855D01*
X199773000Y-93646312D01*
X199595675Y-93679460D01*
X199405590Y-93753099D01*
X199232257Y-93860423D01*
X199081607Y-93997759D01*
X199081604Y-93997762D01*
X198958755Y-94160442D01*
X198958752Y-94160446D01*
X198867884Y-94342935D01*
X198867883Y-94342936D01*
X198812098Y-94539004D01*
X198812096Y-94539013D01*
X198804870Y-94616999D01*
X197799391Y-94616999D01*
X191139877Y-87957484D01*
X191125525Y-87922836D01*
X191125525Y-86146213D01*
X191139877Y-86111565D01*
X191174525Y-86097213D01*
X191209173Y-86111565D01*
X197543804Y-92446196D01*
X197543809Y-92446202D01*
X197545520Y-92447913D01*
X197620087Y-92522480D01*
X197622190Y-92523694D01*
X197677129Y-92555413D01*
X197711410Y-92575206D01*
X197711412Y-92575206D01*
X197711413Y-92575207D01*
X197745366Y-92584305D01*
X197813271Y-92602501D01*
X197813273Y-92602501D01*
X197921724Y-92602501D01*
X197921740Y-92602500D01*
X198891553Y-92602500D01*
X198926201Y-92616852D01*
X198934764Y-92628397D01*
X199020315Y-92788450D01*
X199151590Y-92948410D01*
X199311550Y-93079685D01*
X199494046Y-93177232D01*
X199692066Y-93237300D01*
X199898000Y-93257583D01*
X200103934Y-93237300D01*
X200301954Y-93177232D01*
X200484450Y-93079685D01*
X200644410Y-92948410D01*
X200775685Y-92788450D01*
X200873232Y-92605954D01*
X200933300Y-92407934D01*
X200953583Y-92202000D01*
X200933300Y-91996066D01*
X200873232Y-91798046D01*
X200775685Y-91615550D01*
X200644410Y-91455590D01*
X200484450Y-91324315D01*
X200301954Y-91226768D01*
X200103934Y-91166700D01*
X199898000Y-91146417D01*
X199692065Y-91166700D01*
X199692064Y-91166700D01*
X199494043Y-91226769D01*
X199311548Y-91324316D01*
X199151590Y-91455590D01*
X199020316Y-91615548D01*
X199020315Y-91615550D01*
X198934765Y-91775600D01*
X198905777Y-91799390D01*
X198891553Y-91801500D01*
X198052188Y-91801500D01*
X198017540Y-91787148D01*
X196376540Y-90146148D01*
X196362188Y-90111500D01*
X196376540Y-90076852D01*
X196411188Y-90062500D01*
X198798500Y-90062500D01*
X198833148Y-90076852D01*
X198847500Y-90111500D01*
X198847500Y-90531748D01*
X198859133Y-90590231D01*
X198876882Y-90616795D01*
X198903447Y-90656552D01*
X198930012Y-90674301D01*
X198969769Y-90700867D01*
X199028252Y-90712500D01*
X199028255Y-90712500D01*
X200767745Y-90712500D01*
X200767748Y-90712500D01*
X200826231Y-90700867D01*
X200892552Y-90656552D01*
X200936867Y-90590231D01*
X200948500Y-90531748D01*
X200948500Y-88792252D01*
X200936867Y-88733769D01*
X200910301Y-88694012D01*
X200892552Y-88667447D01*
X200852795Y-88640882D01*
X200826231Y-88623133D01*
X200767748Y-88611500D01*
X199028252Y-88611500D01*
X198969769Y-88623133D01*
X198903447Y-88667447D01*
X198859133Y-88733769D01*
X198847500Y-88792252D01*
X198847500Y-88792255D01*
X198847500Y-89212500D01*
X198833148Y-89247148D01*
X198798500Y-89261500D01*
X196528189Y-89261500D01*
X196493541Y-89247148D01*
X192339877Y-85093484D01*
X192325525Y-85058836D01*
X192325525Y-83325999D01*
X196696680Y-83325999D01*
X196696681Y-83326000D01*
X197159030Y-83326000D01*
X197137000Y-83408213D01*
X197137000Y-83493787D01*
X197159030Y-83576000D01*
X196696681Y-83576000D01*
X196716780Y-83677049D01*
X196716785Y-83677066D01*
X196775202Y-83818096D01*
X196860017Y-83945033D01*
X196967966Y-84052982D01*
X197094903Y-84137797D01*
X197235933Y-84196214D01*
X197235952Y-84196219D01*
X197385663Y-84225999D01*
X197385669Y-84226000D01*
X197437000Y-84226000D01*
X197437000Y-83776000D01*
X197687000Y-83776000D01*
X197687000Y-84226000D01*
X197738331Y-84226000D01*
X197738336Y-84225999D01*
X197888047Y-84196219D01*
X197888066Y-84196214D01*
X198029096Y-84137797D01*
X198156033Y-84052982D01*
X198263982Y-83945033D01*
X198348797Y-83818096D01*
X198407214Y-83677066D01*
X198407219Y-83677049D01*
X198427319Y-83576000D01*
X197964970Y-83576000D01*
X197987000Y-83493787D01*
X197987000Y-83408213D01*
X197964970Y-83326000D01*
X198427319Y-83326000D01*
X198427319Y-83325999D01*
X198407219Y-83224950D01*
X198407214Y-83224933D01*
X198348797Y-83083903D01*
X198263982Y-82956966D01*
X198156033Y-82849017D01*
X198029096Y-82764202D01*
X197888066Y-82705785D01*
X197888047Y-82705780D01*
X197738336Y-82676000D01*
X197687000Y-82676000D01*
X197687000Y-83126000D01*
X197437000Y-83126000D01*
X197437000Y-82676000D01*
X197385663Y-82676000D01*
X197235952Y-82705780D01*
X197235933Y-82705785D01*
X197094903Y-82764202D01*
X196967966Y-82849017D01*
X196860017Y-82956966D01*
X196775202Y-83083903D01*
X196716785Y-83224933D01*
X196716780Y-83224950D01*
X196696680Y-83325999D01*
X192325525Y-83325999D01*
X192325525Y-82521180D01*
X192339877Y-82486532D01*
X192374525Y-82472180D01*
X192401015Y-82479958D01*
X192414972Y-82488928D01*
X192459332Y-82501953D01*
X192553059Y-82529474D01*
X192553062Y-82529474D01*
X192553064Y-82529475D01*
X192553065Y-82529475D01*
X192696985Y-82529475D01*
X192696986Y-82529475D01*
X192696988Y-82529474D01*
X192696990Y-82529474D01*
X192719820Y-82522770D01*
X192835078Y-82488928D01*
X192956153Y-82411118D01*
X193050402Y-82302348D01*
X193110190Y-82171432D01*
X193110190Y-82171430D01*
X193110191Y-82171429D01*
X193118150Y-82116064D01*
X193132001Y-82088390D01*
X193682528Y-81537864D01*
X193703367Y-81525499D01*
X193838053Y-81485953D01*
X193959128Y-81408143D01*
X194053377Y-81299373D01*
X194113165Y-81168457D01*
X194113165Y-81168455D01*
X194113166Y-81168454D01*
X194133647Y-81026002D01*
X194133647Y-81025997D01*
X194113166Y-80883545D01*
X194108751Y-80873879D01*
X194053377Y-80752627D01*
X193959128Y-80643857D01*
X193838053Y-80566047D01*
X193838050Y-80566046D01*
X193699965Y-80525500D01*
X193699961Y-80525500D01*
X193556039Y-80525500D01*
X193556034Y-80525500D01*
X193417949Y-80566046D01*
X193296871Y-80643857D01*
X193202625Y-80752623D01*
X193202624Y-80752625D01*
X193142835Y-80883542D01*
X193134874Y-80938911D01*
X193121021Y-80966585D01*
X192570498Y-81517108D01*
X192549655Y-81529475D01*
X192414972Y-81569021D01*
X192401015Y-81577991D01*
X192364108Y-81584649D01*
X192333303Y-81563259D01*
X192325525Y-81536769D01*
X192325525Y-78475999D01*
X196696680Y-78475999D01*
X196696681Y-78476000D01*
X197159030Y-78476000D01*
X197137000Y-78558213D01*
X197137000Y-78643787D01*
X197159030Y-78726000D01*
X196696681Y-78726000D01*
X196716780Y-78827049D01*
X196716785Y-78827066D01*
X196775202Y-78968096D01*
X196860017Y-79095033D01*
X196967966Y-79202982D01*
X197094903Y-79287797D01*
X197235933Y-79346214D01*
X197235952Y-79346219D01*
X197385663Y-79375999D01*
X197385669Y-79376000D01*
X197437000Y-79376000D01*
X197437000Y-78926000D01*
X197687000Y-78926000D01*
X197687000Y-79376000D01*
X197738331Y-79376000D01*
X197738336Y-79375999D01*
X197888047Y-79346219D01*
X197888066Y-79346214D01*
X198029096Y-79287797D01*
X198156033Y-79202982D01*
X198263982Y-79095033D01*
X198348797Y-78968096D01*
X198407214Y-78827066D01*
X198407219Y-78827049D01*
X198427319Y-78726000D01*
X197964970Y-78726000D01*
X197987000Y-78643787D01*
X197987000Y-78558213D01*
X197964970Y-78476000D01*
X198427319Y-78476000D01*
X198427319Y-78475999D01*
X198407219Y-78374950D01*
X198407214Y-78374933D01*
X198348797Y-78233903D01*
X198263982Y-78106966D01*
X198156033Y-77999017D01*
X198029096Y-77914202D01*
X197888066Y-77855785D01*
X197888047Y-77855780D01*
X197738336Y-77826000D01*
X197687000Y-77826000D01*
X197687000Y-78276000D01*
X197437000Y-78276000D01*
X197437000Y-77826000D01*
X197385663Y-77826000D01*
X197235952Y-77855780D01*
X197235933Y-77855785D01*
X197094903Y-77914202D01*
X196967966Y-77999017D01*
X196860017Y-78106966D01*
X196775202Y-78233903D01*
X196716785Y-78374933D01*
X196716780Y-78374950D01*
X196696680Y-78475999D01*
X192325525Y-78475999D01*
X192325525Y-74477708D01*
X192325526Y-74477695D01*
X192325526Y-74368295D01*
X192298233Y-74266440D01*
X192298231Y-74266434D01*
X192258479Y-74197584D01*
X192258478Y-74197583D01*
X192245507Y-74175115D01*
X192245502Y-74175109D01*
X192169232Y-74098839D01*
X192169221Y-74098829D01*
X190365391Y-72294999D01*
X198829870Y-72294999D01*
X198829870Y-72295000D01*
X199438856Y-72295000D01*
X199423000Y-72354174D01*
X199423000Y-72485826D01*
X199438856Y-72545000D01*
X198829870Y-72545000D01*
X198837096Y-72622986D01*
X198837098Y-72622995D01*
X198892883Y-72819063D01*
X198892884Y-72819064D01*
X198983752Y-73001553D01*
X198983755Y-73001557D01*
X199106604Y-73164237D01*
X199106607Y-73164240D01*
X199257257Y-73301576D01*
X199430590Y-73408900D01*
X199620674Y-73482538D01*
X199798000Y-73515686D01*
X199798000Y-72904144D01*
X199857174Y-72920000D01*
X199988826Y-72920000D01*
X200048000Y-72904144D01*
X200048000Y-73515685D01*
X200225325Y-73482538D01*
X200415409Y-73408900D01*
X200588742Y-73301576D01*
X200739392Y-73164240D01*
X200739395Y-73164237D01*
X200862244Y-73001557D01*
X200862247Y-73001553D01*
X200953115Y-72819064D01*
X200953116Y-72819063D01*
X201008901Y-72622995D01*
X201008903Y-72622986D01*
X201016129Y-72545000D01*
X200407144Y-72545000D01*
X200423000Y-72485826D01*
X200423000Y-72354174D01*
X200407144Y-72295000D01*
X201016130Y-72295000D01*
X201016129Y-72294999D01*
X201008903Y-72217013D01*
X201008901Y-72217004D01*
X200953116Y-72020936D01*
X200953115Y-72020935D01*
X200862247Y-71838446D01*
X200862244Y-71838442D01*
X200739395Y-71675762D01*
X200739392Y-71675759D01*
X200588742Y-71538423D01*
X200415409Y-71431099D01*
X200225324Y-71357460D01*
X200048000Y-71324312D01*
X200048000Y-71935855D01*
X199988826Y-71920000D01*
X199857174Y-71920000D01*
X199798000Y-71935855D01*
X199798000Y-71324312D01*
X199620675Y-71357460D01*
X199430590Y-71431099D01*
X199257257Y-71538423D01*
X199106607Y-71675759D01*
X199106604Y-71675762D01*
X198983755Y-71838442D01*
X198983752Y-71838446D01*
X198892884Y-72020935D01*
X198892883Y-72020936D01*
X198837098Y-72217004D01*
X198837096Y-72217013D01*
X198829870Y-72294999D01*
X190365391Y-72294999D01*
X187950392Y-69880000D01*
X198867417Y-69880000D01*
X198887700Y-70085934D01*
X198947768Y-70283954D01*
X199045315Y-70466450D01*
X199176590Y-70626410D01*
X199336550Y-70757685D01*
X199519046Y-70855232D01*
X199717066Y-70915300D01*
X199923000Y-70935583D01*
X200128934Y-70915300D01*
X200326954Y-70855232D01*
X200509450Y-70757685D01*
X200669410Y-70626410D01*
X200800685Y-70466450D01*
X200898232Y-70283954D01*
X200958300Y-70085934D01*
X200978583Y-69880000D01*
X200958300Y-69674066D01*
X200898232Y-69476046D01*
X200800685Y-69293550D01*
X200669410Y-69133590D01*
X200509450Y-69002315D01*
X200326954Y-68904768D01*
X200128934Y-68844700D01*
X199923000Y-68824417D01*
X199717065Y-68844700D01*
X199717064Y-68844700D01*
X199519043Y-68904769D01*
X199336548Y-69002316D01*
X199176590Y-69133590D01*
X199045316Y-69293548D01*
X198947769Y-69476043D01*
X198887700Y-69674064D01*
X198887700Y-69674065D01*
X198887700Y-69674066D01*
X198867417Y-69880000D01*
X187950392Y-69880000D01*
X185410393Y-67340000D01*
X198867417Y-67340000D01*
X198887700Y-67545934D01*
X198947768Y-67743954D01*
X199045315Y-67926450D01*
X199176590Y-68086410D01*
X199336550Y-68217685D01*
X199519046Y-68315232D01*
X199717066Y-68375300D01*
X199923000Y-68395583D01*
X200128934Y-68375300D01*
X200326954Y-68315232D01*
X200509450Y-68217685D01*
X200669410Y-68086410D01*
X200800685Y-67926450D01*
X200898232Y-67743954D01*
X200958300Y-67545934D01*
X200978583Y-67340000D01*
X200958300Y-67134066D01*
X200898232Y-66936046D01*
X200800685Y-66753550D01*
X200669410Y-66593590D01*
X200509450Y-66462315D01*
X200326954Y-66364768D01*
X200128934Y-66304700D01*
X199923000Y-66284417D01*
X199717065Y-66304700D01*
X199717064Y-66304700D01*
X199544616Y-66357011D01*
X199534656Y-66360033D01*
X199519043Y-66364769D01*
X199336548Y-66462316D01*
X199176590Y-66593590D01*
X199045316Y-66753548D01*
X198947769Y-66936043D01*
X198887700Y-67134064D01*
X198887700Y-67134065D01*
X198887700Y-67134066D01*
X198867417Y-67340000D01*
X185410393Y-67340000D01*
X182870392Y-64799999D01*
X198867417Y-64799999D01*
X198867417Y-64800000D01*
X198887700Y-65005934D01*
X198887700Y-65005935D01*
X198905617Y-65065000D01*
X198947768Y-65203954D01*
X199045315Y-65386450D01*
X199176590Y-65546410D01*
X199336550Y-65677685D01*
X199519046Y-65775232D01*
X199717066Y-65835300D01*
X199923000Y-65855583D01*
X200128934Y-65835300D01*
X200326954Y-65775232D01*
X200509450Y-65677685D01*
X200669410Y-65546410D01*
X200800685Y-65386450D01*
X200898232Y-65203954D01*
X200958300Y-65005934D01*
X200978583Y-64800000D01*
X200958300Y-64594066D01*
X200898232Y-64396046D01*
X200800685Y-64213550D01*
X200669410Y-64053590D01*
X200509450Y-63922315D01*
X200326954Y-63824768D01*
X200128934Y-63764700D01*
X199923000Y-63744417D01*
X199717065Y-63764700D01*
X199717064Y-63764700D01*
X199519043Y-63824769D01*
X199336548Y-63922316D01*
X199176590Y-64053590D01*
X199045316Y-64213548D01*
X198947769Y-64396043D01*
X198887700Y-64594064D01*
X198887700Y-64594065D01*
X198867417Y-64799999D01*
X182870392Y-64799999D01*
X181608978Y-63538585D01*
X181595125Y-63510909D01*
X181587166Y-63455545D01*
X181582751Y-63445879D01*
X181527377Y-63324627D01*
X181506632Y-63300686D01*
X181433128Y-63215857D01*
X181398962Y-63193900D01*
X181312053Y-63138047D01*
X181312050Y-63138046D01*
X181173965Y-63097500D01*
X181173961Y-63097500D01*
X181030039Y-63097500D01*
X181030034Y-63097500D01*
X180891949Y-63138046D01*
X180770871Y-63215857D01*
X180676625Y-63324623D01*
X180676624Y-63324625D01*
X180616833Y-63455545D01*
X180596353Y-63597997D01*
X162422500Y-63597997D01*
X162422500Y-63329500D01*
X162436852Y-63294852D01*
X162471500Y-63280500D01*
X162921745Y-63280500D01*
X162921748Y-63280500D01*
X162980231Y-63268867D01*
X163046552Y-63224552D01*
X163090867Y-63158231D01*
X163102500Y-63099748D01*
X163102500Y-61537767D01*
X163116852Y-61503119D01*
X163151500Y-61488767D01*
X163186148Y-61503119D01*
X163882619Y-62199590D01*
X163896971Y-62234238D01*
X163892543Y-62254593D01*
X163852833Y-62341545D01*
X163832353Y-62483997D01*
X163832353Y-62484002D01*
X163852833Y-62626454D01*
X163873143Y-62670925D01*
X163912623Y-62757373D01*
X163912624Y-62757374D01*
X163912625Y-62757376D01*
X163959570Y-62811553D01*
X164006872Y-62866143D01*
X164127947Y-62943953D01*
X164204785Y-62966514D01*
X164266034Y-62984499D01*
X164266037Y-62984499D01*
X164266039Y-62984500D01*
X164266040Y-62984500D01*
X164409960Y-62984500D01*
X164409961Y-62984500D01*
X164409963Y-62984499D01*
X164409965Y-62984499D01*
X164437517Y-62976409D01*
X164548053Y-62943953D01*
X164669128Y-62866143D01*
X164763377Y-62757373D01*
X164823165Y-62626457D01*
X164823165Y-62626455D01*
X164823166Y-62626454D01*
X164843647Y-62484002D01*
X164843647Y-62483997D01*
X164823166Y-62341545D01*
X164817893Y-62330000D01*
X164763377Y-62210627D01*
X164758501Y-62205000D01*
X164669128Y-62101857D01*
X164577568Y-62043015D01*
X164569416Y-62036445D01*
X164515471Y-61982500D01*
X164501119Y-61947852D01*
X164515471Y-61913204D01*
X164536308Y-61900839D01*
X164591318Y-61884688D01*
X164712393Y-61806878D01*
X164806642Y-61698108D01*
X164866430Y-61567192D01*
X164866430Y-61567190D01*
X164866431Y-61567189D01*
X164886912Y-61424737D01*
X164886912Y-61424732D01*
X164874047Y-61335252D01*
X185385500Y-61335252D01*
X185385500Y-63074748D01*
X185397133Y-63133231D01*
X185413837Y-63158230D01*
X185441447Y-63199552D01*
X185465850Y-63215857D01*
X185507769Y-63243867D01*
X185566252Y-63255500D01*
X185566255Y-63255500D01*
X187305745Y-63255500D01*
X187305748Y-63255500D01*
X187364231Y-63243867D01*
X187430552Y-63199552D01*
X187474867Y-63133231D01*
X187486500Y-63074748D01*
X187486500Y-62204999D01*
X187920417Y-62204999D01*
X187920417Y-62205000D01*
X187940700Y-62410934D01*
X187940700Y-62410935D01*
X187948284Y-62435935D01*
X188000768Y-62608954D01*
X188098315Y-62791450D01*
X188229590Y-62951410D01*
X188389550Y-63082685D01*
X188572046Y-63180232D01*
X188770066Y-63240300D01*
X188976000Y-63260583D01*
X189181934Y-63240300D01*
X189379954Y-63180232D01*
X189562450Y-63082685D01*
X189722410Y-62951410D01*
X189853685Y-62791450D01*
X189951232Y-62608954D01*
X190011300Y-62410934D01*
X190031583Y-62205000D01*
X190031583Y-62204999D01*
X190460417Y-62204999D01*
X190460417Y-62205000D01*
X190480700Y-62410934D01*
X190480700Y-62410935D01*
X190488284Y-62435935D01*
X190540768Y-62608954D01*
X190638315Y-62791450D01*
X190769590Y-62951410D01*
X190929550Y-63082685D01*
X191112046Y-63180232D01*
X191310066Y-63240300D01*
X191516000Y-63260583D01*
X191721934Y-63240300D01*
X191919954Y-63180232D01*
X192102450Y-63082685D01*
X192262410Y-62951410D01*
X192393685Y-62791450D01*
X192491232Y-62608954D01*
X192551300Y-62410934D01*
X192571583Y-62205000D01*
X192559271Y-62079999D01*
X192962870Y-62079999D01*
X192962870Y-62080000D01*
X193571856Y-62080000D01*
X193556000Y-62139174D01*
X193556000Y-62270826D01*
X193571856Y-62330000D01*
X192962870Y-62330000D01*
X192970096Y-62407986D01*
X192970098Y-62407995D01*
X193025883Y-62604063D01*
X193025884Y-62604064D01*
X193116752Y-62786553D01*
X193116755Y-62786557D01*
X193239604Y-62949237D01*
X193239607Y-62949240D01*
X193390257Y-63086576D01*
X193563590Y-63193900D01*
X193753674Y-63267538D01*
X193931000Y-63300686D01*
X193931000Y-62689144D01*
X193990174Y-62705000D01*
X194121826Y-62705000D01*
X194181000Y-62689144D01*
X194181000Y-63300685D01*
X194358325Y-63267538D01*
X194548409Y-63193900D01*
X194721742Y-63086576D01*
X194872392Y-62949240D01*
X194872395Y-62949237D01*
X194995244Y-62786557D01*
X194995247Y-62786553D01*
X195086115Y-62604064D01*
X195086116Y-62604063D01*
X195141901Y-62407995D01*
X195141903Y-62407986D01*
X195149129Y-62330000D01*
X194540144Y-62330000D01*
X194556000Y-62270826D01*
X194556000Y-62139174D01*
X194540144Y-62080000D01*
X195149130Y-62080000D01*
X195149129Y-62079999D01*
X195141903Y-62002013D01*
X195141901Y-62002004D01*
X195086116Y-61805936D01*
X195086115Y-61805935D01*
X194995247Y-61623446D01*
X194995244Y-61623442D01*
X194872395Y-61460762D01*
X194872392Y-61460759D01*
X194795050Y-61390252D01*
X198872500Y-61390252D01*
X198872500Y-63129748D01*
X198884133Y-63188231D01*
X198887921Y-63193900D01*
X198928447Y-63254552D01*
X198955012Y-63272301D01*
X198994769Y-63298867D01*
X199053252Y-63310500D01*
X199053255Y-63310500D01*
X200792745Y-63310500D01*
X200792748Y-63310500D01*
X200851231Y-63298867D01*
X200917552Y-63254552D01*
X200961867Y-63188231D01*
X200973500Y-63129748D01*
X200973500Y-61390252D01*
X200961867Y-61331769D01*
X200923836Y-61274852D01*
X200917552Y-61265447D01*
X200877795Y-61238882D01*
X200851231Y-61221133D01*
X200792748Y-61209500D01*
X199053252Y-61209500D01*
X198994769Y-61221133D01*
X198928447Y-61265447D01*
X198889710Y-61323423D01*
X198884133Y-61331769D01*
X198872500Y-61390252D01*
X194795050Y-61390252D01*
X194721742Y-61323423D01*
X194548409Y-61216099D01*
X194358324Y-61142460D01*
X194181000Y-61109312D01*
X194181000Y-61720855D01*
X194121826Y-61705000D01*
X193990174Y-61705000D01*
X193931000Y-61720855D01*
X193931000Y-61109312D01*
X193753675Y-61142460D01*
X193563590Y-61216099D01*
X193390257Y-61323423D01*
X193239607Y-61460759D01*
X193239604Y-61460762D01*
X193116755Y-61623442D01*
X193116752Y-61623446D01*
X193025884Y-61805935D01*
X193025883Y-61805936D01*
X192970098Y-62002004D01*
X192970096Y-62002013D01*
X192962870Y-62079999D01*
X192559271Y-62079999D01*
X192551300Y-61999066D01*
X192491232Y-61801046D01*
X192393685Y-61618550D01*
X192262410Y-61458590D01*
X192102450Y-61327315D01*
X191943524Y-61242367D01*
X191919956Y-61229769D01*
X191919955Y-61229768D01*
X191919954Y-61229768D01*
X191721934Y-61169700D01*
X191516000Y-61149417D01*
X191310065Y-61169700D01*
X191310064Y-61169700D01*
X191112043Y-61229769D01*
X190929548Y-61327316D01*
X190769590Y-61458590D01*
X190638316Y-61618548D01*
X190540769Y-61801043D01*
X190480700Y-61999064D01*
X190480700Y-61999065D01*
X190460417Y-62204999D01*
X190031583Y-62204999D01*
X190011300Y-61999066D01*
X189951232Y-61801046D01*
X189853685Y-61618550D01*
X189722410Y-61458590D01*
X189562450Y-61327315D01*
X189403524Y-61242367D01*
X189379956Y-61229769D01*
X189379955Y-61229768D01*
X189379954Y-61229768D01*
X189181934Y-61169700D01*
X188976000Y-61149417D01*
X188770065Y-61169700D01*
X188770064Y-61169700D01*
X188572043Y-61229769D01*
X188389548Y-61327316D01*
X188229590Y-61458590D01*
X188098316Y-61618548D01*
X188000769Y-61801043D01*
X187940700Y-61999064D01*
X187940700Y-61999065D01*
X187920417Y-62204999D01*
X187486500Y-62204999D01*
X187486500Y-61335252D01*
X187474867Y-61276769D01*
X187443462Y-61229769D01*
X187430552Y-61210447D01*
X187369569Y-61169700D01*
X187364231Y-61166133D01*
X187305748Y-61154500D01*
X185566252Y-61154500D01*
X185507769Y-61166133D01*
X185441447Y-61210447D01*
X185398414Y-61274852D01*
X185397133Y-61276769D01*
X185385500Y-61335252D01*
X164874047Y-61335252D01*
X164866431Y-61282280D01*
X164845043Y-61235448D01*
X164806642Y-61151362D01*
X164798928Y-61142460D01*
X164712393Y-61042592D01*
X164591318Y-60964782D01*
X164591315Y-60964781D01*
X164453230Y-60924235D01*
X164453226Y-60924235D01*
X164326032Y-60924235D01*
X164291384Y-60909883D01*
X163763149Y-60381648D01*
X163748797Y-60347000D01*
X163763149Y-60312352D01*
X163797797Y-60298000D01*
X183966000Y-60298000D01*
X183966000Y-59731500D01*
X183980352Y-59696852D01*
X184015000Y-59682500D01*
X201380500Y-59682500D01*
X201415148Y-59696852D01*
X201429500Y-59731500D01*
X201429500Y-77035567D01*
X201415148Y-77070215D01*
X201380500Y-77084567D01*
X201345852Y-77070215D01*
X201339758Y-77062790D01*
X201258401Y-76941030D01*
X201146969Y-76829598D01*
X201015936Y-76742046D01*
X200870358Y-76681745D01*
X200870348Y-76681742D01*
X200715790Y-76651000D01*
X200412000Y-76651000D01*
X200412000Y-77201000D01*
X200162000Y-77201000D01*
X200162000Y-76651000D01*
X199858210Y-76651000D01*
X199703651Y-76681742D01*
X199703641Y-76681745D01*
X199558063Y-76742046D01*
X199427030Y-76829598D01*
X199315598Y-76941030D01*
X199228046Y-77072063D01*
X199167745Y-77217641D01*
X199167740Y-77217660D01*
X199146190Y-77325999D01*
X199146191Y-77326000D01*
X199718178Y-77326000D01*
X199687000Y-77401272D01*
X199687000Y-77500728D01*
X199718178Y-77576000D01*
X199146190Y-77576000D01*
X199167740Y-77684339D01*
X199167745Y-77684358D01*
X199228046Y-77829936D01*
X199315598Y-77960969D01*
X199427030Y-78072401D01*
X199558063Y-78159953D01*
X199703641Y-78220254D01*
X199703651Y-78220257D01*
X199858210Y-78251000D01*
X200162000Y-78251000D01*
X200162000Y-77701000D01*
X200412000Y-77701000D01*
X200412000Y-78251000D01*
X200715790Y-78251000D01*
X200870348Y-78220257D01*
X200870358Y-78220254D01*
X201015936Y-78159953D01*
X201146969Y-78072401D01*
X201258401Y-77960969D01*
X201339758Y-77839209D01*
X201370940Y-77818374D01*
X201407723Y-77825690D01*
X201428558Y-77856872D01*
X201429500Y-77866432D01*
X201429500Y-84185567D01*
X201415148Y-84220215D01*
X201380500Y-84234567D01*
X201345852Y-84220215D01*
X201339758Y-84212790D01*
X201258401Y-84091030D01*
X201146969Y-83979598D01*
X201015936Y-83892046D01*
X200870358Y-83831745D01*
X200870348Y-83831742D01*
X200715790Y-83801000D01*
X200412000Y-83801000D01*
X200412000Y-84351000D01*
X200162000Y-84351000D01*
X200162000Y-83801000D01*
X199858210Y-83801000D01*
X199703651Y-83831742D01*
X199703641Y-83831745D01*
X199558063Y-83892046D01*
X199427030Y-83979598D01*
X199315598Y-84091030D01*
X199228046Y-84222063D01*
X199167745Y-84367641D01*
X199167740Y-84367660D01*
X199146190Y-84475999D01*
X199146191Y-84476000D01*
X199718178Y-84476000D01*
X199687000Y-84551272D01*
X199687000Y-84650728D01*
X199718178Y-84726000D01*
X199146190Y-84726000D01*
X199167740Y-84834339D01*
X199167745Y-84834358D01*
X199228046Y-84979936D01*
X199315598Y-85110969D01*
X199427030Y-85222401D01*
X199558063Y-85309953D01*
X199703641Y-85370254D01*
X199703651Y-85370257D01*
X199858210Y-85401000D01*
X200162000Y-85401000D01*
X200162000Y-84851000D01*
X200412000Y-84851000D01*
X200412000Y-85401000D01*
X200715790Y-85401000D01*
X200870348Y-85370257D01*
X200870358Y-85370254D01*
X201015936Y-85309953D01*
X201146969Y-85222401D01*
X201258401Y-85110969D01*
X201339758Y-84989209D01*
X201370940Y-84968374D01*
X201407723Y-84975690D01*
X201428558Y-85006872D01*
X201429500Y-85016432D01*
X201429500Y-103844500D01*
X201415148Y-103879148D01*
X201380500Y-103893500D01*
X142535500Y-103893500D01*
X142500852Y-103879148D01*
X142486500Y-103844500D01*
X142486500Y-101492252D01*
X162261500Y-101492252D01*
X162261500Y-103231748D01*
X162273133Y-103290231D01*
X162290882Y-103316795D01*
X162317447Y-103356552D01*
X162344012Y-103374301D01*
X162383769Y-103400867D01*
X162442252Y-103412500D01*
X162442255Y-103412500D01*
X164181745Y-103412500D01*
X164181748Y-103412500D01*
X164240231Y-103400867D01*
X164306552Y-103356552D01*
X164350867Y-103290231D01*
X164362500Y-103231748D01*
X164362500Y-102362000D01*
X164796417Y-102362000D01*
X164816700Y-102567934D01*
X164876768Y-102765954D01*
X164974315Y-102948450D01*
X165105590Y-103108410D01*
X165265550Y-103239685D01*
X165448046Y-103337232D01*
X165646066Y-103397300D01*
X165852000Y-103417583D01*
X166057934Y-103397300D01*
X166255954Y-103337232D01*
X166438450Y-103239685D01*
X166598410Y-103108410D01*
X166729685Y-102948450D01*
X166827232Y-102765954D01*
X166887300Y-102567934D01*
X166907583Y-102362000D01*
X166887300Y-102156066D01*
X166827232Y-101958046D01*
X166729685Y-101775550D01*
X166598410Y-101615590D01*
X166438450Y-101484315D01*
X166278399Y-101398765D01*
X166254610Y-101369777D01*
X166252500Y-101355553D01*
X166252500Y-87318189D01*
X166266852Y-87283541D01*
X167578817Y-85971576D01*
X168964528Y-84585864D01*
X168985367Y-84573499D01*
X169120053Y-84533953D01*
X169241128Y-84456143D01*
X169335377Y-84347373D01*
X169373428Y-84264052D01*
X169400877Y-84238498D01*
X169438356Y-84239837D01*
X169462571Y-84264052D01*
X169500623Y-84347373D01*
X169513532Y-84362270D01*
X169525500Y-84394358D01*
X169525500Y-100641810D01*
X169511148Y-100676458D01*
X168820468Y-101367137D01*
X168785820Y-101381489D01*
X168771596Y-101379379D01*
X168597935Y-101326700D01*
X168392000Y-101306417D01*
X168186065Y-101326700D01*
X168186064Y-101326700D01*
X167988043Y-101386769D01*
X167805548Y-101484316D01*
X167645590Y-101615590D01*
X167514316Y-101775548D01*
X167416769Y-101958043D01*
X167356700Y-102156064D01*
X167356700Y-102156065D01*
X167348729Y-102237000D01*
X167336417Y-102362000D01*
X167356700Y-102567934D01*
X167416768Y-102765954D01*
X167514315Y-102948450D01*
X167645590Y-103108410D01*
X167805550Y-103239685D01*
X167988046Y-103337232D01*
X168186066Y-103397300D01*
X168392000Y-103417583D01*
X168597934Y-103397300D01*
X168795954Y-103337232D01*
X168978450Y-103239685D01*
X169138410Y-103108410D01*
X169269685Y-102948450D01*
X169367232Y-102765954D01*
X169427300Y-102567934D01*
X169447583Y-102362000D01*
X169427300Y-102156066D01*
X169374620Y-101982401D01*
X169378296Y-101945078D01*
X169386859Y-101933532D01*
X170167878Y-101152512D01*
X170167883Y-101152509D01*
X170171911Y-101148480D01*
X170171913Y-101148480D01*
X170246480Y-101073913D01*
X170299207Y-100982587D01*
X170326501Y-100880727D01*
X170326501Y-100775273D01*
X170326501Y-100772277D01*
X170326500Y-100772259D01*
X170326500Y-84394358D01*
X170338468Y-84362270D01*
X170351377Y-84347373D01*
X170389428Y-84264052D01*
X170416877Y-84238498D01*
X170454356Y-84239837D01*
X170478571Y-84264052D01*
X170516623Y-84347373D01*
X170529532Y-84362270D01*
X170541500Y-84394358D01*
X170541500Y-85003500D01*
X170539830Y-85016183D01*
X170534178Y-85037275D01*
X170531500Y-85047271D01*
X170531500Y-101355553D01*
X170517148Y-101390201D01*
X170505602Y-101398764D01*
X170359492Y-101476862D01*
X170345548Y-101484316D01*
X170185590Y-101615590D01*
X170054316Y-101775548D01*
X169956769Y-101958043D01*
X169896700Y-102156064D01*
X169896700Y-102156065D01*
X169888729Y-102237000D01*
X169876417Y-102362000D01*
X169896700Y-102567934D01*
X169956768Y-102765954D01*
X170054315Y-102948450D01*
X170185590Y-103108410D01*
X170345550Y-103239685D01*
X170528046Y-103337232D01*
X170726066Y-103397300D01*
X170932000Y-103417583D01*
X171137934Y-103397300D01*
X171335954Y-103337232D01*
X171518450Y-103239685D01*
X171678410Y-103108410D01*
X171809685Y-102948450D01*
X171907232Y-102765954D01*
X171967300Y-102567934D01*
X171987583Y-102362000D01*
X171967300Y-102156066D01*
X171907232Y-101958046D01*
X171809685Y-101775550D01*
X171678410Y-101615590D01*
X171518450Y-101484315D01*
X171358399Y-101398765D01*
X171334610Y-101369777D01*
X171332500Y-101355553D01*
X171332500Y-95757997D01*
X171706353Y-95757997D01*
X171706353Y-95758002D01*
X171726833Y-95900454D01*
X171758935Y-95970746D01*
X171786623Y-96031373D01*
X171786624Y-96031374D01*
X171786625Y-96031376D01*
X171880871Y-96140142D01*
X171880872Y-96140143D01*
X172001947Y-96217953D01*
X172078785Y-96240514D01*
X172140034Y-96258499D01*
X172140037Y-96258499D01*
X172140039Y-96258500D01*
X172140040Y-96258500D01*
X172283960Y-96258500D01*
X172283961Y-96258500D01*
X172283963Y-96258499D01*
X172283965Y-96258499D01*
X172306795Y-96251795D01*
X172422053Y-96217953D01*
X172543128Y-96140143D01*
X172637377Y-96031373D01*
X172697165Y-95900457D01*
X172697165Y-95900455D01*
X172697166Y-95900454D01*
X172717647Y-95758002D01*
X172717647Y-95757997D01*
X172697166Y-95615545D01*
X172692751Y-95605879D01*
X172637377Y-95484627D01*
X172543128Y-95375857D01*
X172422053Y-95298047D01*
X172422050Y-95298046D01*
X172283965Y-95257500D01*
X172283961Y-95257500D01*
X172140039Y-95257500D01*
X172140034Y-95257500D01*
X172001949Y-95298046D01*
X171880871Y-95375857D01*
X171786625Y-95484623D01*
X171786624Y-95484625D01*
X171726833Y-95615545D01*
X171706353Y-95757997D01*
X171332500Y-95757997D01*
X171332500Y-85186497D01*
X171334170Y-85173814D01*
X171342500Y-85142728D01*
X171342500Y-84394358D01*
X171354468Y-84362270D01*
X171367377Y-84347373D01*
X171405428Y-84264052D01*
X171432877Y-84238498D01*
X171470356Y-84239837D01*
X171494571Y-84264052D01*
X171532623Y-84347373D01*
X171532624Y-84347374D01*
X171532625Y-84347376D01*
X171573335Y-84394358D01*
X171626872Y-84456143D01*
X171747947Y-84533953D01*
X171882630Y-84573499D01*
X171903473Y-84585866D01*
X173057148Y-85739541D01*
X173071500Y-85774189D01*
X173071500Y-101355553D01*
X173057148Y-101390201D01*
X173045602Y-101398764D01*
X172899492Y-101476862D01*
X172885548Y-101484316D01*
X172725590Y-101615590D01*
X172594316Y-101775548D01*
X172496769Y-101958043D01*
X172436700Y-102156064D01*
X172436700Y-102156065D01*
X172428729Y-102237000D01*
X172416417Y-102362000D01*
X172436700Y-102567934D01*
X172496768Y-102765954D01*
X172594315Y-102948450D01*
X172725590Y-103108410D01*
X172885550Y-103239685D01*
X173068046Y-103337232D01*
X173266066Y-103397300D01*
X173472000Y-103417583D01*
X173677934Y-103397300D01*
X173875954Y-103337232D01*
X174058450Y-103239685D01*
X174218410Y-103108410D01*
X174349685Y-102948450D01*
X174447232Y-102765954D01*
X174507300Y-102567934D01*
X174527583Y-102362000D01*
X174956417Y-102362000D01*
X174976700Y-102567934D01*
X175036768Y-102765954D01*
X175134315Y-102948450D01*
X175265590Y-103108410D01*
X175425550Y-103239685D01*
X175608046Y-103337232D01*
X175806066Y-103397300D01*
X176012000Y-103417583D01*
X176217934Y-103397300D01*
X176415954Y-103337232D01*
X176598450Y-103239685D01*
X176758410Y-103108410D01*
X176889685Y-102948450D01*
X176987232Y-102765954D01*
X177047300Y-102567934D01*
X177067583Y-102362000D01*
X177047300Y-102156066D01*
X176987232Y-101958046D01*
X176889685Y-101775550D01*
X176758410Y-101615590D01*
X176598450Y-101484315D01*
X176415954Y-101386768D01*
X176217934Y-101326700D01*
X176012000Y-101306417D01*
X175806065Y-101326700D01*
X175806064Y-101326700D01*
X175608043Y-101386769D01*
X175425548Y-101484316D01*
X175265590Y-101615590D01*
X175134316Y-101775548D01*
X175036769Y-101958043D01*
X174976700Y-102156064D01*
X174976700Y-102156065D01*
X174968729Y-102237000D01*
X174956417Y-102362000D01*
X174527583Y-102362000D01*
X174507300Y-102156066D01*
X174447232Y-101958046D01*
X174349685Y-101775550D01*
X174218410Y-101615590D01*
X174058450Y-101484315D01*
X173898399Y-101398765D01*
X173874610Y-101369777D01*
X173872500Y-101355553D01*
X173872500Y-85535270D01*
X173872499Y-85535269D01*
X173845207Y-85433414D01*
X173845206Y-85433410D01*
X173792479Y-85342086D01*
X172524390Y-84073997D01*
X175516353Y-84073997D01*
X175516353Y-84074002D01*
X175536833Y-84216454D01*
X175574495Y-84298922D01*
X175596623Y-84347373D01*
X175609532Y-84362270D01*
X175621500Y-84394358D01*
X175621500Y-84634730D01*
X175648792Y-84736587D01*
X175648793Y-84736589D01*
X175701520Y-84827913D01*
X178137148Y-87263541D01*
X178151500Y-87298189D01*
X178151500Y-101355553D01*
X178137148Y-101390201D01*
X178125602Y-101398764D01*
X177979492Y-101476862D01*
X177965548Y-101484316D01*
X177805590Y-101615590D01*
X177674316Y-101775548D01*
X177576769Y-101958043D01*
X177516700Y-102156064D01*
X177516700Y-102156065D01*
X177508729Y-102237000D01*
X177496417Y-102362000D01*
X177516700Y-102567934D01*
X177576768Y-102765954D01*
X177674315Y-102948450D01*
X177805590Y-103108410D01*
X177965550Y-103239685D01*
X178148046Y-103337232D01*
X178346066Y-103397300D01*
X178552000Y-103417583D01*
X178757934Y-103397300D01*
X178955954Y-103337232D01*
X179138450Y-103239685D01*
X179298410Y-103108410D01*
X179429685Y-102948450D01*
X179527232Y-102765954D01*
X179587300Y-102567934D01*
X179607583Y-102362000D01*
X180036417Y-102362000D01*
X180056700Y-102567934D01*
X180116768Y-102765954D01*
X180214315Y-102948450D01*
X180345590Y-103108410D01*
X180505550Y-103239685D01*
X180688046Y-103337232D01*
X180886066Y-103397300D01*
X181092000Y-103417583D01*
X181297934Y-103397300D01*
X181495954Y-103337232D01*
X181678450Y-103239685D01*
X181838410Y-103108410D01*
X181969685Y-102948450D01*
X182067232Y-102765954D01*
X182127300Y-102567934D01*
X182147583Y-102362000D01*
X182135271Y-102236999D01*
X182538870Y-102236999D01*
X182538870Y-102237000D01*
X183147856Y-102237000D01*
X183132000Y-102296174D01*
X183132000Y-102427826D01*
X183147856Y-102487000D01*
X182538870Y-102487000D01*
X182546096Y-102564986D01*
X182546098Y-102564995D01*
X182601883Y-102761063D01*
X182601884Y-102761064D01*
X182692752Y-102943553D01*
X182692755Y-102943557D01*
X182815604Y-103106237D01*
X182815607Y-103106240D01*
X182966257Y-103243576D01*
X183139590Y-103350900D01*
X183329674Y-103424538D01*
X183507000Y-103457686D01*
X183507000Y-102846144D01*
X183566174Y-102862000D01*
X183697826Y-102862000D01*
X183757000Y-102846144D01*
X183757000Y-103457685D01*
X183934325Y-103424538D01*
X184124409Y-103350900D01*
X184297742Y-103243576D01*
X184448392Y-103106240D01*
X184448395Y-103106237D01*
X184571244Y-102943557D01*
X184571247Y-102943553D01*
X184662115Y-102761064D01*
X184662116Y-102761063D01*
X184717901Y-102564995D01*
X184717903Y-102564986D01*
X184725129Y-102487000D01*
X184116144Y-102487000D01*
X184132000Y-102427826D01*
X184132000Y-102296174D01*
X184116144Y-102237000D01*
X184725130Y-102237000D01*
X184725129Y-102236999D01*
X184717903Y-102159013D01*
X184717901Y-102159004D01*
X184662116Y-101962936D01*
X184662115Y-101962935D01*
X184571247Y-101780446D01*
X184571244Y-101780442D01*
X184448395Y-101617762D01*
X184448392Y-101617759D01*
X184310718Y-101492252D01*
X188433500Y-101492252D01*
X188433500Y-103231748D01*
X188445133Y-103290231D01*
X188462882Y-103316795D01*
X188489447Y-103356552D01*
X188516012Y-103374301D01*
X188555769Y-103400867D01*
X188614252Y-103412500D01*
X188614255Y-103412500D01*
X190353745Y-103412500D01*
X190353748Y-103412500D01*
X190412231Y-103400867D01*
X190478552Y-103356552D01*
X190522867Y-103290231D01*
X190534500Y-103231748D01*
X190534500Y-102236999D01*
X190930870Y-102236999D01*
X190930870Y-102237000D01*
X191539856Y-102237000D01*
X191524000Y-102296174D01*
X191524000Y-102427826D01*
X191539856Y-102487000D01*
X190930870Y-102487000D01*
X190938096Y-102564986D01*
X190938098Y-102564995D01*
X190993883Y-102761063D01*
X190993884Y-102761064D01*
X191084752Y-102943553D01*
X191084755Y-102943557D01*
X191207604Y-103106237D01*
X191207607Y-103106240D01*
X191358257Y-103243576D01*
X191531590Y-103350900D01*
X191721674Y-103424538D01*
X191899000Y-103457686D01*
X191899000Y-102846144D01*
X191958174Y-102862000D01*
X192089826Y-102862000D01*
X192149000Y-102846144D01*
X192149000Y-103457685D01*
X192326325Y-103424538D01*
X192516409Y-103350900D01*
X192689742Y-103243576D01*
X192840392Y-103106240D01*
X192840395Y-103106237D01*
X192963244Y-102943557D01*
X192963247Y-102943553D01*
X193054115Y-102761064D01*
X193054116Y-102761063D01*
X193109901Y-102564995D01*
X193109903Y-102564986D01*
X193117129Y-102487000D01*
X192508144Y-102487000D01*
X192524000Y-102427826D01*
X192524000Y-102296174D01*
X192508144Y-102237000D01*
X193117130Y-102237000D01*
X193117129Y-102236999D01*
X198804870Y-102236999D01*
X198804870Y-102237000D01*
X199413856Y-102237000D01*
X199398000Y-102296174D01*
X199398000Y-102427826D01*
X199413856Y-102487000D01*
X198804870Y-102487000D01*
X198812096Y-102564986D01*
X198812098Y-102564995D01*
X198867883Y-102761063D01*
X198867884Y-102761064D01*
X198958752Y-102943553D01*
X198958755Y-102943557D01*
X199081604Y-103106237D01*
X199081607Y-103106240D01*
X199232257Y-103243576D01*
X199405590Y-103350900D01*
X199595674Y-103424538D01*
X199773000Y-103457686D01*
X199773000Y-102846144D01*
X199832174Y-102862000D01*
X199963826Y-102862000D01*
X200023000Y-102846144D01*
X200023000Y-103457685D01*
X200200325Y-103424538D01*
X200390409Y-103350900D01*
X200563742Y-103243576D01*
X200714392Y-103106240D01*
X200714395Y-103106237D01*
X200837244Y-102943557D01*
X200837247Y-102943553D01*
X200928115Y-102761064D01*
X200928116Y-102761063D01*
X200983901Y-102564995D01*
X200983903Y-102564986D01*
X200991129Y-102487000D01*
X200382144Y-102487000D01*
X200398000Y-102427826D01*
X200398000Y-102296174D01*
X200382144Y-102237000D01*
X200991130Y-102237000D01*
X200991129Y-102236999D01*
X200983903Y-102159013D01*
X200983901Y-102159004D01*
X200928116Y-101962936D01*
X200928115Y-101962935D01*
X200837247Y-101780446D01*
X200837244Y-101780442D01*
X200714395Y-101617762D01*
X200714392Y-101617759D01*
X200563742Y-101480423D01*
X200390409Y-101373099D01*
X200200324Y-101299460D01*
X200023000Y-101266312D01*
X200023000Y-101877855D01*
X199963826Y-101862000D01*
X199832174Y-101862000D01*
X199773000Y-101877855D01*
X199773000Y-101266312D01*
X199595675Y-101299460D01*
X199405590Y-101373099D01*
X199232257Y-101480423D01*
X199081607Y-101617759D01*
X199081604Y-101617762D01*
X198958755Y-101780442D01*
X198958752Y-101780446D01*
X198867884Y-101962935D01*
X198867883Y-101962936D01*
X198812098Y-102159004D01*
X198812096Y-102159013D01*
X198804870Y-102236999D01*
X193117129Y-102236999D01*
X193109903Y-102159013D01*
X193109901Y-102159004D01*
X193054116Y-101962936D01*
X193054115Y-101962935D01*
X192963247Y-101780446D01*
X192963244Y-101780442D01*
X192840395Y-101617762D01*
X192840392Y-101617759D01*
X192689742Y-101480423D01*
X192516409Y-101373099D01*
X192326324Y-101299460D01*
X192149000Y-101266312D01*
X192149000Y-101877855D01*
X192089826Y-101862000D01*
X191958174Y-101862000D01*
X191899000Y-101877855D01*
X191899000Y-101266312D01*
X191721675Y-101299460D01*
X191531590Y-101373099D01*
X191358257Y-101480423D01*
X191207607Y-101617759D01*
X191207604Y-101617762D01*
X191084755Y-101780442D01*
X191084752Y-101780446D01*
X190993884Y-101962935D01*
X190993883Y-101962936D01*
X190938098Y-102159004D01*
X190938096Y-102159013D01*
X190930870Y-102236999D01*
X190534500Y-102236999D01*
X190534500Y-101492252D01*
X190522867Y-101433769D01*
X190491462Y-101386769D01*
X190478552Y-101367447D01*
X190417569Y-101326700D01*
X190412231Y-101323133D01*
X190353748Y-101311500D01*
X188614252Y-101311500D01*
X188555769Y-101323133D01*
X188489447Y-101367447D01*
X188445133Y-101433769D01*
X188433500Y-101492252D01*
X184310718Y-101492252D01*
X184297742Y-101480423D01*
X184124409Y-101373099D01*
X183934324Y-101299460D01*
X183757000Y-101266312D01*
X183757000Y-101877855D01*
X183697826Y-101862000D01*
X183566174Y-101862000D01*
X183507000Y-101877855D01*
X183507000Y-101266312D01*
X183329675Y-101299460D01*
X183139590Y-101373099D01*
X182966257Y-101480423D01*
X182815607Y-101617759D01*
X182815604Y-101617762D01*
X182692755Y-101780442D01*
X182692752Y-101780446D01*
X182601884Y-101962935D01*
X182601883Y-101962936D01*
X182546098Y-102159004D01*
X182546096Y-102159013D01*
X182538870Y-102236999D01*
X182135271Y-102236999D01*
X182127300Y-102156066D01*
X182074620Y-101982401D01*
X182078296Y-101945078D01*
X182086859Y-101933532D01*
X183883878Y-100136512D01*
X183883883Y-100136509D01*
X183887911Y-100132480D01*
X183887913Y-100132480D01*
X183962480Y-100057913D01*
X184015207Y-99966587D01*
X184024061Y-99933543D01*
X184042501Y-99864727D01*
X184042501Y-99759273D01*
X184042501Y-99756277D01*
X184042500Y-99756259D01*
X184042500Y-97535997D01*
X185676353Y-97535997D01*
X185676353Y-97536002D01*
X185696833Y-97678454D01*
X185728935Y-97748746D01*
X185756623Y-97809373D01*
X185756624Y-97809374D01*
X185756625Y-97809376D01*
X185838032Y-97903325D01*
X185850872Y-97918143D01*
X185971947Y-97995953D01*
X186048785Y-98018514D01*
X186110034Y-98036499D01*
X186110037Y-98036499D01*
X186110039Y-98036500D01*
X186110040Y-98036500D01*
X186253960Y-98036500D01*
X186253961Y-98036500D01*
X186253963Y-98036499D01*
X186253965Y-98036499D01*
X186281517Y-98028409D01*
X186392053Y-97995953D01*
X186513128Y-97918143D01*
X186525968Y-97903324D01*
X186559503Y-97886537D01*
X186595087Y-97898379D01*
X186600027Y-97903319D01*
X186612872Y-97918143D01*
X186733947Y-97995953D01*
X186810785Y-98018514D01*
X186872034Y-98036499D01*
X186872037Y-98036499D01*
X186872039Y-98036500D01*
X186872040Y-98036500D01*
X187015960Y-98036500D01*
X187015961Y-98036500D01*
X187015963Y-98036499D01*
X187015965Y-98036499D01*
X187043517Y-98028409D01*
X187154053Y-97995953D01*
X187275128Y-97918143D01*
X187287968Y-97903324D01*
X187321503Y-97886537D01*
X187357087Y-97898379D01*
X187362027Y-97903319D01*
X187374872Y-97918143D01*
X187495947Y-97995953D01*
X187572785Y-98018514D01*
X187634034Y-98036499D01*
X187634037Y-98036499D01*
X187634039Y-98036500D01*
X187634040Y-98036500D01*
X187777960Y-98036500D01*
X187777961Y-98036500D01*
X187777963Y-98036499D01*
X187777965Y-98036499D01*
X187805517Y-98028409D01*
X187916053Y-97995953D01*
X188037128Y-97918143D01*
X188131377Y-97809373D01*
X188191165Y-97678457D01*
X188191165Y-97678455D01*
X188191166Y-97678454D01*
X188211647Y-97536002D01*
X188211647Y-97535997D01*
X188191166Y-97393545D01*
X188140224Y-97282000D01*
X188131377Y-97262627D01*
X188086999Y-97211412D01*
X188037128Y-97153857D01*
X187916053Y-97076047D01*
X187916050Y-97076046D01*
X187777965Y-97035500D01*
X187777961Y-97035500D01*
X187634039Y-97035500D01*
X187634034Y-97035500D01*
X187495949Y-97076046D01*
X187495947Y-97076046D01*
X187495947Y-97076047D01*
X187458722Y-97099969D01*
X187374871Y-97153857D01*
X187362031Y-97168675D01*
X187328495Y-97185461D01*
X187292911Y-97173617D01*
X187287969Y-97168675D01*
X187275128Y-97153857D01*
X187154053Y-97076047D01*
X187154050Y-97076046D01*
X187015965Y-97035500D01*
X187015961Y-97035500D01*
X186872039Y-97035500D01*
X186872034Y-97035500D01*
X186733949Y-97076046D01*
X186733947Y-97076046D01*
X186733947Y-97076047D01*
X186696722Y-97099969D01*
X186612871Y-97153857D01*
X186600031Y-97168675D01*
X186566495Y-97185461D01*
X186530911Y-97173617D01*
X186525969Y-97168675D01*
X186513128Y-97153857D01*
X186392053Y-97076047D01*
X186392050Y-97076046D01*
X186253965Y-97035500D01*
X186253961Y-97035500D01*
X186110039Y-97035500D01*
X186110034Y-97035500D01*
X185971949Y-97076046D01*
X185971947Y-97076046D01*
X185971947Y-97076047D01*
X185934722Y-97099969D01*
X185850871Y-97153857D01*
X185756625Y-97262623D01*
X185756624Y-97262625D01*
X185696833Y-97393545D01*
X185676353Y-97535997D01*
X184042500Y-97535997D01*
X184042500Y-93030358D01*
X184054468Y-92998270D01*
X184067377Y-92983373D01*
X184127165Y-92852457D01*
X184127165Y-92852455D01*
X184127166Y-92852454D01*
X184147647Y-92710002D01*
X184147647Y-92709997D01*
X184127166Y-92567545D01*
X184117661Y-92546732D01*
X184067377Y-92436627D01*
X184051682Y-92418514D01*
X184041385Y-92399109D01*
X184015207Y-92301414D01*
X184015206Y-92301410D01*
X183962479Y-92210086D01*
X181516852Y-89764459D01*
X181502500Y-89729811D01*
X181502500Y-89407997D01*
X186438353Y-89407997D01*
X186438353Y-89408002D01*
X186458833Y-89550454D01*
X186490935Y-89620746D01*
X186518623Y-89681373D01*
X186518624Y-89681374D01*
X186518625Y-89681376D01*
X186600032Y-89775325D01*
X186612872Y-89790143D01*
X186733947Y-89867953D01*
X186785643Y-89883132D01*
X186872034Y-89908499D01*
X186872037Y-89908499D01*
X186872039Y-89908500D01*
X186872040Y-89908500D01*
X187015960Y-89908500D01*
X187015961Y-89908500D01*
X187015963Y-89908499D01*
X187015965Y-89908499D01*
X187053478Y-89897484D01*
X187154053Y-89867953D01*
X187275128Y-89790143D01*
X187287968Y-89775324D01*
X187321503Y-89758537D01*
X187357087Y-89770379D01*
X187362027Y-89775319D01*
X187374872Y-89790143D01*
X187495947Y-89867953D01*
X187547643Y-89883132D01*
X187634034Y-89908499D01*
X187634037Y-89908499D01*
X187634039Y-89908500D01*
X187634040Y-89908500D01*
X187777960Y-89908500D01*
X187777961Y-89908500D01*
X187777963Y-89908499D01*
X187777965Y-89908499D01*
X187815478Y-89897484D01*
X187916053Y-89867953D01*
X188037128Y-89790143D01*
X188049968Y-89775324D01*
X188083503Y-89758537D01*
X188119087Y-89770379D01*
X188124027Y-89775319D01*
X188136872Y-89790143D01*
X188257947Y-89867953D01*
X188309643Y-89883132D01*
X188396034Y-89908499D01*
X188396037Y-89908499D01*
X188396039Y-89908500D01*
X188396040Y-89908500D01*
X188539960Y-89908500D01*
X188539961Y-89908500D01*
X188539963Y-89908499D01*
X188539965Y-89908499D01*
X188577478Y-89897484D01*
X188678053Y-89867953D01*
X188799128Y-89790143D01*
X188893377Y-89681373D01*
X188953165Y-89550457D01*
X188953165Y-89550455D01*
X188953166Y-89550454D01*
X188973647Y-89408002D01*
X188973647Y-89407997D01*
X188953166Y-89265545D01*
X188944764Y-89247148D01*
X188893377Y-89134627D01*
X188848999Y-89083412D01*
X188799128Y-89025857D01*
X188678053Y-88948047D01*
X188678050Y-88948046D01*
X188539965Y-88907500D01*
X188539961Y-88907500D01*
X188396039Y-88907500D01*
X188396034Y-88907500D01*
X188257949Y-88948046D01*
X188136871Y-89025857D01*
X188124031Y-89040675D01*
X188090495Y-89057461D01*
X188054911Y-89045617D01*
X188049969Y-89040675D01*
X188037128Y-89025857D01*
X187916053Y-88948047D01*
X187916050Y-88948046D01*
X187777965Y-88907500D01*
X187777961Y-88907500D01*
X187634039Y-88907500D01*
X187634034Y-88907500D01*
X187495949Y-88948046D01*
X187374871Y-89025857D01*
X187362031Y-89040675D01*
X187328495Y-89057461D01*
X187292911Y-89045617D01*
X187287969Y-89040675D01*
X187275128Y-89025857D01*
X187154053Y-88948047D01*
X187154050Y-88948046D01*
X187015965Y-88907500D01*
X187015961Y-88907500D01*
X186872039Y-88907500D01*
X186872034Y-88907500D01*
X186733949Y-88948046D01*
X186612871Y-89025857D01*
X186518625Y-89134623D01*
X186518624Y-89134625D01*
X186458833Y-89265545D01*
X186438353Y-89407997D01*
X181502500Y-89407997D01*
X181502500Y-79314358D01*
X181514468Y-79282270D01*
X181527377Y-79267373D01*
X181587165Y-79136457D01*
X181587165Y-79136455D01*
X181587166Y-79136454D01*
X181607647Y-78994002D01*
X181607647Y-78993997D01*
X181587166Y-78851545D01*
X181581531Y-78839206D01*
X181527377Y-78720627D01*
X181433128Y-78611857D01*
X181312053Y-78534047D01*
X181312050Y-78534046D01*
X181173965Y-78493500D01*
X181173961Y-78493500D01*
X181030039Y-78493500D01*
X181030034Y-78493500D01*
X180891949Y-78534046D01*
X180770871Y-78611857D01*
X180676625Y-78720623D01*
X180676624Y-78720625D01*
X180616833Y-78851545D01*
X180596353Y-78993997D01*
X180596353Y-78994002D01*
X180616833Y-79136454D01*
X180631947Y-79169548D01*
X180676623Y-79267373D01*
X180689532Y-79282270D01*
X180701500Y-79314358D01*
X180701500Y-89968730D01*
X180728792Y-90070587D01*
X180728793Y-90070589D01*
X180781520Y-90161913D01*
X183143301Y-92523694D01*
X183157653Y-92558342D01*
X183157154Y-92565315D01*
X183136353Y-92709997D01*
X183136353Y-92710002D01*
X183156833Y-92852454D01*
X183194495Y-92934922D01*
X183216623Y-92983373D01*
X183229532Y-92998270D01*
X183241500Y-93030358D01*
X183241500Y-99625810D01*
X183227148Y-99660458D01*
X181520468Y-101367137D01*
X181485820Y-101381489D01*
X181471596Y-101379379D01*
X181297935Y-101326700D01*
X181092000Y-101306417D01*
X180886065Y-101326700D01*
X180886064Y-101326700D01*
X180688043Y-101386769D01*
X180505548Y-101484316D01*
X180345590Y-101615590D01*
X180214316Y-101775548D01*
X180116769Y-101958043D01*
X180056700Y-102156064D01*
X180056700Y-102156065D01*
X180048729Y-102237000D01*
X180036417Y-102362000D01*
X179607583Y-102362000D01*
X179587300Y-102156066D01*
X179527232Y-101958046D01*
X179429685Y-101775550D01*
X179298410Y-101615590D01*
X179138450Y-101484315D01*
X178978399Y-101398765D01*
X178954610Y-101369777D01*
X178952500Y-101355553D01*
X178952500Y-95757997D01*
X179580353Y-95757997D01*
X179580353Y-95758002D01*
X179600833Y-95900454D01*
X179632935Y-95970746D01*
X179660623Y-96031373D01*
X179660624Y-96031374D01*
X179660625Y-96031376D01*
X179754871Y-96140142D01*
X179754872Y-96140143D01*
X179875947Y-96217953D01*
X179952785Y-96240514D01*
X180014034Y-96258499D01*
X180014037Y-96258499D01*
X180014039Y-96258500D01*
X180014040Y-96258500D01*
X180157960Y-96258500D01*
X180157961Y-96258500D01*
X180157963Y-96258499D01*
X180157965Y-96258499D01*
X180180795Y-96251795D01*
X180296053Y-96217953D01*
X180417128Y-96140143D01*
X180511377Y-96031373D01*
X180571165Y-95900457D01*
X180571165Y-95900455D01*
X180571166Y-95900454D01*
X180591647Y-95758002D01*
X180591647Y-95757997D01*
X180571166Y-95615545D01*
X180566751Y-95605879D01*
X180511377Y-95484627D01*
X180417128Y-95375857D01*
X180296053Y-95298047D01*
X180296050Y-95298046D01*
X180157965Y-95257500D01*
X180157961Y-95257500D01*
X180014039Y-95257500D01*
X180014034Y-95257500D01*
X179875949Y-95298046D01*
X179754871Y-95375857D01*
X179660625Y-95484623D01*
X179660624Y-95484625D01*
X179600833Y-95615545D01*
X179580353Y-95757997D01*
X178952500Y-95757997D01*
X178952500Y-87059270D01*
X178952499Y-87059269D01*
X178930566Y-86977413D01*
X178925207Y-86957413D01*
X178925206Y-86957412D01*
X178925206Y-86957410D01*
X178872479Y-86866086D01*
X176436852Y-84430459D01*
X176422500Y-84395811D01*
X176422500Y-84394358D01*
X176434468Y-84362270D01*
X176447377Y-84347373D01*
X176507165Y-84216457D01*
X176507165Y-84216455D01*
X176507166Y-84216454D01*
X176527647Y-84074002D01*
X176527647Y-84073997D01*
X176507166Y-83931545D01*
X176477451Y-83866480D01*
X176447377Y-83800627D01*
X176439826Y-83791913D01*
X176353128Y-83691857D01*
X176232053Y-83614047D01*
X176232050Y-83614046D01*
X176093965Y-83573500D01*
X176093961Y-83573500D01*
X175950039Y-83573500D01*
X175950034Y-83573500D01*
X175811949Y-83614046D01*
X175690871Y-83691857D01*
X175596625Y-83800623D01*
X175596624Y-83800625D01*
X175536833Y-83931545D01*
X175516353Y-84073997D01*
X172524390Y-84073997D01*
X172464978Y-84014585D01*
X172451125Y-83986909D01*
X172443166Y-83931545D01*
X172413451Y-83866480D01*
X172383377Y-83800627D01*
X172375826Y-83791913D01*
X172289128Y-83691857D01*
X172168053Y-83614047D01*
X172168050Y-83614046D01*
X172029965Y-83573500D01*
X172029961Y-83573500D01*
X171886039Y-83573500D01*
X171886034Y-83573500D01*
X171747949Y-83614046D01*
X171626871Y-83691857D01*
X171532625Y-83800623D01*
X171532624Y-83800625D01*
X171494572Y-83883946D01*
X171467123Y-83909501D01*
X171429644Y-83908162D01*
X171405428Y-83883946D01*
X171381588Y-83831745D01*
X171367377Y-83800627D01*
X171359826Y-83791913D01*
X171273128Y-83691857D01*
X171152053Y-83614047D01*
X171152050Y-83614046D01*
X171013965Y-83573500D01*
X171013961Y-83573500D01*
X170870039Y-83573500D01*
X170870034Y-83573500D01*
X170731949Y-83614046D01*
X170610871Y-83691857D01*
X170516625Y-83800623D01*
X170516624Y-83800625D01*
X170478572Y-83883946D01*
X170451123Y-83909501D01*
X170413644Y-83908162D01*
X170389428Y-83883946D01*
X170365588Y-83831745D01*
X170351377Y-83800627D01*
X170343826Y-83791913D01*
X170257128Y-83691857D01*
X170136053Y-83614047D01*
X170136050Y-83614046D01*
X169997965Y-83573500D01*
X169997961Y-83573500D01*
X169854039Y-83573500D01*
X169854034Y-83573500D01*
X169715949Y-83614046D01*
X169594871Y-83691857D01*
X169500625Y-83800623D01*
X169500624Y-83800625D01*
X169462572Y-83883946D01*
X169435123Y-83909501D01*
X169397644Y-83908162D01*
X169373428Y-83883946D01*
X169349588Y-83831745D01*
X169335377Y-83800627D01*
X169327826Y-83791913D01*
X169241128Y-83691857D01*
X169120053Y-83614047D01*
X169120050Y-83614046D01*
X168981965Y-83573500D01*
X168981961Y-83573500D01*
X168838039Y-83573500D01*
X168838034Y-83573500D01*
X168699949Y-83614046D01*
X168578871Y-83691857D01*
X168484625Y-83800623D01*
X168484624Y-83800625D01*
X168424835Y-83931542D01*
X168416874Y-83986910D01*
X168403021Y-84014584D01*
X165531521Y-86886085D01*
X165531520Y-86886086D01*
X165478793Y-86977410D01*
X165477124Y-86983642D01*
X165477123Y-86983641D01*
X165477123Y-86983645D01*
X165451500Y-87079269D01*
X165451500Y-101355553D01*
X165437148Y-101390201D01*
X165425602Y-101398764D01*
X165279492Y-101476862D01*
X165265548Y-101484316D01*
X165105590Y-101615590D01*
X164974316Y-101775548D01*
X164876769Y-101958043D01*
X164816700Y-102156064D01*
X164816700Y-102156065D01*
X164808729Y-102237000D01*
X164796417Y-102362000D01*
X164362500Y-102362000D01*
X164362500Y-101492252D01*
X164350867Y-101433769D01*
X164319462Y-101386769D01*
X164306552Y-101367447D01*
X164245569Y-101326700D01*
X164240231Y-101323133D01*
X164181748Y-101311500D01*
X162442252Y-101311500D01*
X162383769Y-101323133D01*
X162317447Y-101367447D01*
X162273133Y-101433769D01*
X162261500Y-101492252D01*
X142486500Y-101492252D01*
X142486500Y-100075997D01*
X147322353Y-100075997D01*
X147322353Y-100076002D01*
X147342833Y-100218454D01*
X147374935Y-100288746D01*
X147402623Y-100349373D01*
X147402624Y-100349374D01*
X147402625Y-100349376D01*
X147453813Y-100408450D01*
X147496872Y-100458143D01*
X147617947Y-100535953D01*
X147694785Y-100558514D01*
X147756034Y-100576499D01*
X147756037Y-100576499D01*
X147756039Y-100576500D01*
X147756040Y-100576500D01*
X147899960Y-100576500D01*
X147899961Y-100576500D01*
X147899963Y-100576499D01*
X147899965Y-100576499D01*
X147927517Y-100568409D01*
X148038053Y-100535953D01*
X148159128Y-100458143D01*
X148253377Y-100349373D01*
X148313165Y-100218457D01*
X148313165Y-100218455D01*
X148313166Y-100218454D01*
X148333647Y-100076002D01*
X148333647Y-100075997D01*
X150116353Y-100075997D01*
X150116353Y-100076002D01*
X150136833Y-100218454D01*
X150168935Y-100288746D01*
X150196623Y-100349373D01*
X150196624Y-100349374D01*
X150196625Y-100349376D01*
X150247813Y-100408450D01*
X150290872Y-100458143D01*
X150411947Y-100535953D01*
X150488785Y-100558514D01*
X150550034Y-100576499D01*
X150550037Y-100576499D01*
X150550039Y-100576500D01*
X150550040Y-100576500D01*
X150693960Y-100576500D01*
X150693961Y-100576500D01*
X150693963Y-100576499D01*
X150693965Y-100576499D01*
X150721517Y-100568409D01*
X150832053Y-100535953D01*
X150953128Y-100458143D01*
X151047377Y-100349373D01*
X151107165Y-100218457D01*
X151107165Y-100218455D01*
X151107166Y-100218454D01*
X151127647Y-100076002D01*
X151127647Y-100075997D01*
X152910353Y-100075997D01*
X152910353Y-100076002D01*
X152930833Y-100218454D01*
X152962935Y-100288746D01*
X152990623Y-100349373D01*
X152990624Y-100349374D01*
X152990625Y-100349376D01*
X153041813Y-100408450D01*
X153084872Y-100458143D01*
X153205947Y-100535953D01*
X153282785Y-100558514D01*
X153344034Y-100576499D01*
X153344037Y-100576499D01*
X153344039Y-100576500D01*
X153344040Y-100576500D01*
X153487960Y-100576500D01*
X153487961Y-100576500D01*
X153487963Y-100576499D01*
X153487965Y-100576499D01*
X153515517Y-100568409D01*
X153626053Y-100535953D01*
X153747128Y-100458143D01*
X153841377Y-100349373D01*
X153901165Y-100218457D01*
X153901165Y-100218455D01*
X153901166Y-100218454D01*
X153921647Y-100076002D01*
X153921647Y-100075997D01*
X153901165Y-99933544D01*
X153901165Y-99933543D01*
X153841377Y-99802627D01*
X153803807Y-99759269D01*
X153747128Y-99693857D01*
X153626053Y-99616047D01*
X153626050Y-99616046D01*
X153487965Y-99575500D01*
X153487961Y-99575500D01*
X153344039Y-99575500D01*
X153344034Y-99575500D01*
X153205949Y-99616046D01*
X153205947Y-99616046D01*
X153205947Y-99616047D01*
X153168722Y-99639969D01*
X153084871Y-99693857D01*
X152990625Y-99802623D01*
X152990624Y-99802625D01*
X152930835Y-99933543D01*
X152930834Y-99933544D01*
X152910353Y-100075997D01*
X151127647Y-100075997D01*
X151107165Y-99933544D01*
X151107165Y-99933543D01*
X151047377Y-99802627D01*
X151009807Y-99759269D01*
X150953128Y-99693857D01*
X150832053Y-99616047D01*
X150832050Y-99616046D01*
X150693965Y-99575500D01*
X150693961Y-99575500D01*
X150550039Y-99575500D01*
X150550034Y-99575500D01*
X150411949Y-99616046D01*
X150411947Y-99616046D01*
X150411947Y-99616047D01*
X150374722Y-99639969D01*
X150290871Y-99693857D01*
X150196625Y-99802623D01*
X150196624Y-99802625D01*
X150136835Y-99933543D01*
X150136834Y-99933544D01*
X150116353Y-100075997D01*
X148333647Y-100075997D01*
X148313165Y-99933544D01*
X148313165Y-99933543D01*
X148253377Y-99802627D01*
X148215807Y-99759269D01*
X148159128Y-99693857D01*
X148038053Y-99616047D01*
X148038050Y-99616046D01*
X147899965Y-99575500D01*
X147899961Y-99575500D01*
X147756039Y-99575500D01*
X147756034Y-99575500D01*
X147617949Y-99616046D01*
X147617947Y-99616046D01*
X147617947Y-99616047D01*
X147580722Y-99639969D01*
X147496871Y-99693857D01*
X147402625Y-99802623D01*
X147402624Y-99802625D01*
X147342835Y-99933543D01*
X147342834Y-99933544D01*
X147322353Y-100075997D01*
X142486500Y-100075997D01*
X142486500Y-95757997D01*
X163832353Y-95757997D01*
X163832353Y-95758002D01*
X163852833Y-95900454D01*
X163884935Y-95970746D01*
X163912623Y-96031373D01*
X163912624Y-96031374D01*
X163912625Y-96031376D01*
X164006871Y-96140142D01*
X164006872Y-96140143D01*
X164127947Y-96217953D01*
X164204785Y-96240514D01*
X164266034Y-96258499D01*
X164266037Y-96258499D01*
X164266039Y-96258500D01*
X164266040Y-96258500D01*
X164409960Y-96258500D01*
X164409961Y-96258500D01*
X164409963Y-96258499D01*
X164409965Y-96258499D01*
X164432795Y-96251795D01*
X164548053Y-96217953D01*
X164669128Y-96140143D01*
X164763377Y-96031373D01*
X164823165Y-95900457D01*
X164823165Y-95900455D01*
X164823166Y-95900454D01*
X164843647Y-95758002D01*
X164843647Y-95757997D01*
X164823166Y-95615545D01*
X164818751Y-95605879D01*
X164763377Y-95484627D01*
X164669128Y-95375857D01*
X164548053Y-95298047D01*
X164548050Y-95298046D01*
X164409965Y-95257500D01*
X164409961Y-95257500D01*
X164266039Y-95257500D01*
X164266034Y-95257500D01*
X164127949Y-95298046D01*
X164006871Y-95375857D01*
X163912625Y-95484623D01*
X163912624Y-95484625D01*
X163852833Y-95615545D01*
X163832353Y-95757997D01*
X142486500Y-95757997D01*
X142486500Y-84964999D01*
X142924870Y-84964999D01*
X142924870Y-84965000D01*
X143533856Y-84965000D01*
X143518000Y-85024174D01*
X143518000Y-85155826D01*
X143533856Y-85215000D01*
X142924870Y-85215000D01*
X142932096Y-85292986D01*
X142932098Y-85292995D01*
X142987883Y-85489063D01*
X142987884Y-85489064D01*
X143078752Y-85671553D01*
X143078755Y-85671557D01*
X143201604Y-85834237D01*
X143201607Y-85834240D01*
X143352257Y-85971576D01*
X143525590Y-86078900D01*
X143715674Y-86152538D01*
X143893000Y-86185686D01*
X143893000Y-85574144D01*
X143952174Y-85590000D01*
X144083826Y-85590000D01*
X144143000Y-85574144D01*
X144143000Y-86185685D01*
X144320325Y-86152538D01*
X144510409Y-86078900D01*
X144683742Y-85971576D01*
X144834392Y-85834240D01*
X144834395Y-85834237D01*
X144957244Y-85671557D01*
X144957247Y-85671553D01*
X145048115Y-85489064D01*
X145048116Y-85489063D01*
X145103901Y-85292995D01*
X145103903Y-85292986D01*
X145111129Y-85215000D01*
X144502144Y-85215000D01*
X144518000Y-85155826D01*
X144518000Y-85024174D01*
X144502144Y-84965000D01*
X145111130Y-84965000D01*
X145111129Y-84964999D01*
X145103903Y-84887013D01*
X145103901Y-84887004D01*
X145048116Y-84690936D01*
X145048115Y-84690935D01*
X144957247Y-84508446D01*
X144957244Y-84508442D01*
X144834395Y-84345762D01*
X144834392Y-84345759D01*
X144683742Y-84208423D01*
X144510409Y-84101099D01*
X144320324Y-84027460D01*
X144143000Y-83994312D01*
X144143000Y-84605855D01*
X144083826Y-84590000D01*
X143952174Y-84590000D01*
X143893000Y-84605855D01*
X143893000Y-83994312D01*
X143715675Y-84027460D01*
X143525590Y-84101099D01*
X143352257Y-84208423D01*
X143201607Y-84345759D01*
X143201604Y-84345762D01*
X143078755Y-84508442D01*
X143078752Y-84508446D01*
X142987884Y-84690935D01*
X142987883Y-84690936D01*
X142932098Y-84887004D01*
X142932096Y-84887013D01*
X142924870Y-84964999D01*
X142486500Y-84964999D01*
X142486500Y-77469999D01*
X142962417Y-77469999D01*
X142962417Y-77470000D01*
X142982700Y-77675934D01*
X142982700Y-77675935D01*
X143008855Y-77762158D01*
X143042768Y-77873954D01*
X143140315Y-78056450D01*
X143271590Y-78216410D01*
X143431550Y-78347685D01*
X143614046Y-78445232D01*
X143812066Y-78505300D01*
X144018000Y-78525583D01*
X144223934Y-78505300D01*
X144421954Y-78445232D01*
X144604450Y-78347685D01*
X144764410Y-78216410D01*
X144895685Y-78056450D01*
X144993232Y-77873954D01*
X145053300Y-77675934D01*
X145073583Y-77470000D01*
X145053300Y-77264066D01*
X144993232Y-77066046D01*
X144895685Y-76883550D01*
X144764410Y-76723590D01*
X144604450Y-76592315D01*
X144421954Y-76494768D01*
X144223934Y-76434700D01*
X144018000Y-76414417D01*
X143812065Y-76434700D01*
X143812064Y-76434700D01*
X143614043Y-76494769D01*
X143431548Y-76592316D01*
X143271590Y-76723590D01*
X143140316Y-76883548D01*
X143042769Y-77066043D01*
X142982700Y-77264064D01*
X142982700Y-77264065D01*
X142962417Y-77469999D01*
X142486500Y-77469999D01*
X142486500Y-72389999D01*
X142962417Y-72389999D01*
X142962417Y-72390000D01*
X142982700Y-72595934D01*
X142982700Y-72595935D01*
X142990906Y-72622986D01*
X143042768Y-72793954D01*
X143140315Y-72976450D01*
X143271590Y-73136410D01*
X143431550Y-73267685D01*
X143614046Y-73365232D01*
X143812066Y-73425300D01*
X144018000Y-73445583D01*
X144223934Y-73425300D01*
X144421954Y-73365232D01*
X144604450Y-73267685D01*
X144764410Y-73136410D01*
X144895685Y-72976450D01*
X144993232Y-72793954D01*
X145053300Y-72595934D01*
X145073583Y-72390000D01*
X145053300Y-72184066D01*
X144993232Y-71986046D01*
X144895685Y-71803550D01*
X144764410Y-71643590D01*
X144604450Y-71512315D01*
X144421954Y-71414768D01*
X144223934Y-71354700D01*
X144018000Y-71334417D01*
X143812065Y-71354700D01*
X143812064Y-71354700D01*
X143614043Y-71414769D01*
X143431548Y-71512316D01*
X143271590Y-71643590D01*
X143140316Y-71803548D01*
X143042769Y-71986043D01*
X142982700Y-72184064D01*
X142982700Y-72184065D01*
X142962417Y-72389999D01*
X142486500Y-72389999D01*
X142486500Y-69849999D01*
X142962417Y-69849999D01*
X142962417Y-69850000D01*
X142982700Y-70055934D01*
X142982700Y-70055935D01*
X143008855Y-70142158D01*
X143042768Y-70253954D01*
X143140315Y-70436450D01*
X143271590Y-70596410D01*
X143431550Y-70727685D01*
X143614046Y-70825232D01*
X143812066Y-70885300D01*
X144018000Y-70905583D01*
X144223934Y-70885300D01*
X144421954Y-70825232D01*
X144604450Y-70727685D01*
X144764410Y-70596410D01*
X144895685Y-70436450D01*
X144993232Y-70253954D01*
X145053300Y-70055934D01*
X145073583Y-69850000D01*
X145053300Y-69644066D01*
X144993232Y-69446046D01*
X144895685Y-69263550D01*
X144764410Y-69103590D01*
X144604450Y-68972315D01*
X144421954Y-68874768D01*
X144223934Y-68814700D01*
X144018000Y-68794417D01*
X143812065Y-68814700D01*
X143812064Y-68814700D01*
X143614043Y-68874769D01*
X143431548Y-68972316D01*
X143271590Y-69103590D01*
X143140316Y-69263548D01*
X143042769Y-69446043D01*
X142982700Y-69644064D01*
X142982700Y-69644065D01*
X142962417Y-69849999D01*
X142486500Y-69849999D01*
X142486500Y-61360252D01*
X142967500Y-61360252D01*
X142967500Y-63099748D01*
X142979133Y-63158231D01*
X142993833Y-63180230D01*
X143023447Y-63224552D01*
X143047015Y-63240299D01*
X143089769Y-63268867D01*
X143148252Y-63280500D01*
X143148255Y-63280500D01*
X144887745Y-63280500D01*
X144887748Y-63280500D01*
X144946231Y-63268867D01*
X145012552Y-63224552D01*
X145056867Y-63158231D01*
X145068500Y-63099748D01*
X145068500Y-61360252D01*
X145056867Y-61301769D01*
X145029607Y-61260972D01*
X145012552Y-61235447D01*
X144972795Y-61208882D01*
X144946231Y-61191133D01*
X144887748Y-61179500D01*
X143148252Y-61179500D01*
X143089769Y-61191133D01*
X143023447Y-61235447D01*
X142992155Y-61282280D01*
X142979133Y-61301769D01*
X142967500Y-61360252D01*
X142486500Y-61360252D01*
X142486500Y-59731500D01*
X142500852Y-59696852D01*
X142535500Y-59682500D01*
X160917000Y-59682500D01*
X160951648Y-59696852D01*
G37*
%TD.AperFunction*%
%TA.AperFunction,Conductor*%
G36*
X157703237Y-81460852D02*
G01*
X157717589Y-81495500D01*
X157703237Y-81530148D01*
X157701600Y-81531712D01*
X157679603Y-81551764D01*
X157556755Y-81714442D01*
X157556752Y-81714446D01*
X157465884Y-81896935D01*
X157465883Y-81896936D01*
X157410098Y-82093004D01*
X157410096Y-82093013D01*
X157402870Y-82170999D01*
X157402870Y-82171000D01*
X158011856Y-82171000D01*
X157996000Y-82230174D01*
X157996000Y-82361826D01*
X158011856Y-82421000D01*
X157402870Y-82421000D01*
X157410096Y-82498986D01*
X157410098Y-82498995D01*
X157465883Y-82695063D01*
X157465884Y-82695064D01*
X157556752Y-82877553D01*
X157556755Y-82877557D01*
X157679603Y-83040235D01*
X157701600Y-83060288D01*
X157717537Y-83094237D01*
X157704801Y-83129511D01*
X157670852Y-83145448D01*
X157668589Y-83145500D01*
X156783411Y-83145500D01*
X156748763Y-83131148D01*
X156734411Y-83096500D01*
X156748763Y-83061852D01*
X156750400Y-83060288D01*
X156772396Y-83040235D01*
X156895244Y-82877557D01*
X156895247Y-82877553D01*
X156986115Y-82695064D01*
X156986116Y-82695063D01*
X157041901Y-82498995D01*
X157041903Y-82498986D01*
X157049129Y-82421000D01*
X156440144Y-82421000D01*
X156456000Y-82361826D01*
X156456000Y-82230174D01*
X156440144Y-82171000D01*
X157049130Y-82171000D01*
X157049129Y-82170999D01*
X157041903Y-82093013D01*
X157041901Y-82093004D01*
X156986116Y-81896936D01*
X156986115Y-81896935D01*
X156895247Y-81714446D01*
X156895244Y-81714442D01*
X156772396Y-81551764D01*
X156750400Y-81531712D01*
X156734463Y-81497763D01*
X156747199Y-81462489D01*
X156781148Y-81446552D01*
X156783411Y-81446500D01*
X157668589Y-81446500D01*
X157703237Y-81460852D01*
G37*
%TD.AperFunction*%
%TD*%
M02*
